<svg width="31" height="32" viewBox="0 0 31 32" fill="none" xmlns="http://www.w3.org/2000/svg">
<g id="Layer 40">
<g id="Vector">
<mask id="path-1-outside-1_4506_13132" maskUnits="userSpaceOnUse" x="0.265625" y="-0.566406" width="31" height="33" fill="black">
<rect fill="white" x="0.265625" y="-0.566406" width="31" height="33"/>
<path d="M27.7367 14.0037C28.6627 13.6051 29.4252 12.9029 29.8985 12.0128C30.3719 11.1227 30.5278 10.0979 30.3405 9.10734L29.1329 3.49396C28.8861 2.58791 28.3393 1.79232 27.582 1.23714C26.8246 0.681953 25.9013 0.399978 24.963 0.437267H6.70772C5.76613 0.39755 4.83926 0.680884 4.08082 1.24028C3.32237 1.79968 2.77793 2.60152 2.53778 3.51283L1.33963 9.11678C1.15659 10.1082 1.31542 11.1325 1.79014 12.0219C2.26486 12.9114 3.02736 13.6134 3.95292 14.0132L2.26419 21.8625C2.01039 23.0323 2.02204 24.2442 2.29827 25.4089C2.5745 26.5737 3.10828 27.6617 3.86038 28.593C4.61247 29.5243 5.56375 30.2752 6.64425 30.7904C7.72475 31.3056 8.90699 31.5721 10.1041 31.5703H21.5855C22.783 31.5707 23.9654 31.3029 25.0458 30.7866C26.1263 30.2702 27.0774 29.5185 27.8293 28.5865C28.5812 27.6545 29.1148 26.566 29.391 25.4008C29.6672 24.2356 29.679 23.0233 29.4254 21.853L27.7367 14.0037ZM28.2178 3.73926L29.4254 9.30546C29.5677 10.1484 29.4032 11.0144 28.9619 11.7465C28.5205 12.4786 27.8315 13.0284 27.0197 13.2962C26.4661 13.5249 25.8733 13.6435 25.2743 13.6452C24.2735 13.7059 23.2855 13.3947 22.5001 12.7713C21.7148 12.1479 21.1875 11.2563 21.0195 10.2678L20.293 2.61658L20.1327 1.38069H24.963C25.6927 1.34586 26.4125 1.56042 27.0041 1.98908C27.5956 2.41775 28.0237 3.03498 28.2178 3.73926ZM11.6984 10.3432C11.6889 10.1704 11.6889 9.99718 11.6984 9.82435L12.5004 1.42786H19.1892L19.2647 2.26751L19.9911 9.81491C20.0007 9.98774 20.0007 10.161 19.9911 10.3338C19.8358 11.3035 19.3242 12.1804 18.5565 12.7929C17.7887 13.4053 16.8201 13.7093 15.8401 13.6452C15.5745 13.6475 15.3092 13.6253 15.0476 13.5792C14.2078 13.4922 13.4215 13.1261 12.8143 12.5395C12.2072 11.9528 11.8143 11.1795 11.6984 10.3432ZM2.26419 9.39981L3.4529 3.73926C3.64703 3.03498 4.07507 2.41775 4.66662 1.98908C5.25818 1.56042 5.97801 1.34586 6.70772 1.38069H11.5475L10.7644 9.68283L10.7078 10.2772C10.5378 11.264 10.0096 12.1533 9.22445 12.7748C8.43932 13.3963 7.45247 13.7062 6.453 13.6452C5.84328 13.6469 5.2386 13.5349 4.66992 13.315C3.85595 13.0436 3.16552 12.4907 2.7228 11.7557C2.28008 11.0207 2.11411 10.1519 2.25475 9.30546L2.26419 9.39981ZM11.6041 30.7212V27.3249C11.6041 26.1989 12.0514 25.1191 12.8476 24.3229C13.6437 23.5268 14.7236 23.0795 15.8495 23.0795C16.9755 23.0795 18.0553 23.5268 18.8515 24.3229C19.6476 25.1191 20.0949 26.1989 20.0949 27.3249V30.6269L11.6041 30.7212ZM13.4909 19.8718C13.4721 19.4014 13.5945 18.9361 13.8424 18.5358C14.0903 18.1355 14.4523 17.8186 14.8818 17.6258C15.3113 17.433 15.7887 17.3731 16.2526 17.454C16.7164 17.5348 17.1454 17.7526 17.4844 18.0793C17.8234 18.4061 18.0568 18.8268 18.1547 19.2873C18.2525 19.7479 18.2103 20.2272 18.0334 20.6635C17.8566 21.0998 17.5532 21.4732 17.1623 21.7357C16.7714 21.9981 16.3109 22.1376 15.8401 22.136C15.2145 22.136 14.6146 21.8876 14.1723 21.4452C13.73 21.0029 13.4815 20.403 13.4815 19.7775L13.4909 19.8718ZM27.1046 28.0985C26.4414 28.9206 25.602 29.5831 24.6483 30.0371C23.6947 30.4911 22.6512 30.7249 21.595 30.7212H21.0289V27.3249C21.0283 26.281 20.7128 25.2617 20.1237 24.3999C19.5346 23.5382 18.6993 22.8741 17.7269 22.4945C18.3038 22.0928 18.7375 21.5175 18.9647 20.8523C19.192 20.1871 19.201 19.4667 18.9905 18.796C18.78 18.1252 18.361 17.5392 17.7943 17.1232C17.2277 16.7071 16.5431 16.4828 15.8401 16.4828C15.1371 16.4828 14.4525 16.7071 13.8858 17.1232C13.3192 17.5392 12.9001 18.1252 12.6896 18.796C12.4791 19.4667 12.4881 20.1871 12.7154 20.8523C12.9427 21.5175 13.3763 22.0928 13.9532 22.4945C12.9808 22.8741 12.1455 23.5382 11.5565 24.3999C10.9674 25.2617 10.6519 26.281 10.6512 27.3249V30.6269H10.1041C9.04766 30.628 8.0044 30.3927 7.05086 29.938C6.09731 29.4833 5.25767 28.8209 4.59356 27.9994C3.92945 27.1778 3.45772 26.218 3.213 25.1903C2.96827 24.1627 2.95676 23.0933 3.17931 22.0606L4.83974 14.3622C4.95295 14.3622 5.0756 14.3622 5.18881 14.4377C5.30202 14.5132 5.37749 14.4849 5.47183 14.4943C6.09573 14.6071 6.73479 14.6071 7.35868 14.4943L7.61341 14.4471C7.82096 14.4 8.02852 14.3528 8.22664 14.2867L8.48136 14.2018C8.70114 14.1179 8.91541 14.0203 9.12289 13.9094C9.16548 13.8945 9.20655 13.8755 9.24553 13.8528C9.49306 13.7187 9.72688 13.5607 9.94367 13.3811L10.0286 13.315C10.2154 13.1565 10.3889 12.983 10.5475 12.7961L10.6512 12.6829C10.8097 12.4853 10.9546 12.2773 11.0852 12.0603V12.0131C11.0852 12.0131 11.1418 11.9376 11.1607 11.8905C11.1589 11.9124 11.1589 11.9345 11.1607 11.9565L11.2739 12.1452C11.3777 12.315 11.4815 12.4659 11.5947 12.6169L11.7645 12.8244L12.1796 13.2395L12.34 13.3811C12.5519 13.551 12.7757 13.7055 13.0098 13.8433L13.1513 13.9094C13.3497 14.0227 13.5581 14.1175 13.774 14.1924L14.0287 14.2867C14.2268 14.3434 14.4249 14.4 14.6325 14.4377L14.8872 14.4943C15.4773 14.595 16.0802 14.595 16.6703 14.4943L16.9345 14.4377C17.1326 14.4377 17.3307 14.3434 17.5288 14.2867L17.7835 14.1924C17.9922 14.1184 18.1942 14.0269 18.3873 13.9188L18.5477 13.8433C18.7766 13.7055 18.9971 13.5543 19.2081 13.3905L19.3968 13.2207C19.5327 13.0989 19.6618 12.9698 19.7836 12.8339L19.9723 12.6075C20.0761 12.4754 20.1704 12.3244 20.2647 12.1829L20.4063 11.9471V11.8905L20.4629 11.9754L20.5761 12.164C20.6784 12.3318 20.7919 12.4926 20.9157 12.6452L21.0761 12.8433C21.2176 12.9848 21.3591 13.1263 21.5195 13.2679L21.6704 13.3999C21.8824 13.5669 22.1063 13.7183 22.3403 13.8528L22.5007 13.9282C22.6988 14.0329 22.9037 14.1243 23.1139 14.2018L23.378 14.2867C23.5733 14.3502 23.7717 14.4037 23.9724 14.4471L24.2366 14.4943C24.8605 14.6061 25.4994 14.6061 26.1234 14.4943L26.397 14.4377L26.7461 14.3622L28.4065 22.0511C28.6454 23.0784 28.6516 24.1461 28.4248 25.1761C28.1979 26.2061 27.7436 27.1723 27.0951 28.0042L27.1046 28.0985Z"/>
</mask>
<path d="M27.7367 14.0037C28.6627 13.6051 29.4252 12.9029 29.8985 12.0128C30.3719 11.1227 30.5278 10.0979 30.3405 9.10734L29.1329 3.49396C28.8861 2.58791 28.3393 1.79232 27.582 1.23714C26.8246 0.681953 25.9013 0.399978 24.963 0.437267H6.70772C5.76613 0.39755 4.83926 0.680884 4.08082 1.24028C3.32237 1.79968 2.77793 2.60152 2.53778 3.51283L1.33963 9.11678C1.15659 10.1082 1.31542 11.1325 1.79014 12.0219C2.26486 12.9114 3.02736 13.6134 3.95292 14.0132L2.26419 21.8625C2.01039 23.0323 2.02204 24.2442 2.29827 25.4089C2.5745 26.5737 3.10828 27.6617 3.86038 28.593C4.61247 29.5243 5.56375 30.2752 6.64425 30.7904C7.72475 31.3056 8.90699 31.5721 10.1041 31.5703H21.5855C22.783 31.5707 23.9654 31.3029 25.0458 30.7866C26.1263 30.2702 27.0774 29.5185 27.8293 28.5865C28.5812 27.6545 29.1148 26.566 29.391 25.4008C29.6672 24.2356 29.679 23.0233 29.4254 21.853L27.7367 14.0037ZM28.2178 3.73926L29.4254 9.30546C29.5677 10.1484 29.4032 11.0144 28.9619 11.7465C28.5205 12.4786 27.8315 13.0284 27.0197 13.2962C26.4661 13.5249 25.8733 13.6435 25.2743 13.6452C24.2735 13.7059 23.2855 13.3947 22.5001 12.7713C21.7148 12.1479 21.1875 11.2563 21.0195 10.2678L20.293 2.61658L20.1327 1.38069H24.963C25.6927 1.34586 26.4125 1.56042 27.0041 1.98908C27.5956 2.41775 28.0237 3.03498 28.2178 3.73926ZM11.6984 10.3432C11.6889 10.1704 11.6889 9.99718 11.6984 9.82435L12.5004 1.42786H19.1892L19.2647 2.26751L19.9911 9.81491C20.0007 9.98774 20.0007 10.161 19.9911 10.3338C19.8358 11.3035 19.3242 12.1804 18.5565 12.7929C17.7887 13.4053 16.8201 13.7093 15.8401 13.6452C15.5745 13.6475 15.3092 13.6253 15.0476 13.5792C14.2078 13.4922 13.4215 13.1261 12.8143 12.5395C12.2072 11.9528 11.8143 11.1795 11.6984 10.3432ZM2.26419 9.39981L3.4529 3.73926C3.64703 3.03498 4.07507 2.41775 4.66662 1.98908C5.25818 1.56042 5.97801 1.34586 6.70772 1.38069H11.5475L10.7644 9.68283L10.7078 10.2772C10.5378 11.264 10.0096 12.1533 9.22445 12.7748C8.43932 13.3963 7.45247 13.7062 6.453 13.6452C5.84328 13.6469 5.2386 13.5349 4.66992 13.315C3.85595 13.0436 3.16552 12.4907 2.7228 11.7557C2.28008 11.0207 2.11411 10.1519 2.25475 9.30546L2.26419 9.39981ZM11.6041 30.7212V27.3249C11.6041 26.1989 12.0514 25.1191 12.8476 24.3229C13.6437 23.5268 14.7236 23.0795 15.8495 23.0795C16.9755 23.0795 18.0553 23.5268 18.8515 24.3229C19.6476 25.1191 20.0949 26.1989 20.0949 27.3249V30.6269L11.6041 30.7212ZM13.4909 19.8718C13.4721 19.4014 13.5945 18.9361 13.8424 18.5358C14.0903 18.1355 14.4523 17.8186 14.8818 17.6258C15.3113 17.433 15.7887 17.3731 16.2526 17.454C16.7164 17.5348 17.1454 17.7526 17.4844 18.0793C17.8234 18.4061 18.0568 18.8268 18.1547 19.2873C18.2525 19.7479 18.2103 20.2272 18.0334 20.6635C17.8566 21.0998 17.5532 21.4732 17.1623 21.7357C16.7714 21.9981 16.3109 22.1376 15.8401 22.136C15.2145 22.136 14.6146 21.8876 14.1723 21.4452C13.73 21.0029 13.4815 20.403 13.4815 19.7775L13.4909 19.8718ZM27.1046 28.0985C26.4414 28.9206 25.602 29.5831 24.6483 30.0371C23.6947 30.4911 22.6512 30.7249 21.595 30.7212H21.0289V27.3249C21.0283 26.281 20.7128 25.2617 20.1237 24.3999C19.5346 23.5382 18.6993 22.8741 17.7269 22.4945C18.3038 22.0928 18.7375 21.5175 18.9647 20.8523C19.192 20.1871 19.201 19.4667 18.9905 18.796C18.78 18.1252 18.361 17.5392 17.7943 17.1232C17.2277 16.7071 16.5431 16.4828 15.8401 16.4828C15.1371 16.4828 14.4525 16.7071 13.8858 17.1232C13.3192 17.5392 12.9001 18.1252 12.6896 18.796C12.4791 19.4667 12.4881 20.1871 12.7154 20.8523C12.9427 21.5175 13.3763 22.0928 13.9532 22.4945C12.9808 22.8741 12.1455 23.5382 11.5565 24.3999C10.9674 25.2617 10.6519 26.281 10.6512 27.3249V30.6269H10.1041C9.04766 30.628 8.0044 30.3927 7.05086 29.938C6.09731 29.4833 5.25767 28.8209 4.59356 27.9994C3.92945 27.1778 3.45772 26.218 3.213 25.1903C2.96827 24.1627 2.95676 23.0933 3.17931 22.0606L4.83974 14.3622C4.95295 14.3622 5.0756 14.3622 5.18881 14.4377C5.30202 14.5132 5.37749 14.4849 5.47183 14.4943C6.09573 14.6071 6.73479 14.6071 7.35868 14.4943L7.61341 14.4471C7.82096 14.4 8.02852 14.3528 8.22664 14.2867L8.48136 14.2018C8.70114 14.1179 8.91541 14.0203 9.12289 13.9094C9.16548 13.8945 9.20655 13.8755 9.24553 13.8528C9.49306 13.7187 9.72688 13.5607 9.94367 13.3811L10.0286 13.315C10.2154 13.1565 10.3889 12.983 10.5475 12.7961L10.6512 12.6829C10.8097 12.4853 10.9546 12.2773 11.0852 12.0603V12.0131C11.0852 12.0131 11.1418 11.9376 11.1607 11.8905C11.1589 11.9124 11.1589 11.9345 11.1607 11.9565L11.2739 12.1452C11.3777 12.315 11.4815 12.4659 11.5947 12.6169L11.7645 12.8244L12.1796 13.2395L12.34 13.3811C12.5519 13.551 12.7757 13.7055 13.0098 13.8433L13.1513 13.9094C13.3497 14.0227 13.5581 14.1175 13.774 14.1924L14.0287 14.2867C14.2268 14.3434 14.4249 14.4 14.6325 14.4377L14.8872 14.4943C15.4773 14.595 16.0802 14.595 16.6703 14.4943L16.9345 14.4377C17.1326 14.4377 17.3307 14.3434 17.5288 14.2867L17.7835 14.1924C17.9922 14.1184 18.1942 14.0269 18.3873 13.9188L18.5477 13.8433C18.7766 13.7055 18.9971 13.5543 19.2081 13.3905L19.3968 13.2207C19.5327 13.0989 19.6618 12.9698 19.7836 12.8339L19.9723 12.6075C20.0761 12.4754 20.1704 12.3244 20.2647 12.1829L20.4063 11.9471V11.8905L20.4629 11.9754L20.5761 12.164C20.6784 12.3318 20.7919 12.4926 20.9157 12.6452L21.0761 12.8433C21.2176 12.9848 21.3591 13.1263 21.5195 13.2679L21.6704 13.3999C21.8824 13.5669 22.1063 13.7183 22.3403 13.8528L22.5007 13.9282C22.6988 14.0329 22.9037 14.1243 23.1139 14.2018L23.378 14.2867C23.5733 14.3502 23.7717 14.4037 23.9724 14.4471L24.2366 14.4943C24.8605 14.6061 25.4994 14.6061 26.1234 14.4943L26.397 14.4377L26.7461 14.3622L28.4065 22.0511C28.6454 23.0784 28.6516 24.1461 28.4248 25.1761C28.1979 26.2061 27.7436 27.1723 27.0951 28.0042L27.1046 28.0985Z" fill="black"/>
<path d="M27.7367 14.0037C28.6627 13.6051 29.4252 12.9029 29.8985 12.0128C30.3719 11.1227 30.5278 10.0979 30.3405 9.10734L29.1329 3.49396C28.8861 2.58791 28.3393 1.79232 27.582 1.23714C26.8246 0.681953 25.9013 0.399978 24.963 0.437267H6.70772C5.76613 0.39755 4.83926 0.680884 4.08082 1.24028C3.32237 1.79968 2.77793 2.60152 2.53778 3.51283L1.33963 9.11678C1.15659 10.1082 1.31542 11.1325 1.79014 12.0219C2.26486 12.9114 3.02736 13.6134 3.95292 14.0132L2.26419 21.8625C2.01039 23.0323 2.02204 24.2442 2.29827 25.4089C2.5745 26.5737 3.10828 27.6617 3.86038 28.593C4.61247 29.5243 5.56375 30.2752 6.64425 30.7904C7.72475 31.3056 8.90699 31.5721 10.1041 31.5703H21.5855C22.783 31.5707 23.9654 31.3029 25.0458 30.7866C26.1263 30.2702 27.0774 29.5185 27.8293 28.5865C28.5812 27.6545 29.1148 26.566 29.391 25.4008C29.6672 24.2356 29.679 23.0233 29.4254 21.853L27.7367 14.0037ZM28.2178 3.73926L29.4254 9.30546C29.5677 10.1484 29.4032 11.0144 28.9619 11.7465C28.5205 12.4786 27.8315 13.0284 27.0197 13.2962C26.4661 13.5249 25.8733 13.6435 25.2743 13.6452C24.2735 13.7059 23.2855 13.3947 22.5001 12.7713C21.7148 12.1479 21.1875 11.2563 21.0195 10.2678L20.293 2.61658L20.1327 1.38069H24.963C25.6927 1.34586 26.4125 1.56042 27.0041 1.98908C27.5956 2.41775 28.0237 3.03498 28.2178 3.73926ZM11.6984 10.3432C11.6889 10.1704 11.6889 9.99718 11.6984 9.82435L12.5004 1.42786H19.1892L19.2647 2.26751L19.9911 9.81491C20.0007 9.98774 20.0007 10.161 19.9911 10.3338C19.8358 11.3035 19.3242 12.1804 18.5565 12.7929C17.7887 13.4053 16.8201 13.7093 15.8401 13.6452C15.5745 13.6475 15.3092 13.6253 15.0476 13.5792C14.2078 13.4922 13.4215 13.1261 12.8143 12.5395C12.2072 11.9528 11.8143 11.1795 11.6984 10.3432ZM2.26419 9.39981L3.4529 3.73926C3.64703 3.03498 4.07507 2.41775 4.66662 1.98908C5.25818 1.56042 5.97801 1.34586 6.70772 1.38069H11.5475L10.7644 9.68283L10.7078 10.2772C10.5378 11.264 10.0096 12.1533 9.22445 12.7748C8.43932 13.3963 7.45247 13.7062 6.453 13.6452C5.84328 13.6469 5.2386 13.5349 4.66992 13.315C3.85595 13.0436 3.16552 12.4907 2.7228 11.7557C2.28008 11.0207 2.11411 10.1519 2.25475 9.30546L2.26419 9.39981ZM11.6041 30.7212V27.3249C11.6041 26.1989 12.0514 25.1191 12.8476 24.3229C13.6437 23.5268 14.7236 23.0795 15.8495 23.0795C16.9755 23.0795 18.0553 23.5268 18.8515 24.3229C19.6476 25.1191 20.0949 26.1989 20.0949 27.3249V30.6269L11.6041 30.7212ZM13.4909 19.8718C13.4721 19.4014 13.5945 18.9361 13.8424 18.5358C14.0903 18.1355 14.4523 17.8186 14.8818 17.6258C15.3113 17.433 15.7887 17.3731 16.2526 17.454C16.7164 17.5348 17.1454 17.7526 17.4844 18.0793C17.8234 18.4061 18.0568 18.8268 18.1547 19.2873C18.2525 19.7479 18.2103 20.2272 18.0334 20.6635C17.8566 21.0998 17.5532 21.4732 17.1623 21.7357C16.7714 21.9981 16.3109 22.1376 15.8401 22.136C15.2145 22.136 14.6146 21.8876 14.1723 21.4452C13.73 21.0029 13.4815 20.403 13.4815 19.7775L13.4909 19.8718ZM27.1046 28.0985C26.4414 28.9206 25.602 29.5831 24.6483 30.0371C23.6947 30.4911 22.6512 30.7249 21.595 30.7212H21.0289V27.3249C21.0283 26.281 20.7128 25.2617 20.1237 24.3999C19.5346 23.5382 18.6993 22.8741 17.7269 22.4945C18.3038 22.0928 18.7375 21.5175 18.9647 20.8523C19.192 20.1871 19.201 19.4667 18.9905 18.796C18.78 18.1252 18.361 17.5392 17.7943 17.1232C17.2277 16.7071 16.5431 16.4828 15.8401 16.4828C15.1371 16.4828 14.4525 16.7071 13.8858 17.1232C13.3192 17.5392 12.9001 18.1252 12.6896 18.796C12.4791 19.4667 12.4881 20.1871 12.7154 20.8523C12.9427 21.5175 13.3763 22.0928 13.9532 22.4945C12.9808 22.8741 12.1455 23.5382 11.5565 24.3999C10.9674 25.2617 10.6519 26.281 10.6512 27.3249V30.6269H10.1041C9.04766 30.628 8.0044 30.3927 7.05086 29.938C6.09731 29.4833 5.25767 28.8209 4.59356 27.9994C3.92945 27.1778 3.45772 26.218 3.213 25.1903C2.96827 24.1627 2.95676 23.0933 3.17931 22.0606L4.83974 14.3622C4.95295 14.3622 5.0756 14.3622 5.18881 14.4377C5.30202 14.5132 5.37749 14.4849 5.47183 14.4943C6.09573 14.6071 6.73479 14.6071 7.35868 14.4943L7.61341 14.4471C7.82096 14.4 8.02852 14.3528 8.22664 14.2867L8.48136 14.2018C8.70114 14.1179 8.91541 14.0203 9.12289 13.9094C9.16548 13.8945 9.20655 13.8755 9.24553 13.8528C9.49306 13.7187 9.72688 13.5607 9.94367 13.3811L10.0286 13.315C10.2154 13.1565 10.3889 12.983 10.5475 12.7961L10.6512 12.6829C10.8097 12.4853 10.9546 12.2773 11.0852 12.0603V12.0131C11.0852 12.0131 11.1418 11.9376 11.1607 11.8905C11.1589 11.9124 11.1589 11.9345 11.1607 11.9565L11.2739 12.1452C11.3777 12.315 11.4815 12.4659 11.5947 12.6169L11.7645 12.8244L12.1796 13.2395L12.34 13.3811C12.5519 13.551 12.7757 13.7055 13.0098 13.8433L13.1513 13.9094C13.3497 14.0227 13.5581 14.1175 13.774 14.1924L14.0287 14.2867C14.2268 14.3434 14.4249 14.4 14.6325 14.4377L14.8872 14.4943C15.4773 14.595 16.0802 14.595 16.6703 14.4943L16.9345 14.4377C17.1326 14.4377 17.3307 14.3434 17.5288 14.2867L17.7835 14.1924C17.9922 14.1184 18.1942 14.0269 18.3873 13.9188L18.5477 13.8433C18.7766 13.7055 18.9971 13.5543 19.2081 13.3905L19.3968 13.2207C19.5327 13.0989 19.6618 12.9698 19.7836 12.8339L19.9723 12.6075C20.0761 12.4754 20.1704 12.3244 20.2647 12.1829L20.4063 11.9471V11.8905L20.4629 11.9754L20.5761 12.164C20.6784 12.3318 20.7919 12.4926 20.9157 12.6452L21.0761 12.8433C21.2176 12.9848 21.3591 13.1263 21.5195 13.2679L21.6704 13.3999C21.8824 13.5669 22.1063 13.7183 22.3403 13.8528L22.5007 13.9282C22.6988 14.0329 22.9037 14.1243 23.1139 14.2018L23.378 14.2867C23.5733 14.3502 23.7717 14.4037 23.9724 14.4471L24.2366 14.4943C24.8605 14.6061 25.4994 14.6061 26.1234 14.4943L26.397 14.4377L26.7461 14.3622L28.4065 22.0511C28.6454 23.0784 28.6516 24.1461 28.4248 25.1761C28.1979 26.2061 27.7436 27.1723 27.0951 28.0042L27.1046 28.0985Z" stroke="black" stroke-width="0.8" mask="url(#path-1-outside-1_4506_13132)"/>
</g>
</g>
</svg>
