<svg width="37" height="37" viewBox="0 0 37 37" fill="none" xmlns="http://www.w3.org/2000/svg">
<g id="Publish">
<path id="Vector" d="M32.2227 3.76673L4.86907 12.7048C4.09657 12.9573 3.98486 14.008 4.68791 14.4168L15.0251 20.4277C15.3512 20.6173 15.7588 20.5945 16.0616 20.3696L18.9675 18.2116L16.8095 21.1174C16.5846 21.4203 16.5617 21.8279 16.7513 22.154L22.7622 32.4912C23.1715 33.1948 24.222 33.0819 24.4743 32.31L33.4124 4.95638C33.6521 4.22189 32.9536 3.52774 32.2227 3.76673ZM23.3348 29.723L18.6946 21.743L24.2899 14.2087C24.5686 13.8332 24.5303 13.3101 24.1995 12.9794C23.8689 12.6486 23.3457 12.6102 22.9702 12.889L15.4359 18.4844L7.45594 13.8441L31.0418 6.13718L23.3348 29.723ZM14.1231 24.3898L7.86017 30.6526C7.49184 31.0209 6.8946 31.021 6.52627 30.6526C6.15788 30.2843 6.15788 29.6871 6.52627 29.3187L12.7892 23.0559C13.1576 22.6876 13.7549 22.6875 14.1231 23.0559C14.4915 23.4242 14.4915 24.0214 14.1231 24.3898ZM5.84926 24.6268C5.48088 24.2584 5.48088 23.6612 5.84926 23.2929L8.32052 20.8215C8.68885 20.4531 9.2861 20.4531 9.65443 20.8215C10.0228 21.1899 10.0228 21.7871 9.65443 22.1554L7.18317 24.6268C6.8149 24.995 6.2176 24.9951 5.84926 24.6268ZM16.3574 27.5245C16.7258 27.8928 16.7258 28.49 16.3574 28.8584L13.8861 31.3296C13.7019 31.5139 13.4605 31.6059 13.2192 31.6059C12.3864 31.6059 11.9564 30.5916 12.5523 29.9957L15.0236 27.5245C15.3919 27.1561 15.9891 27.1561 16.3574 27.5245Z" fill="black"/>
</g>
</svg>
