<svg width="34" height="34" viewBox="0 0 34 34" fill="none" xmlns="http://www.w3.org/2000/svg">
<g id="letter">
<path id="Vector" d="M28.1562 1.72656H11.1562C9.76485 1.72656 8.63281 2.8586 8.63281 4.25V20.8516H5.84375C4.45235 20.8516 3.32031 21.9836 3.32031 23.375V29.2188C3.32031 30.903 4.69073 32.2734 6.375 32.2734H27.0938C29.0712 32.2734 30.6797 30.6649 30.6797 28.6875V4.25C30.6797 2.8586 29.5476 1.72656 28.1562 1.72656ZM4.11719 29.2188V23.375C4.11719 22.423 4.89175 21.6484 5.84375 21.6484H8.63281V29.2188C8.63281 30.4636 7.61988 31.4766 6.375 31.4766C5.13012 31.4766 4.11719 30.4636 4.11719 29.2188ZM29.8828 28.6875C29.8828 30.2255 28.6317 31.4766 27.0938 31.4766H8.4252C9.04044 30.9174 9.42969 30.1136 9.42969 29.2188V4.25C9.42969 3.298 10.2042 2.52344 11.1562 2.52344H28.1562C29.1082 2.52344 29.8828 3.298 29.8828 4.25V28.6875ZM26.4297 13.8125C26.4297 14.0325 26.2512 14.2109 26.0312 14.2109H13.2812C13.0613 14.2109 12.8828 14.0325 12.8828 13.8125C12.8828 13.5925 13.0613 13.4141 13.2812 13.4141H26.0312C26.2512 13.4141 26.4297 13.5925 26.4297 13.8125ZM26.4297 17C26.4297 17.22 26.2512 17.3984 26.0312 17.3984H19.6562C19.4363 17.3984 19.2578 17.22 19.2578 17C19.2578 16.78 19.4363 16.6016 19.6562 16.6016H26.0312C26.2512 16.6016 26.4297 16.78 26.4297 17ZM26.4297 20.1875C26.4297 20.4075 26.2512 20.5859 26.0312 20.5859H19.6562C19.4363 20.5859 19.2578 20.4075 19.2578 20.1875C19.2578 19.9675 19.4363 19.7891 19.6562 19.7891H26.0312C26.2512 19.7891 26.4297 19.9675 26.4297 20.1875ZM26.4297 23.375C26.4297 23.595 26.2512 23.7734 26.0312 23.7734H19.6562C19.4363 23.7734 19.2578 23.595 19.2578 23.375C19.2578 23.155 19.4363 22.9766 19.6562 22.9766H26.0312C26.2512 22.9766 26.4297 23.155 26.4297 23.375ZM26.4297 26.5625C26.4297 26.7825 26.2512 26.9609 26.0312 26.9609H19.6562C19.4363 26.9609 19.2578 26.7825 19.2578 26.5625C19.2578 26.3425 19.4363 26.1641 19.6562 26.1641H26.0312C26.2512 26.1641 26.4297 26.3425 26.4297 26.5625ZM16.8672 17C16.8672 17.22 16.6887 17.3984 16.4688 17.3984H13.2812C13.0613 17.3984 12.8828 17.22 12.8828 17C12.8828 16.78 13.0613 16.6016 13.2812 16.6016H16.4688C16.6887 16.6016 16.8672 16.78 16.8672 17ZM16.8672 20.1875C16.8672 20.4075 16.6887 20.5859 16.4688 20.5859H13.2812C13.0613 20.5859 12.8828 20.4075 12.8828 20.1875C12.8828 19.9675 13.0613 19.7891 13.2812 19.7891H16.4688C16.6887 19.7891 16.8672 19.9675 16.8672 20.1875ZM16.8672 23.375C16.8672 23.595 16.6887 23.7734 16.4688 23.7734H13.2812C13.0613 23.7734 12.8828 23.595 12.8828 23.375C12.8828 23.155 13.0613 22.9766 13.2812 22.9766H16.4688C16.6887 22.9766 16.8672 23.155 16.8672 23.375ZM16.8672 26.5625C16.8672 26.7825 16.6887 26.9609 16.4688 26.9609H13.2812C13.0613 26.9609 12.8828 26.7825 12.8828 26.5625C12.8828 26.3425 13.0613 26.1641 13.2812 26.1641H16.4688C16.6887 26.1641 16.8672 26.3425 16.8672 26.5625ZM26.4297 10.625C26.4297 10.845 26.2512 11.0234 26.0312 11.0234H13.2812C13.0613 11.0234 12.8828 10.845 12.8828 10.625C12.8828 10.405 13.0613 10.2266 13.2812 10.2266H26.0312C26.2512 10.2266 26.4297 10.405 26.4297 10.625ZM26.4297 7.4375C26.4297 7.65749 26.2512 7.83594 26.0312 7.83594H13.2812C13.0613 7.83594 12.8828 7.65749 12.8828 7.4375C12.8828 7.21751 13.0613 7.03906 13.2812 7.03906H26.0312C26.2512 7.03906 26.4297 7.21751 26.4297 7.4375Z" fill="black" stroke="black" stroke-width="0.5"/>
</g>
</svg>
