<svg width="33" height="33" viewBox="0 0 33 33" fill="none" xmlns="http://www.w3.org/2000/svg">
<g id="user-avatar-icon">
<path id="Vector" d="M15.9902 15.9922C15.0013 15.9922 14.0346 15.6989 13.2124 15.1495C12.3901 14.6001 11.7493 13.8192 11.3708 12.9056C10.9924 11.992 10.8934 10.9866 11.0863 10.0167C11.2792 9.04683 11.7554 8.15592 12.4547 7.45666C13.154 6.75739 14.0449 6.28119 15.0148 6.08826C15.9847 5.89534 16.99 5.99435 17.9037 6.37279C18.8173 6.75123 19.5982 7.39209 20.1476 8.21434C20.697 9.03658 20.9902 10.0033 20.9902 10.9922C20.9902 12.3183 20.4635 13.59 19.5258 14.5277C18.5881 15.4654 17.3163 15.9922 15.9902 15.9922ZM15.9902 7.99219C15.3969 7.99219 14.8169 8.16814 14.3235 8.49778C13.8302 8.82743 13.4457 9.29596 13.2186 9.84414C12.9915 10.3923 12.9321 10.9955 13.0479 11.5775C13.1636 12.1594 13.4494 12.694 13.8689 13.1135C14.2885 13.5331 14.823 13.8188 15.405 13.9345C15.9869 14.0503 16.5901 13.9909 17.1383 13.7638C17.6865 13.5368 18.155 13.1522 18.4846 12.6589C18.8143 12.1656 18.9902 11.5855 18.9902 10.9922C18.9902 10.1965 18.6742 9.43348 18.1116 8.87087C17.5489 8.30826 16.7859 7.99219 15.9902 7.99219Z" fill="black"/>
<path id="Vector_2" d="M15.9902 29.9922C13.2213 29.9922 10.5145 29.1711 8.21226 27.6328C5.90997 26.0944 4.11555 23.9079 3.05593 21.3498C1.9963 18.7916 1.71905 15.9767 2.25925 13.2609C2.79944 10.5452 4.13281 8.05063 6.09075 6.0927C8.04868 4.13476 10.5432 2.80139 13.259 2.2612C15.9747 1.72101 18.7896 1.99825 21.3478 3.05788C23.906 4.11751 26.0925 5.91192 27.6308 8.21421C29.1692 10.5165 29.9902 13.2233 29.9902 15.9922C29.9902 19.7052 28.5152 23.2662 25.8897 25.8917C23.2642 28.5172 19.7033 29.9922 15.9902 29.9922ZM15.9902 3.99219C13.6169 3.99219 11.2968 4.69598 9.3234 6.01456C7.35001 7.33314 5.81194 9.20728 4.90369 11.4C3.99543 13.5927 3.75779 16.0055 4.22082 18.3333C4.68384 20.661 5.82673 22.7992 7.50496 24.4775C9.18319 26.1557 11.3214 27.2986 13.6492 27.7616C15.9769 28.2246 18.3897 27.987 20.5824 27.0787C22.7752 26.1705 24.6493 24.6324 25.9679 22.659C27.2865 20.6856 27.9902 18.3656 27.9902 15.9922C27.9902 12.8096 26.726 9.75735 24.4755 7.50691C22.2251 5.25648 19.1728 3.99219 15.9902 3.99219Z" fill="black"/>
<path id="Vector_3" d="M24.29 26.2939H22.29C22.29 24.6257 21.6273 23.0258 20.4477 21.8462C19.2681 20.6666 17.6682 20.0039 16 20.0039C14.3317 20.0039 12.7319 20.6666 11.5523 21.8462C10.3727 23.0258 9.70996 24.6257 9.70996 26.2939H7.70996C7.70996 24.0953 8.58337 21.9867 10.138 20.432C11.6927 18.8773 13.8013 18.0039 16 18.0039C18.1986 18.0039 20.3072 18.8773 21.8619 20.432C23.4166 21.9867 24.29 24.0953 24.29 26.2939Z" fill="black"/>
</g>
</svg>
