<svg width="34" height="34" viewBox="0 0 34 34" fill="none" xmlns="http://www.w3.org/2000/svg">
<g id="card" clip-path="url(#clip0_4506_13251)">
<g id="Clip path group">
<mask id="mask0_4506_13251" style="mask-type:luminance" maskUnits="userSpaceOnUse" x="0" y="0" width="34" height="34">
<g id="clip0_127_5857">
<path id="Vector" d="M0 0H34V34H0V0Z" fill="white"/>
</g>
</mask>
<g mask="url(#mask0_4506_13251)">
<g id="Group">
<path id="Vector_2" fill-rule="evenodd" clip-rule="evenodd" d="M3.54167 7.08464C2.36806 7.08464 1.41667 8.03603 1.41667 9.20964V24.793C1.41667 25.9665 2.36806 26.918 3.54167 26.918H30.4583C31.6319 26.918 32.5833 25.9665 32.5833 24.793V9.20964C32.5833 8.03603 31.6319 7.08464 30.4583 7.08464H3.54167ZM0 9.20964C0 7.25363 1.58566 5.66797 3.54167 5.66797H30.4583C32.4143 5.66797 34 7.25363 34 9.20964V24.793C34 26.749 32.4143 28.3346 30.4583 28.3346H3.54167C1.58566 28.3346 0 26.749 0 24.793V9.20964Z" fill="black"/>
<path id="Vector_3" fill-rule="evenodd" clip-rule="evenodd" d="M18.417 13.4583C18.417 13.0671 18.7342 12.75 19.1253 12.75H28.3337C28.7249 12.75 29.042 13.0671 29.042 13.4583C29.042 13.8495 28.7249 14.1667 28.3337 14.1667H19.1253C18.7342 14.1667 18.417 13.8495 18.417 13.4583Z" fill="black"/>
<path id="Vector_4" fill-rule="evenodd" clip-rule="evenodd" d="M18.417 17.0013C18.417 16.6102 18.7342 16.293 19.1253 16.293H28.3337C28.7249 16.293 29.042 16.6102 29.042 17.0013C29.042 17.3924 28.7249 17.7096 28.3337 17.7096H19.1253C18.7342 17.7096 18.417 17.3924 18.417 17.0013Z" fill="black"/>
<path id="Vector_5" fill-rule="evenodd" clip-rule="evenodd" d="M18.417 20.5443C18.417 20.1531 18.7342 19.8359 19.1253 19.8359H24.0837C24.4749 19.8359 24.792 20.1531 24.792 20.5443C24.792 20.9354 24.4749 21.2526 24.0837 21.2526H19.1253C18.7342 21.2526 18.417 20.9354 18.417 20.5443Z" fill="black"/>
<path id="Vector_6" fill-rule="evenodd" clip-rule="evenodd" d="M9.99575 11.3359C11.7344 11.3359 13.1439 12.7454 13.1439 14.4841C13.1439 15.3965 12.7558 16.2182 12.1356 16.7932C12.2119 16.8248 12.287 16.857 12.3607 16.8896C14.2351 17.7194 15.2369 19.5853 15.5456 21.4373C15.7148 22.4529 14.9316 23.3776 13.9018 23.3776H6.08964C5.05992 23.3776 4.27665 22.4529 4.44594 21.4373C4.7546 19.5853 5.7564 17.7194 7.6308 16.8896C7.7045 16.857 7.77958 16.8248 7.85588 16.7932C7.23572 16.2182 6.8476 15.3965 6.8476 14.4841C6.8476 12.7454 8.25707 11.3359 9.99575 11.3359ZM9.99575 16.2155C10.952 16.2155 11.7272 15.4403 11.7272 14.4841C11.7272 13.5278 10.952 12.7526 9.99575 12.7526C9.03947 12.7526 8.26427 13.5278 8.26427 14.4841C8.26427 15.4403 9.03947 16.2155 9.99575 16.2155ZM9.99575 17.7109C9.48525 17.7109 8.85385 17.8974 8.20433 18.185C6.91165 18.7573 6.10408 20.1057 5.84332 21.6702C5.81795 21.8224 5.93534 21.9609 6.08964 21.9609H13.9018C14.0562 21.9609 14.1735 21.8224 14.1482 21.6702C13.8874 20.1057 13.0798 18.7573 11.7872 18.185C11.1376 17.8974 10.5062 17.7109 9.99575 17.7109Z" fill="black"/>
</g>
</g>
</g>
</g>
<defs>
<clipPath id="clip0_4506_13251">
<rect width="34" height="34" fill="white"/>
</clipPath>
</defs>
</svg>
