<svg width="13" height="13" viewBox="0 0 13 13" fill="none" xmlns="http://www.w3.org/2000/svg">
<path d="M6.89076 1.33203C5.79772 1.33203 4.72923 1.65615 3.8204 2.26341C2.91157 2.87067 2.20323 3.7338 1.78494 4.74363C1.36665 5.75347 1.25721 6.86466 1.47045 7.9367C1.68369 9.00873 2.21004 9.99346 2.98293 10.7664C3.75583 11.5393 4.74056 12.0656 5.81259 12.2788C6.88463 12.4921 7.99582 12.3826 9.00566 11.9644C10.0155 11.5461 10.8786 10.8377 11.4859 9.92889C12.0931 9.02006 12.4173 7.95157 12.4173 6.85853C12.4155 5.39334 11.8327 3.98865 10.7967 2.95261C9.76064 1.91656 8.35595 1.33375 6.89076 1.33203ZM9.97951 5.40428L6.44751 8.90853C6.34769 9.01023 6.21192 9.06865 6.06945 9.07122C5.92697 9.07379 5.78919 9.02031 5.68576 8.92228L3.81576 7.21853C3.71046 7.1195 3.64738 6.98369 3.63966 6.83935C3.63193 6.69501 3.68014 6.55324 3.77426 6.44353C3.8233 6.39078 3.88226 6.34821 3.94776 6.31827C4.01326 6.28832 4.08403 6.27158 4.15601 6.269C4.22799 6.26642 4.29977 6.27806 4.36724 6.30325C4.43472 6.32843 4.49657 6.36667 4.54926 6.41578L6.03126 7.77328L9.18926 4.61478C9.2411 4.56294 9.30264 4.52182 9.37037 4.49377C9.4381 4.46571 9.5107 4.45127 9.58401 4.45127C9.65732 4.45127 9.72992 4.46571 9.79765 4.49377C9.86538 4.52182 9.92692 4.56294 9.97876 4.61478C10.0306 4.66662 10.0717 4.72816 10.0998 4.79589C10.1278 4.86363 10.1423 4.93622 10.1423 5.00953C10.1423 5.08284 10.1278 5.15544 10.0998 5.22317C10.0717 5.2909 10.0306 5.35244 9.97876 5.40428H9.97951Z" fill="#005BF1"/>
</svg>
