<svg width="36" height="36" viewBox="0 0 36 36" fill="none" xmlns="http://www.w3.org/2000/svg">
<g id="online coding">
<path id="Vector" d="M31.5 34.875H4.5C2.63891 34.875 1.125 33.3611 1.125 31.5V4.5C1.125 2.63891 2.63891 1.125 4.5 1.125H31.5C33.3611 1.125 34.875 2.63891 34.875 4.5V31.5C34.875 33.3611 33.3611 34.875 31.5 34.875ZM4.5 3.375C3.87979 3.375 3.375 3.87979 3.375 4.5V31.5C3.375 32.1202 3.87979 32.625 4.5 32.625H31.5C32.1202 32.625 32.625 32.1202 32.625 31.5V4.5C32.625 3.87979 32.1202 3.375 31.5 3.375H4.5Z" fill="black"/>
<path id="Vector_2" d="M33.75 7.875H2.25C1.62878 7.875 1.125 7.37122 1.125 6.75C1.125 6.12878 1.62878 5.625 2.25 5.625H33.75C34.3712 5.625 34.875 6.12878 34.875 6.75C34.875 7.37122 34.3712 7.875 33.75 7.875Z" fill="black"/>
<path id="Vector_3" d="M14.0619 19.1247C13.8153 19.1247 13.567 19.044 13.3599 18.8781L10.5474 16.6281C10.2805 16.415 10.125 16.0914 10.125 15.7497C10.125 15.4081 10.2805 15.0845 10.5474 14.8713L13.3599 12.6213C13.8439 12.2336 14.553 12.3121 14.9409 12.7971C15.3292 13.2822 15.2507 13.9901 14.7652 14.378L13.0508 15.7496L14.7652 17.1212C15.2507 17.509 15.3294 18.2171 14.9409 18.7022C14.7189 18.9802 14.3915 19.1247 14.0619 19.1247Z" fill="black"/>
<path id="Vector_4" d="M21.9382 19.1248C21.608 19.1248 21.2812 18.9804 21.0593 18.7024C20.671 18.2173 20.7495 17.5093 21.235 17.1214L22.9494 15.7498L21.235 14.3782C20.7495 13.9904 20.6708 13.2823 21.0593 12.7972C21.4471 12.3111 22.1569 12.2342 22.6403 12.6215L25.4528 14.8715C25.7197 15.0847 25.8752 15.4083 25.8752 15.7499C25.8752 16.0916 25.7197 16.4151 25.4528 16.6283L22.6403 18.8783C22.4332 19.0442 22.1848 19.1248 21.9382 19.1248Z" fill="black"/>
<path id="Vector_5" d="M16.8759 21.3747C16.7852 21.3747 16.6935 21.3643 16.6017 21.3412C15.9992 21.1907 15.6328 20.5798 15.7833 19.9767L18.0333 10.9767C18.185 10.3746 18.7985 10.0093 19.3978 10.1583C20.0004 10.3088 20.3668 10.9197 20.2163 11.5228L17.9663 20.5228C17.8382 21.0336 17.3796 21.3747 16.8759 21.3747Z" fill="black"/>
<path id="Vector_6" d="M7.875 25.875H6.75C6.12878 25.875 5.625 25.3712 5.625 24.75C5.625 24.1288 6.12878 23.625 6.75 23.625H7.875C8.49623 23.625 9 24.1288 9 24.75C9 25.3712 8.49623 25.875 7.875 25.875Z" fill="black"/>
<path id="Vector_7" d="M29.25 30.375H28.125C27.5038 30.375 27 29.8712 27 29.25C27 28.6288 27.5038 28.125 28.125 28.125H29.25C29.8712 28.125 30.375 28.6288 30.375 29.25C30.375 29.8712 29.8712 30.375 29.25 30.375Z" fill="black"/>
<path id="Vector_8" d="M22.5 25.875H12.375C11.7538 25.875 11.25 25.3712 11.25 24.75C11.25 24.1288 11.7538 23.625 12.375 23.625H22.5C23.1212 23.625 23.625 24.1288 23.625 24.75C23.625 25.3712 23.1212 25.875 22.5 25.875Z" fill="black"/>
<path id="Vector_9" d="M16.875 30.375H6.75C6.12878 30.375 5.625 29.8712 5.625 29.25C5.625 28.6288 6.12878 28.125 6.75 28.125H16.875C17.4962 28.125 18 28.6288 18 29.25C18 29.8712 17.4962 30.375 16.875 30.375Z" fill="black"/>
<path id="Vector_10" d="M29.25 25.875H27C26.3788 25.875 25.875 25.3712 25.875 24.75C25.875 24.1288 26.3788 23.625 27 23.625H29.25C29.8712 23.625 30.375 24.1288 30.375 24.75C30.375 25.3712 29.8712 25.875 29.25 25.875Z" fill="black"/>
<path id="Vector_11" d="M23.625 30.375H21.375C20.7538 30.375 20.25 29.8712 20.25 29.25C20.25 28.6288 20.7538 28.125 21.375 28.125H23.625C24.2462 28.125 24.75 28.6288 24.75 29.25C24.75 29.8712 24.2462 30.375 23.625 30.375Z" fill="black"/>
</g>
</svg>
