<svg width="34" height="34" viewBox="0 0 34 34" fill="none" xmlns="http://www.w3.org/2000/svg">
<g id="Icon">
<path id="Vector" fill-rule="evenodd" clip-rule="evenodd" d="M33.125 8C33.125 6.11 32.375 4.298 31.0385 2.9615C29.702 1.625 27.89 0.875 26 0.875H8C6.11 0.875 4.298 1.625 2.9615 2.9615C1.625 4.298 0.875 6.11 0.875 8V26C0.875 27.89 1.625 29.702 2.9615 31.0385C4.298 32.375 6.11 33.125 8 33.125H26C27.89 33.125 29.702 32.375 31.0385 31.0385C32.375 29.702 33.125 27.89 33.125 26V8ZM30.875 8V26C30.875 27.293 30.362 28.5335 29.447 29.447C28.5335 30.362 27.293 30.875 26 30.875H8C6.707 30.875 5.4665 30.362 4.553 29.447C3.638 28.5335 3.125 27.293 3.125 26V8C3.125 6.707 3.638 5.4665 4.553 4.553C5.4665 3.638 6.707 3.125 8 3.125H26C27.293 3.125 28.5335 3.638 29.447 4.553C30.362 5.4665 30.875 6.707 30.875 8Z" fill="black"/>
<path id="Vector_2" fill-rule="evenodd" clip-rule="evenodd" d="M17.7321 11.2464L14.1321 22.0464C13.9371 22.6359 14.2551 23.2734 14.8446 23.4699C15.4341 23.6649 16.0716 23.3469 16.2681 22.7574L19.8681 11.9574C20.0631 11.3679 19.7451 10.7304 19.1556 10.5339C18.5661 10.3389 17.9286 10.6569 17.7321 11.2464Z" fill="black"/>
<path id="Vector_3" fill-rule="evenodd" clip-rule="evenodd" d="M21.605 14.1931L24.4085 16.9981L21.605 19.8031C21.1655 20.2411 21.1655 20.9551 21.605 21.3931C22.043 21.8326 22.757 21.8326 23.195 21.3931L26.795 17.7931C27.2345 17.3536 27.2345 16.6426 26.795 16.2031L23.195 12.6031C22.757 12.1636 22.043 12.1636 21.605 12.6031C21.1655 13.0411 21.1655 13.7551 21.605 14.1931Z" fill="black"/>
<path id="Vector_4" fill-rule="evenodd" clip-rule="evenodd" d="M10.8051 12.6031L7.20511 16.2031C6.76561 16.6426 6.76561 17.3536 7.20511 17.7931L10.8051 21.3931C11.2431 21.8326 11.9571 21.8326 12.3951 21.3931C12.8346 20.9551 12.8346 20.2411 12.3951 19.8031L9.59161 16.9981L12.3951 14.1931C12.8346 13.7551 12.8346 13.0411 12.3951 12.6031C11.9571 12.1636 11.2431 12.1636 10.8051 12.6031Z" fill="black"/>
</g>
</svg>
