<svg width="36" height="36" viewBox="0 0 36 36" fill="none" xmlns="http://www.w3.org/2000/svg">
<g id="Group">
<g id="Group_2">
<g id="Group_3">
<path id="Vector" d="M18 0C8.07497 0 0 8.07497 0 18C0 27.925 8.07497 36 18 36C27.925 36 36 27.925 36 18C36 8.07497 27.925 0 18 0ZM18 33C9.72879 33 3.00002 26.2712 3.00002 18C3.00002 9.72879 9.72879 3.00002 18 3.00002C26.2712 3.00002 33 9.72879 33 18C33 26.2712 26.2712 33 18 33Z" fill="black"/>
<path id="Vector_2" d="M26.6797 8.31325L14.6644 14.3286C14.5193 14.4011 14.4014 14.519 14.3289 14.6641L8.31356 26.6794C8.16928 26.968 8.22567 27.3167 8.45418 27.5452C8.59846 27.6895 8.79035 27.7649 8.98448 27.7649C9.09874 27.7649 9.2137 27.7393 9.31994 27.6858L21.3353 21.6704C21.4803 21.598 21.5983 21.48 21.6708 21.335L27.6861 9.31963C27.8304 9.03107 27.774 8.68239 27.5455 8.45387C27.3177 8.22536 26.9668 8.16967 26.6797 8.31325ZM17.9998 19.4995C17.1729 19.4995 16.4998 18.8264 16.4998 17.9995C16.4998 17.1726 17.1729 16.4995 17.9998 16.4995C18.8267 16.4995 19.4998 17.1726 19.4998 17.9995C19.4998 18.8264 18.8267 19.4995 17.9998 19.4995Z" fill="black"/>
</g>
</g>
</g>
</svg>
