<svg width="18" height="19" viewBox="0 0 18 19" fill="none" xmlns="http://www.w3.org/2000/svg">
<g id="Delete">
<g id="Group 37">
<path id="Vector" d="M13.7812 4.05469H11.25V3.77344C11.25 2.99803 10.6192 2.36719 9.84375 2.36719H8.15625C7.38084 2.36719 6.75 2.99803 6.75 3.77344V4.05469H4.21875C3.90825 4.05469 3.65625 4.30669 3.65625 4.61719V5.46094C3.65625 5.77144 3.90825 6.02344 4.21875 6.02344H13.7812C14.0918 6.02344 14.3438 5.77144 14.3438 5.46094V4.61719C14.3438 4.30669 14.0918 4.05469 13.7812 4.05469ZM7.875 3.77344C7.875 3.61847 8.00128 3.49219 8.15625 3.49219H9.84375C9.99872 3.49219 10.125 3.61847 10.125 3.77344V4.05469H7.875V3.77344Z" fill="#686868"/>
<path id="Vector_2" d="M13.5772 6.77016C13.4706 6.65288 13.3193 6.58594 13.1609 6.58594H4.83591C4.67757 6.58594 4.52626 6.65288 4.41966 6.77016C4.31307 6.88744 4.26104 7.04438 4.27594 7.20216L4.96726 14.4269C5.04573 15.2482 5.76826 15.8675 6.64801 15.8675H11.3488C12.2283 15.8675 12.9511 15.2482 13.0296 14.4269L13.7209 7.20216C13.7361 7.04438 13.6838 6.88744 13.5772 6.77016ZM7.68385 14.4598C7.67176 14.4604 7.65994 14.4609 7.64785 14.4609C7.35338 14.4609 7.10588 14.232 7.08704 13.9339L6.74954 8.59013C6.73013 8.28019 6.96554 8.013 7.27548 7.99331C7.58626 7.97644 7.85288 8.20931 7.87229 8.51925L8.20979 13.863C8.22919 14.1729 7.99379 14.4401 7.68385 14.4598ZM10.9098 13.9339C10.8909 14.232 10.6434 14.4609 10.349 14.4609C10.3372 14.4609 10.3251 14.4607 10.313 14.4598C10.0028 14.4401 9.76763 14.1729 9.78704 13.863L10.1245 8.51925C10.1442 8.20903 10.41 7.97588 10.7214 7.99331C11.0316 8.013 11.2667 8.28019 11.2473 8.59013L10.9098 13.9339Z" fill="#686868"/>
</g>
</g>
</svg>
