<svg width="34" height="32" viewBox="0 0 34 32" fill="none" xmlns="http://www.w3.org/2000/svg">
<g id="Layer 10">
<path id="Vector" d="M29 0.5H5C4.34339 0.5 3.69321 0.629329 3.08658 0.880602C2.47995 1.13188 1.92876 1.50017 1.46447 1.96447C0.526784 2.90215 0 4.17392 0 5.5V21.5C0 22.8261 0.526784 24.0979 1.46447 25.0355C1.92876 25.4998 2.47995 25.8681 3.08658 26.1194C3.69321 26.3707 4.34339 26.5 5 26.5H16V29.5H13C12.7348 29.5 12.4804 29.6054 12.2929 29.7929C12.1054 29.9804 12 30.2348 12 30.5C12 30.7652 12.1054 31.0196 12.2929 31.2071C12.4804 31.3946 12.7348 31.5 13 31.5H21C21.2652 31.5 21.5196 31.3946 21.7071 31.2071C21.8946 31.0196 22 30.7652 22 30.5C22 30.2348 21.8946 29.9804 21.7071 29.7929C21.5196 29.6054 21.2652 29.5 21 29.5H18V26.5H29C30.3261 26.5 31.5979 25.9732 32.5355 25.0355C33.4732 24.0979 34 22.8261 34 21.5V5.5C34 4.17392 33.4732 2.90215 32.5355 1.96447C31.5979 1.02678 30.3261 0.5 29 0.5ZM32 21.5C32 22.2956 31.6839 23.0587 31.1213 23.6213C30.5587 24.1839 29.7956 24.5 29 24.5H5C4.20435 24.5 3.44129 24.1839 2.87868 23.6213C2.31607 23.0587 2 22.2956 2 21.5V5.5C2 4.70435 2.31607 3.94129 2.87868 3.37868C3.44129 2.81607 4.20435 2.5 5 2.5H29C29.7956 2.5 30.5587 2.81607 31.1213 3.37868C31.6839 3.94129 32 4.70435 32 5.5V21.5ZM21 22.5C21 22.7652 20.8946 23.0196 20.7071 23.2071C20.5196 23.3946 20.2652 23.5 20 23.5H14C13.7348 23.5 13.4804 23.3946 13.2929 23.2071C13.1054 23.0196 13 22.7652 13 22.5C13 22.2348 13.1054 21.9804 13.2929 21.7929C13.4804 21.6054 13.7348 21.5 14 21.5H20C20.2652 21.5 20.5196 21.6054 20.7071 21.7929C20.8946 21.9804 21 22.2348 21 22.5Z" fill="black"/>
</g>
</svg>
