<svg width="18" height="14" viewBox="0 0 18 14" fill="none" xmlns="http://www.w3.org/2000/svg">
<g id="Group">
<path id="Vector" fill-rule="evenodd" clip-rule="evenodd" d="M0.98117 0.984375H17.0262C17.3077 0.984375 17.5591 1.16088 17.6547 1.42562C17.7509 1.68968 17.6707 1.98652 17.4541 2.16636L9.43156 8.8518C9.18353 9.05838 8.82386 9.05838 8.57583 8.8518L0.553302 2.16636C0.33669 1.98652 0.256468 1.68968 0.352737 1.42562C0.448342 1.16088 0.699709 0.984375 0.98117 0.984375Z" fill="#686868"/>
<path id="Vector_2" fill-rule="evenodd" clip-rule="evenodd" d="M17.6949 3.70703V12.3507C17.6949 12.5281 17.6254 12.6983 17.4991 12.8227C17.3747 12.949 17.2027 13.0185 17.027 13.0185H0.980354C0.804697 13.0185 0.632702 12.949 0.508282 12.8227C0.38203 12.6983 0.3125 12.5281 0.3125 12.3507V3.70703L7.71923 9.88052C8.46393 10.5008 9.54347 10.5008 10.2882 9.88052L17.6949 3.70703Z" fill="#686868"/>
</g>
</svg>
