<svg width="62" height="21" viewBox="0 0 62 21" fill="none" xmlns="http://www.w3.org/2000/svg">
<path fill-rule="evenodd" clip-rule="evenodd" d="M15.2586 7.41456H8.14106V9.52665H13.1892C12.9397 12.4884 10.4755 13.7515 8.14963 13.7515C5.17379 13.7515 2.57705 11.4102 2.57705 8.12844C2.57705 4.93148 5.05251 2.4696 8.15607 2.4696C10.5507 2.4696 11.9618 3.99601 11.9618 3.99601L13.4403 2.4646C13.4403 2.4646 11.5425 0.351563 8.08053 0.351563C3.67241 0.351324 0.261719 4.07202 0.261719 8.09079C0.261719 12.0286 3.46964 15.8686 8.193 15.8686C12.3469 15.8684 15.3875 13.0229 15.3875 8.81491C15.3875 7.9271 15.2586 7.41409 15.2586 7.41409V7.41456Z" fill="#B7B7B7"/>
<path fill-rule="evenodd" clip-rule="evenodd" d="M21.1178 7.84169C22.5542 7.84169 23.9152 9.00281 23.9152 10.8738C23.9152 12.7054 22.5599 13.8994 21.1114 13.8994C19.5197 13.8994 18.2638 12.6249 18.2638 10.8595C18.2638 9.13172 19.5038 7.84169 21.1178 7.84169ZM21.0888 5.88281C18.1682 5.88281 16.0752 8.16598 16.0752 10.8292C16.0752 13.5313 18.1056 15.8571 21.1231 15.8571C23.8549 15.8571 26.0933 13.7691 26.0933 10.8871C26.0933 7.58387 23.4897 5.88281 21.0888 5.88281Z" fill="#B7B7B7"/>
<path fill-rule="evenodd" clip-rule="evenodd" d="M32.0214 7.84169C33.458 7.84169 34.819 9.00281 34.819 10.8738C34.819 12.7054 33.4635 13.8994 32.015 13.8994C30.4235 13.8994 29.1678 12.6249 29.1678 10.8595C29.1678 9.13172 30.4078 7.84169 32.0214 7.84169ZM31.9926 5.88281C29.0723 5.88281 26.979 8.16598 26.979 10.8292C26.979 13.5313 29.0091 15.8571 32.0269 15.8571C34.7587 15.8571 36.9969 13.7691 36.9969 10.8871C36.9969 7.58387 34.3935 5.88281 31.9926 5.88281Z" fill="#B7B7B7"/>
<path fill-rule="evenodd" clip-rule="evenodd" d="M42.882 7.84569C44.1964 7.84569 45.546 8.96773 45.546 10.8842C45.546 12.8323 44.199 13.906 42.853 13.906C41.424 13.906 40.0942 12.7456 40.0942 10.9028C40.0942 8.98798 41.4752 7.84569 42.882 7.84569ZM42.6878 5.89062C40.0072 5.89062 37.8999 8.2386 37.8999 10.8739C37.8999 13.8755 40.343 15.8663 42.6416 15.8663C44.0632 15.8663 44.819 15.3021 45.3773 14.6547V15.6378C45.3773 17.3586 44.3322 18.3892 42.7553 18.3892C41.232 18.389 40.468 17.2564 40.2026 16.6136L38.2857 17.4149C38.9657 18.8524 40.3346 20.3519 42.7712 20.3519C45.4366 20.3519 47.4679 18.673 47.4679 15.1522V6.19038H45.3773V7.03531C44.7344 6.3424 43.8549 5.89062 42.6878 5.89062Z" fill="#B7B7B7"/>
<path fill-rule="evenodd" clip-rule="evenodd" d="M56.8533 7.79727C57.7645 7.79727 58.4203 8.28145 58.6988 8.86237L54.233 10.729C54.0405 9.28388 55.4096 7.79727 56.8533 7.79727ZM56.7661 5.87891C54.2373 5.87891 52.1143 7.89092 52.1143 10.8596C52.1143 14.001 54.4808 15.8641 57.0089 15.8641C59.1191 15.8641 60.4142 14.7097 61.1874 13.6753L59.463 12.5283C59.0157 13.2226 58.2678 13.901 57.0197 13.901C55.6179 13.901 54.9731 13.1332 54.5735 12.3898L61.261 9.61485L60.9138 8.80161C60.2676 7.20921 58.7605 5.87914 56.7664 5.87914L56.7661 5.87891Z" fill="#B7B7B7"/>
<path fill-rule="evenodd" clip-rule="evenodd" d="M48.9253 15.5672H51.122V0.867188H48.9253V15.5672Z" fill="#B7B7B7"/>
</svg>
