<svg width="25" height="24" viewBox="0 0 25 24" fill="none" xmlns="http://www.w3.org/2000/svg">
<g id="heart fill 1">
<path id="Vector" d="M20.5667 4.8429C19.5314 3.72 18.1108 3.10156 16.5663 3.10156C15.4118 3.10156 14.3546 3.46655 13.4238 4.18631C12.9541 4.54962 12.5285 4.99411 12.1533 5.51291C11.7783 4.99426 11.3525 4.54962 10.8827 4.18631C9.95209 3.46655 8.89481 3.10156 7.74033 3.10156C6.19583 3.10156 4.77509 3.72 3.73978 4.8429C2.71683 5.95267 2.15332 7.46878 2.15332 9.11215C2.15332 10.8036 2.78366 12.3519 4.13696 13.9849C5.3476 15.4456 7.08755 16.9285 9.10248 18.6455C9.7905 19.2319 10.5704 19.8966 11.3802 20.6046C11.5941 20.792 11.8686 20.8951 12.1533 20.8951C12.4379 20.8951 12.7126 20.792 12.9262 20.6049C13.736 19.8968 14.5163 19.2318 15.2046 18.6451C17.2192 16.9283 18.9592 15.4456 20.1698 13.9847C21.5231 12.3519 22.1533 10.8036 22.1533 9.112C22.1533 7.46878 21.5898 5.95267 20.5667 4.8429Z" stroke="black" stroke-width="1.5"/>
</g>
</svg>
