<svg width="24" height="24" viewBox="0 0 24 24" fill="none" xmlns="http://www.w3.org/2000/svg">
<g id="heart">
<path id="Vector" d="M20.4144 4.89758C19.3791 3.77469 17.9585 3.15625 16.414 3.15625C15.2595 3.15625 14.2022 3.52124 13.2714 4.241C12.8018 4.60431 12.3762 5.0488 12.001 5.5676C11.6259 5.04895 11.2002 4.60431 10.7304 4.241C9.79974 3.52124 8.74246 3.15625 7.58798 3.15625C6.04349 3.15625 4.62274 3.77469 3.58743 4.89758C2.56448 6.00735 2.00098 7.52347 2.00098 9.16684C2.00098 10.8583 2.63132 12.4066 3.98462 14.0396C5.19525 15.5003 6.93521 16.9832 8.95013 18.7002C9.63815 19.2866 10.418 19.9513 11.2278 20.6593C11.4417 20.8467 11.7162 20.9498 12.001 20.9498C12.2856 20.9498 12.5602 20.8467 12.7738 20.6596C13.5836 19.9514 14.364 19.2865 15.0523 18.6998C17.0669 16.983 18.8069 15.5003 20.0175 14.0394C21.3708 12.4066 22.001 10.8583 22.001 9.16669C22.001 7.52347 21.4375 6.00735 20.4144 4.89758Z" fill="#F7F7F7"/>
<path id="Vector_2" d="M12.0007 20.9519C11.7159 20.9519 11.4414 20.8488 11.2274 20.6614C10.4194 19.9548 9.64034 19.2908 8.953 18.7051L8.94949 18.7021C6.93433 16.9848 5.19416 15.5018 3.98339 14.0409C2.62993 12.4077 1.99951 10.8592 1.99951 9.16755C1.99951 7.52398 2.56309 6.00769 3.58631 4.89779C4.62174 3.77476 6.0425 3.15625 7.58733 3.15625C8.74195 3.15625 9.79935 3.52128 10.7301 4.24113C11.1998 4.60448 11.6256 5.04917 12.0007 5.56788C12.376 5.04917 12.8016 4.60448 13.2714 4.24113C14.2022 3.52128 15.2596 3.15625 16.4142 3.15625C17.9589 3.15625 19.3798 3.77476 20.4152 4.89779C21.4385 6.00769 22.0019 7.52398 22.0019 9.16755C22.0019 10.8592 21.3716 12.4077 20.0182 14.0407C18.8074 15.5018 17.0674 16.9846 15.0525 18.7018C14.3639 19.2884 13.5837 19.9534 12.7738 20.6617C12.56 20.8488 12.2853 20.9519 12.0007 20.9519ZM7.58733 4.32796C6.37366 4.32796 5.25872 4.81233 4.44762 5.69195C3.62446 6.58485 3.17107 7.81912 3.17107 9.16755C3.17107 10.5903 3.69985 11.8627 4.88544 13.2933C6.03136 14.676 7.73582 16.1285 9.70932 17.8104L9.71298 17.8134C10.4029 18.4014 11.185 19.068 11.999 19.7798C12.8179 19.0666 13.6012 18.399 14.2925 17.8101C16.2659 16.1282 17.9702 14.676 19.1161 13.2933C20.3015 11.8627 20.8303 10.5903 20.8303 9.16755C20.8303 7.81912 20.3769 6.58485 19.5538 5.69195C18.7428 4.81233 17.6277 4.32796 16.4142 4.32796C15.5251 4.32796 14.7088 4.61058 13.9881 5.1679C13.3458 5.66479 12.8983 6.29291 12.636 6.73242C12.5011 6.95843 12.2636 7.09333 12.0007 7.09333C11.7378 7.09333 11.5003 6.95843 11.3654 6.73242C11.1032 6.29291 10.6558 5.66479 10.0133 5.1679C9.29255 4.61058 8.47626 4.32796 7.58733 4.32796Z" fill="#E3E3E3" stroke="#E3E3E3" stroke-width="0.5"/>
</g>
</svg>
