<svg width="17" height="16" viewBox="0 0 17 16" fill="none" xmlns="http://www.w3.org/2000/svg">
<g id="SVG">
<path id="Vector" d="M13.4292 14.5015H3.88325C3.70348 14.5019 3.53062 14.4323 3.40125 14.3075C3.33824 14.2469 3.28806 14.1742 3.2537 14.0938C3.21934 14.0134 3.2015 13.9269 3.20125 13.8395V7.88547H1.15625L8.19725 1.67347C8.32402 1.56168 8.48723 1.5 8.65625 1.5C8.82527 1.5 8.98848 1.56168 9.11525 1.67347L16.1562 7.88547H14.1103V13.8395C14.11 13.9269 14.0922 14.0134 14.0578 14.0938C14.0234 14.1742 13.9733 14.2469 13.9102 14.3075C13.7811 14.432 13.6087 14.5016 13.4292 14.5015ZM9.33825 13.1785H12.7472V6.66547L8.65625 3.05747L4.56625 6.66547V13.1785H7.97425V9.20847H9.33825V13.1785Z" fill="black"/>
</g>
</svg>
