<svg width="14" height="14" viewBox="0 0 14 14" fill="none" xmlns="http://www.w3.org/2000/svg">
<g id="Group">
<path id="Vector" d="M7 0C3.1402 0 0 3.14024 0 7.00004C0 10.8598 3.1402 14 7 14C10.8598 14 14 10.8598 14 7.00004C14 3.14024 10.8598 0 7 0ZM7 12.7273C3.84194 12.7273 1.27273 10.1581 1.27273 7.00004C1.27273 3.84202 3.84194 1.27273 7 1.27273C10.1581 1.27273 12.7273 3.84202 12.7273 7.00004C12.7273 10.1581 10.158 12.7273 7 12.7273Z" fill="black"/>
<path id="Vector_2" d="M6.99968 2.96875C6.53191 2.96875 6.15137 3.34955 6.15137 3.81762C6.15137 4.28526 6.53191 4.66572 6.99968 4.66572C7.46745 4.66572 7.848 4.28526 7.848 3.81762C7.848 3.34955 7.46745 2.96875 6.99968 2.96875Z" fill="black"/>
<path id="Vector_3" d="M6.99964 5.9375C6.6482 5.9375 6.36328 6.22242 6.36328 6.57386V10.392C6.36328 10.7435 6.6482 11.0284 6.99964 11.0284C7.35109 11.0284 7.63601 10.7435 7.63601 10.392V6.57386C7.63601 6.22242 7.35109 5.9375 6.99964 5.9375Z" fill="black"/>
</g>
</svg>
