<svg width="21" height="21" viewBox="0 0 21 21" fill="none" xmlns="http://www.w3.org/2000/svg">
<g clip-path="url(#clip0_1543_4443)">
<path d="M8.52286 11.2367C8.49079 11.0761 7.38603 5.5523 7.35099 5.37727C7.29626 5.1034 7.05575 4.90625 6.77646 4.90625H5.60458C5.32528 4.90625 5.08478 5.1034 5.03005 5.37727C4.99446 5.55527 3.88856 11.0847 3.85817 11.2366C3.7947 11.554 4.00052 11.8627 4.31782 11.9261C4.63513 11.9896 4.94384 11.7838 5.00728 11.4664L5.38181 9.59375H6.99923L7.37376 11.4665C7.43724 11.7839 7.74606 11.9896 8.06321 11.9261C8.38052 11.8627 8.58634 11.554 8.52286 11.2367ZM5.61618 8.42188L6.08493 6.07812H6.2961L6.76485 8.42188H5.61618Z" fill="#545454"/>
<path d="M17.9092 9.59375H16.1514V9.00781C16.1514 8.68422 15.889 8.42188 15.5654 8.42188C15.2418 8.42188 14.9795 8.68422 14.9795 9.00781V9.59375H13.2217C12.8981 9.59375 12.6357 9.85609 12.6357 10.1797C12.6357 10.5033 12.8981 10.7656 13.2217 10.7656H13.3635C13.6973 11.8442 14.2 12.6721 14.7531 13.3355C14.3029 13.7473 13.8474 14.085 13.4416 14.4096C13.1889 14.6118 13.1479 14.9805 13.3501 15.2332C13.5524 15.486 13.9211 15.5268 14.1737 15.3247C14.5817 14.9982 15.0708 14.6355 15.5654 14.1816C16.0604 14.6358 16.5504 14.9992 16.9572 15.3247C17.2099 15.5269 17.5786 15.4859 17.7807 15.2332C17.9829 14.9805 17.9419 14.6118 17.6893 14.4096C17.2845 14.0858 16.8284 13.7477 16.3777 13.3355C16.9309 12.6721 17.4335 11.8442 17.7674 10.7656H17.9092C18.2328 10.7656 18.4951 10.5033 18.4951 10.1797C18.4951 9.85609 18.2328 9.59375 17.9092 9.59375ZM15.5654 12.4744C15.1914 12.0049 14.8549 11.4445 14.6012 10.7617H16.5296C16.2759 11.4445 15.9395 12.0049 15.5654 12.4744Z" fill="#545454"/>
<path d="M19.1201 4.32031H10.667L10.4158 2.30539C10.3061 1.42758 9.55621 0.765625 8.67156 0.765625H2.63574C1.66648 0.765625 0.87793 1.55418 0.87793 2.52344V15.4531C0.87793 16.4224 1.66648 17.2109 2.63574 17.2109H7.57648L7.82445 19.2259C7.93398 20.1019 8.68383 20.7656 9.56871 20.7656H19.1201C20.0894 20.7656 20.8779 19.9771 20.8779 19.0078V6.07812C20.8779 5.10887 20.0894 4.32031 19.1201 4.32031ZM2.63574 16.0391C2.31266 16.0391 2.0498 15.7762 2.0498 15.4531V2.52344C2.0498 2.20035 2.31266 1.9375 2.63574 1.9375H8.67156C8.96644 1.9375 9.21641 2.15812 9.25293 2.45055C9.33785 3.13164 10.8626 15.3634 10.9468 16.0391H2.63574ZM8.95309 18.8027L8.75719 17.2109H10.3292L8.95309 18.8027ZM19.7061 19.0078C19.7061 19.3309 19.4432 19.5938 19.1201 19.5938H9.81832L12.0489 17.0136C12.1631 16.8848 12.2143 16.7138 12.1907 16.5439L10.813 5.49219H19.1201C19.4432 5.49219 19.7061 5.75504 19.7061 6.07812V19.0078Z" fill="#545454"/>
</g>
<defs>
<clipPath id="clip0_1543_4443">
<rect width="20" height="20" fill="white" transform="translate(0.87793 0.765625)"/>
</clipPath>
</defs>
</svg>
