<svg width="24" height="17" viewBox="0 0 24 17" fill="none" xmlns="http://www.w3.org/2000/svg">
<g id="ellipsis 1">
<path id="Vector" d="M14.4707 7.99902C14.4707 9.36415 13.3641 10.4707 11.999 10.4707C10.6339 10.4707 9.52734 9.36415 9.52734 7.99902C9.52734 6.6339 10.6339 5.52734 11.999 5.52734C13.3641 5.52734 14.4707 6.6339 14.4707 7.99902Z" fill="#686868"/>
<path id="Vector_2" d="M7.05664 7.99902C7.05664 9.36415 5.95009 10.4707 4.58496 10.4707C3.21983 10.4707 2.11328 9.36415 2.11328 7.99902C2.11328 6.6339 3.21983 5.52734 4.58496 5.52734C5.95009 5.52734 7.05664 6.6339 7.05664 7.99902Z" fill="#686868"/>
<path id="Vector_3" d="M21.8887 7.99902C21.8887 9.36415 20.7821 10.4707 19.417 10.4707C18.0519 10.4707 16.9453 9.36415 16.9453 7.99902C16.9453 6.6339 18.0519 5.52734 19.417 5.52734C20.7821 5.52734 21.8887 6.6339 21.8887 7.99902Z" fill="#686868"/>
</g>
</svg>
