<svg width="43" height="42" viewBox="0 0 43 42" fill="none" xmlns="http://www.w3.org/2000/svg">
<g id="message">
<g id="Layer 3">
<path id="Vector" d="M29.7049 11.9258H12.6007C11.8612 11.9266 11.1523 12.2207 10.6293 12.7436C10.1064 13.2665 9.81232 13.9755 9.81152 14.715V27.2827C9.81232 28.0222 10.1064 28.7311 10.6293 29.2541C11.1523 29.777 11.8612 30.0711 12.6007 30.0719H29.7049C30.4444 30.0711 31.1534 29.777 31.6763 29.2541C32.1992 28.7311 32.4933 28.0222 32.4941 27.2827V14.715C32.4933 13.9755 32.1992 13.2665 31.6763 12.7436C31.1534 12.2207 30.4444 11.9266 29.7049 11.9258ZM12.6007 13.438H29.7049C30.0435 13.4384 30.3681 13.573 30.6075 13.8124C30.8469 14.0518 30.9816 14.3764 30.982 14.715V15.2934L21.1528 21.612L11.3237 15.2934V14.715C11.3241 14.3764 11.4588 14.0518 11.6982 13.8124C11.9376 13.573 12.2622 13.4384 12.6007 13.438ZM29.7049 28.5597H12.6007C12.2622 28.5593 11.9376 28.4246 11.6982 28.1852C11.4588 27.9458 11.3241 27.6212 11.3237 27.2827V17.0914L20.7438 23.1469C20.8658 23.2253 21.0078 23.2671 21.1528 23.2671C21.2979 23.2671 21.4399 23.2253 21.5619 23.1469L30.982 17.0914V27.2827C30.9816 27.6212 30.8469 27.9458 30.6075 28.1852C30.3681 28.4246 30.0435 28.5593 29.7049 28.5597Z" fill="black"/>
</g>
</g>
</svg>
