<svg width="100" height="21" viewBox="0 0 100 21" fill="none" xmlns="http://www.w3.org/2000/svg">
<g clip-path="url(#clip0_1162_47866)">
<path d="M3.1962 13.5411C3.1962 14.6908 3.44856 15.5736 3.7784 16.1076C4.21086 16.8071 4.85589 17.1034 5.51348 17.1034C6.36165 17.1034 7.13757 16.8929 8.63285 14.8249C9.83076 13.1673 11.2423 10.8406 12.192 9.38193L13.8004 6.91072C14.9177 5.19449 16.2109 3.28664 17.6936 1.99345C18.9041 0.93795 20.2098 0.351562 21.524 0.351562C23.7302 0.351562 25.8318 1.6301 27.4402 4.028C29.2004 6.65418 30.0548 9.96203 30.0548 13.3756C30.0548 15.405 29.6548 16.8961 28.9742 18.0741C28.3166 19.2133 27.0349 20.3516 24.8789 20.3516V17.1034C26.725 17.1034 27.1857 15.4071 27.1857 13.4657C27.1857 10.6992 26.5407 7.62905 25.1198 5.43533C24.1114 3.87931 22.8046 2.92853 21.3669 2.92853C19.8119 2.92853 18.5606 4.1013 17.1543 6.1924C16.4067 7.30339 15.6391 8.65732 14.7774 10.1851L13.8287 11.8657C11.9229 15.2448 11.4402 16.0144 10.4873 17.2845C8.81715 19.5086 7.39097 20.3516 5.51348 20.3516C3.28626 20.3516 1.87788 19.3872 1.00563 17.9338C0.293586 16.7495 -0.0561523 15.1955 -0.0561523 13.4249L3.1962 13.5411Z" fill="#B7B7B7"/>
<path d="M2.5083 4.25732C3.9994 1.95889 6.15123 0.351562 8.6193 0.351562C10.0486 0.351562 11.4696 0.774599 12.9533 1.98612C14.5764 3.31072 16.3062 5.49188 18.4643 9.08664L19.2381 10.3767C21.1062 13.4887 22.169 15.0898 22.791 15.8448C23.591 16.8144 24.1512 17.1034 24.879 17.1034C26.7251 17.1034 27.1858 15.4071 27.1858 13.4657L30.0549 13.3756C30.0549 15.405 29.6549 16.8961 28.9743 18.0741C28.3167 19.2133 27.035 20.3516 24.879 20.3516C23.5387 20.3516 22.3512 20.0605 21.0381 18.8217C20.0287 17.8709 18.8486 16.1819 17.9408 14.6636L15.2402 10.1526C13.8853 7.88873 12.6423 6.20078 11.923 5.43638C11.1491 4.61439 10.1544 3.62172 8.56694 3.62172C7.28212 3.62172 6.19102 4.52329 5.27793 5.90235L2.5083 4.25732Z" fill="#B7B7B7"/>
<path d="M8.56688 3.62172C7.28207 3.62172 6.19097 4.52329 5.27788 5.90235C3.98678 7.85104 3.1962 10.7537 3.1962 13.5411C3.1962 14.6908 3.44856 15.5736 3.7784 16.1076L1.00563 17.9338C0.293586 16.7495 -0.0561523 15.1955 -0.0561523 13.4249C-0.0561523 10.205 0.827617 6.84894 2.50825 4.25732C3.99934 1.95889 6.15118 0.351562 8.61924 0.351562L8.56688 3.62172Z" fill="#B7B7B7"/>
<path d="M36.3774 0.984375H40.1397L46.5366 12.5571L52.9345 0.984375H56.6151V20.0001H53.546V5.42626L47.9356 15.5184H45.056L39.4466 5.42626V20.0001H36.3774V0.984375ZM66.2319 8.07443C64.0308 8.07443 62.7052 9.73097 62.3879 11.7823H69.8581C69.7041 9.66919 68.4853 8.07443 66.2319 8.07443ZM59.345 12.9509C59.345 8.63464 62.1345 5.49328 66.2853 5.49328C70.368 5.49328 72.8057 8.59485 72.8057 13.1812V14.0242H62.3879C62.7575 16.2556 64.2382 17.7592 66.6256 17.7592C68.5303 17.7592 69.7209 17.1781 70.8497 16.1153L72.4801 18.1121C70.9439 19.5247 68.99 20.3393 66.5167 20.3393C62.0235 20.3393 59.345 17.0629 59.345 12.9509ZM76.5272 8.34668H73.702V5.83359H76.5272V1.67757H79.4884V5.83359H83.7806V8.34668H79.4884V14.7163C79.4884 16.8912 80.1837 17.664 81.8926 17.664C82.6727 17.664 83.1199 17.5969 83.7806 17.487V19.9729C82.9575 20.2053 82.1722 20.3121 81.3219 20.3121C78.1251 20.3121 76.5272 18.5655 76.5272 15.0692V8.34668ZM96.2497 10.7907C95.6549 9.28909 94.3282 8.18333 92.3785 8.18333C89.8445 8.18333 88.2225 9.98123 88.2225 12.91C88.2225 15.7655 89.7157 17.6503 92.257 17.6503C94.2549 17.6503 95.6811 16.488 96.2497 15.042V10.7907ZM99.2109 20.0001H96.3041V18.0168C95.4916 19.1844 94.013 20.3393 91.6183 20.3393C87.767 20.3393 85.1931 17.1153 85.1931 12.91C85.1931 8.665 87.8287 5.49328 91.7816 5.49328C93.7356 5.49328 95.2685 6.27443 96.3041 7.65348V5.83359H99.2109V20.0001Z" fill="#B7B7B7"/>
</g>
<defs>
<clipPath id="clip0_1162_47866">
<rect width="99.267" height="20" fill="white" transform="translate(0.26123 0.351562)"/>
</clipPath>
</defs>
</svg>
