<svg width="75" height="21" viewBox="0 0 75 21" fill="none" xmlns="http://www.w3.org/2000/svg">
<g clip-path="url(#clip0_1162_47875)">
<path d="M10.3525 19.0624C9.23928 19.2579 8.10645 19.3165 6.9346 19.4726L3.3603 9.00395V19.9219C2.24706 20.0391 1.23146 20.1953 0.176758 20.3516V0.351563H3.14559L7.208 11.6994V0.351563H10.3525V19.0624ZM16.5049 7.67579C17.7159 7.67579 19.5714 7.61717 20.6846 7.61717V10.7421C19.2978 10.7421 17.6768 10.7421 16.5049 10.8007V15.4492C18.3409 15.3321 20.1768 15.1757 22.0322 15.1171V18.1247L13.3798 18.8085V0.351563H22.0322V3.47657H16.5049V7.67579ZM33.6533 3.47664H30.4111V17.8516C29.3564 17.8516 28.3017 17.8516 27.2863 17.8906V3.47664H24.0441V0.351562H33.6534L33.6533 3.47664ZM38.7314 7.461H43.0088V10.5859H38.7314V17.6759H35.6648V0.351563H44.3955V3.47657H38.7314V7.461ZM49.4736 14.9414C51.251 14.9803 53.0477 15.1173 54.7861 15.2148V18.3008C51.9932 18.1249 49.2002 17.9493 46.3486 17.8906V0.351563H49.4736V14.9414ZM57.4228 18.5156C58.4189 18.5743 59.4736 18.6329 60.4892 18.7499V0.351563H57.4228V18.5156ZM74.1807 0.351563L70.2158 9.86331L74.1807 20.3516C73.0087 20.1953 71.8369 19.9805 70.6649 19.7851L68.4189 14.004L66.134 19.3165C65.001 19.121 63.9072 19.0624 62.7746 18.9062L66.798 9.74602L63.1651 0.351563H66.5243L68.5751 5.60548L70.7627 0.351563L74.1807 0.351563Z" fill="#B7B7B7"/>
</g>
<defs>
<clipPath id="clip0_1162_47875">
<rect width="74.0039" height="20" fill="white" transform="translate(0.494141 0.351562)"/>
</clipPath>
</defs>
</svg>
