<svg width="34" height="34" viewBox="0 0 34 34" fill="none" xmlns="http://www.w3.org/2000/svg">
<circle cx="16.8799" cy="17.3516" r="16" stroke="black"/>
<g clip-path="url(#clip0_1543_3889)">
<path d="M10.3445 22.5902L20.8113 12.3327L14.5737 12.2697C14.4631 12.2705 14.3534 12.2493 14.251 12.2072C14.1486 12.1652 14.0557 12.1032 13.9776 12.0248C13.8994 11.9465 13.8377 11.8534 13.7959 11.7509C13.7542 11.6484 13.7332 11.5386 13.7343 11.428C13.7355 11.3174 13.7586 11.208 13.8024 11.1064C13.8462 11.0048 13.9099 10.913 13.9896 10.8362C14.0693 10.7594 14.1634 10.6993 14.2666 10.6593C14.3698 10.6194 14.4799 10.6004 14.5905 10.6034L22.8397 10.6867C23.0606 10.6889 23.2717 10.7788 23.4263 10.9367C23.581 11.0945 23.6666 11.3073 23.6644 11.5282L23.5812 19.7774C23.5752 19.9958 23.4836 20.2031 23.3263 20.3547C23.1689 20.5063 22.9582 20.59 22.7398 20.5878C22.5213 20.5856 22.3124 20.4976 22.1581 20.3429C22.0038 20.1882 21.9164 19.9791 21.9149 19.7606L21.9778 13.523L11.5111 23.7806C11.3533 23.9353 11.1404 24.0209 10.9194 24.0187C10.6984 24.0164 10.4873 23.9265 10.3327 23.7687C10.178 23.6108 10.0923 23.398 10.0945 23.177C10.0968 22.956 10.1867 22.7449 10.3445 22.5902Z" fill="black"/>
</g>
<defs>
<clipPath id="clip0_1543_3889">
<rect width="20" height="20" fill="white" transform="matrix(-0.714207 0.699934 0.699934 0.714207 17.0225 3.21094)"/>
</clipPath>
</defs>
</svg>
