<svg width="43" height="42" viewBox="0 0 43 42" fill="none" xmlns="http://www.w3.org/2000/svg">
<g id="notification">
<g id="Group">
<g id="Group_2">
<path id="Vector" d="M27.8026 23.7301V19.8152C27.8026 16.9073 25.9415 14.3716 23.3792 13.4244C23.4091 13.2748 23.4257 13.122 23.4257 12.9691C23.4257 11.7162 22.4088 10.6992 21.1559 10.6992C19.903 10.6992 18.886 11.7162 18.886 12.9691C18.886 13.1187 18.9026 13.2682 18.9292 13.4111C18.0485 13.7235 17.2343 14.2187 16.5397 14.89C15.2303 16.1529 14.5092 17.8511 14.5092 19.6723V23.7301C14.5092 23.873 14.3928 23.9927 14.2466 23.9927C13.0203 23.9927 11.9734 24.9166 11.8604 26.0931C11.7972 26.7478 12.0133 27.3991 12.4553 27.8844C12.894 28.3663 13.5221 28.6454 14.1768 28.6454H18.1848C18.3509 30.1376 19.6205 31.3041 21.1559 31.3041C22.6913 31.3041 23.9608 30.1376 24.127 28.6454H28.135C28.7897 28.6454 29.4178 28.3663 29.8565 27.8844C30.2951 27.3991 30.5112 26.7478 30.4514 26.0931C30.3384 24.9166 29.2882 23.9927 28.0652 23.9927C27.9189 23.9926 27.8026 23.8763 27.8026 23.7301ZM21.1559 12.0285C21.6743 12.0285 22.0964 12.4506 22.0964 12.969C22.0964 13.0122 22.0897 13.0521 22.083 13.0953C21.8571 13.062 21.6277 13.0388 21.3984 13.0321C21.0029 13.0188 20.6141 13.0455 20.2286 13.0986C20.2219 13.0554 20.2153 13.0155 20.2153 12.9724C20.2154 12.4506 20.6375 12.0285 21.1559 12.0285ZM21.1559 29.9747C20.355 29.9747 19.6836 29.4031 19.5274 28.6454H22.7843C22.6282 29.4031 21.9568 29.9747 21.1559 29.9747ZM29.1286 26.2193C29.1552 26.5052 29.0655 26.781 28.8761 26.9903C28.68 27.1997 28.4207 27.316 28.135 27.316H14.1768C13.891 27.316 13.6318 27.1997 13.439 26.9903C13.2463 26.781 13.1565 26.5051 13.1831 26.2193C13.2296 25.7175 13.6983 25.322 14.2466 25.322C15.124 25.322 15.8385 24.6075 15.8385 23.7301V19.6723C15.8385 18.2167 16.4167 16.8574 17.4636 15.8471C18.4639 14.88 19.7667 14.3549 21.1559 14.3549C21.2224 14.3549 21.2855 14.3549 21.352 14.3582C24.1735 14.4579 26.4733 16.9073 26.4733 19.8152V23.7301C26.4733 24.6075 27.1878 25.322 28.0652 25.322C28.6135 25.322 29.0788 25.7175 29.1286 26.2193Z" fill="black"/>
</g>
</g>
</g>
</svg>
