<svg width="47" height="21" viewBox="0 0 47 21" fill="none" xmlns="http://www.w3.org/2000/svg">
<g clip-path="url(#clip0_1162_47871)">
<path d="M18.4204 20.3415C16.8521 20.2571 15.6818 19.6117 14.9973 18.4539C14.5381 17.6766 14.3984 16.6543 14.6085 15.6097C14.8413 14.4523 15.6317 13.4093 16.8447 12.6592C17.5418 12.2278 18.1384 11.96 19.3533 11.533C19.6587 11.4257 19.9223 11.3269 19.9394 11.3131C19.9637 11.2938 19.9672 11.2253 19.955 11.003C19.92 10.3708 20.0255 9.38571 20.2041 8.67485C20.5045 7.47858 21.0825 6.51353 21.8497 5.92815C22.4004 5.50757 23.1223 5.19132 23.8409 5.05572C24.2379 4.98103 24.9025 4.98126 25.276 5.05641C26.8763 5.37863 27.7745 6.61213 27.4208 8.00191C27.3463 8.29494 27.111 8.77528 26.9117 9.04097C26.4012 9.72172 25.6334 10.3271 24.549 10.903C24.4128 10.9757 23.9664 11.1949 23.5576 11.3907C23.1487 11.5863 22.8014 11.7594 22.7853 11.7755C22.7626 11.7982 22.7683 11.8647 22.8125 12.088C23.0159 13.1209 23.3578 13.9936 23.9418 14.9694C24.174 15.3578 24.495 15.8476 24.5316 15.8704C24.5844 15.903 24.8005 15.5539 24.9414 15.2084C25.1156 14.781 25.2153 14.2156 25.1661 13.9347C25.1307 13.7336 25.0209 13.5213 24.8807 13.3841C24.8163 13.3206 24.763 13.2606 24.7628 13.2508C24.7626 13.2411 25.3068 13.2356 25.9726 13.239L27.1831 13.2452L27.1762 13.3988C27.1668 13.6086 27.0889 14.0561 27.0068 14.3746C26.7754 15.2703 26.3392 16.0363 25.5851 16.8729C25.4962 16.9715 25.4233 17.0682 25.4233 17.088C25.4233 17.1078 25.5483 17.245 25.7009 17.393C26.6541 18.3169 28.3424 19.3824 29.717 19.9273C29.8505 19.9804 29.9595 20.0344 29.959 20.0473C29.9585 20.0629 29.1649 20.073 27.6398 20.0772L25.3213 20.0831L25.1894 20.0089C24.92 19.8574 24.3236 19.3755 23.7506 18.846C23.6293 18.7338 23.5144 18.6421 23.4953 18.6421C23.4762 18.6421 23.3413 18.7205 23.196 18.8163C22.4516 19.3072 21.5619 19.7483 20.8095 19.9992C19.9536 20.2849 19.2471 20.3858 18.4204 20.3415ZM20.3726 18.3327C20.7196 18.2709 21.146 18.145 21.538 17.9885C21.9322 17.8313 22.4208 17.5909 22.4383 17.5453C22.4452 17.5274 22.3549 17.3764 22.2379 17.2096C21.6985 16.441 21.1223 15.3601 20.735 14.3907C20.5923 14.0333 20.3257 13.2418 20.2747 13.0248C20.2586 12.9557 20.2294 12.8929 20.2099 12.8853C20.1559 12.8646 19.713 13.1007 19.3303 13.3544C17.9702 14.256 17.3181 15.3567 17.4629 16.5068C17.5273 17.0179 17.6891 17.3904 17.9835 17.7051C18.5277 18.2866 19.3786 18.5102 20.3726 18.3327ZM22.6812 10.3356C23.1845 10.041 23.983 9.32549 24.4295 8.76931C25.0011 8.05753 25.305 7.39332 25.3052 6.8546C25.3052 6.54663 25.2615 6.40873 25.119 6.26623C24.9772 6.12466 24.8173 6.06605 24.5729 6.06582C23.8481 6.06582 23.0641 6.9263 22.7226 8.09706C22.5502 8.68726 22.5084 9.00488 22.5072 9.72586C22.5063 10.2765 22.5153 10.399 22.5567 10.399C22.5656 10.399 22.6217 10.3705 22.6812 10.3356ZM34.6698 20.3277C33.4754 20.2075 32.6882 20.0289 31.8002 19.6772C30.5917 19.1983 29.8372 18.6051 29.1999 17.6331C29.0091 17.3422 28.703 16.7313 28.5793 16.3937C28.0266 14.8894 27.9052 12.9956 28.2346 11.02C28.5681 9.02051 29.3277 7.09339 30.3757 5.58709C31.0555 4.61031 32.067 3.58159 33.1111 2.80477C34.8353 1.52232 36.8199 0.734006 39.0246 0.456832C39.6934 0.372714 40.0681 0.35111 40.858 0.35157C42.0529 0.352259 42.963 0.443272 44.1648 0.682065C44.9315 0.834671 46.1528 1.16425 46.1762 1.22515C46.1882 1.25595 45.4144 3.73604 45.3824 3.76937C45.3725 3.77971 45.2537 3.70042 45.1188 3.5924C44.0319 2.72594 42.9055 2.19848 41.7665 2.02312C41.4027 1.96704 40.7189 1.96635 40.3622 2.02174C38.7654 2.26904 37.2848 3.28925 35.9704 5.04814C35.5434 5.61949 35.0729 6.38529 34.7071 7.10419C34.2113 8.07867 33.8705 8.94007 33.5257 10.092C32.4276 13.7568 32.372 16.3174 33.3602 17.7035C33.7673 18.2746 34.3623 18.6384 35.1173 18.7775C35.5508 18.8574 36.6029 18.809 36.7077 18.7044C36.7245 18.6878 37.2382 17.0806 37.8491 15.1328C38.8529 11.9334 38.9614 11.5725 38.9729 11.3912C38.9881 11.1476 38.9428 10.9299 38.8332 10.7203C38.7337 10.5298 38.4707 10.2712 38.254 10.151C38.1605 10.0991 38.0837 10.0485 38.0835 10.0389C38.0832 10.0292 39.7674 10.0212 41.8265 10.0212C43.8853 10.0212 45.5699 10.0292 45.5697 10.0389C45.5697 10.0485 45.4785 10.0984 45.367 10.1492C44.7842 10.4158 44.3617 10.8153 44.1105 11.3379C44.0561 11.451 43.5849 12.9145 42.8773 15.1682L41.732 18.8156L41.4011 18.9742C40.0531 19.6212 38.4041 20.087 36.7592 20.2858C36.457 20.3226 34.9229 20.3532 34.67 20.3277H34.6698ZM0.2117 20.0611C0.204116 20.0491 0.253989 20.0071 0.322248 19.9678C0.729046 19.7336 1.18572 19.2477 1.37923 18.8427C1.43531 18.7255 6.57039 2.37085 6.6837 1.9482C6.7037 1.87419 6.72047 1.71791 6.7207 1.60115C6.72231 1.24446 6.61153 0.987278 6.35068 0.740441C6.27943 0.673101 6.22128 0.608059 6.22128 0.595878C6.22128 0.563472 15.1881 0.56623 15.5993 0.598866C16.4896 0.669424 17.3809 0.906148 18.0626 1.25273C19.2264 1.84454 19.9233 2.74272 20.1375 3.92703C20.1972 4.2566 20.2087 4.98976 20.1598 5.34462C19.9603 6.79116 19.3048 8.32551 18.4124 9.43558C16.9667 11.2338 14.6025 12.3836 11.7009 12.6999C10.7811 12.8001 9.62207 12.8253 8.80135 12.7628C8.56417 12.7447 8.36513 12.7348 8.35916 12.7408C8.32997 12.7702 6.47869 18.7101 6.45755 18.8427C6.39228 19.2516 6.6028 19.7113 6.9657 19.9521C7.03741 19.9997 7.08981 20.0487 7.08246 20.0606C7.06407 20.0903 0.229857 20.0905 0.21147 20.0608L0.2117 20.0611ZM10.3899 11.2386C11.064 11.1191 11.6588 10.8695 12.2327 10.4657C12.5115 10.2696 13.0842 9.69759 13.3205 9.37928C13.9116 8.58337 14.3464 7.64429 14.6972 6.40735C14.9206 5.61903 15.0157 5.01849 15.0155 4.39956C15.0155 3.92243 14.9723 3.63744 14.8523 3.31775C14.6742 2.84338 14.3115 2.46853 13.8507 2.28237C13.4549 2.12241 13.1171 2.08035 12.3044 2.08977L11.6917 2.09667L10.2674 6.63166C9.4844 9.126 8.84778 11.1788 8.85306 11.1936C8.85858 11.2083 8.95695 11.2331 9.0714 11.2487C9.18632 11.2643 9.29594 11.2809 9.31548 11.2857C9.40465 11.3075 10.1985 11.2726 10.3899 11.2386Z" fill="#B7B7B7"/>
</g>
<defs>
<clipPath id="clip0_1162_47871">
<rect width="45.9659" height="20" fill="white" transform="translate(0.52832 0.351562)"/>
</clipPath>
</defs>
</svg>
