<svg width="76" height="21" viewBox="0 0 76 21" fill="none" xmlns="http://www.w3.org/2000/svg">
<g clip-path="url(#clip0_1162_47877)">
<path fill-rule="evenodd" clip-rule="evenodd" d="M58.5902 3.50178L58.4188 3.51324H58.2473L58.0872 3.52469L57.7557 3.5476L57.4356 3.58197L57.1269 3.62779L56.8182 3.67361L56.5324 3.71943L56.2466 3.78816L55.9722 3.83397L55.6978 3.9027L55.4463 3.95998L55.1947 4.01725L54.9547 4.07453L54.7146 4.1318L54.4974 4.18907L54.2687 4.22344L53.9257 7.08715C54.4928 6.8168 56.2809 6.31967 57.7671 6.27385C59.2488 6.22804 60.1268 6.54648 59.825 7.82025C55.4166 7.82024 52.4418 8.72291 51.8335 11.5774C50.9601 16.4801 56.3243 16.3472 58.4645 14.212L58.2015 15.3919H62.1344L63.8378 7.59116C64.5375 4.27843 61.5261 3.45597 58.7732 3.50178H58.5902ZM58.293 10.4434C58.5948 10.4434 58.9515 10.4434 59.2533 10.4434C59.1665 10.8054 59.1184 11.1238 59.0361 11.4858L59.0133 11.5774L58.979 11.6805L58.9561 11.7607L58.9218 11.8524L58.8875 11.9325L58.8418 12.0127L58.8075 12.0929L58.7617 12.1616L58.716 12.2304L58.6588 12.2991L58.6131 12.3564L58.556 12.4251L58.4988 12.4824L58.4302 12.5396L58.3616 12.5855L58.3044 12.6313L58.2358 12.6771L58.1558 12.7229L58.0872 12.7573L58.0186 12.7916L57.9386 12.8375L57.8586 12.8604L57.7785 12.8947L57.6985 12.9177L57.607 12.9406L57.527 12.9635L57.4356 12.9749L57.3555 12.9978L57.2641 13.0093L57.1726 13.0207H57.0811L56.9782 13.0322C56.1048 13.078 55.3205 12.3014 55.8921 11.3942C56.3266 10.6198 57.5476 10.4434 58.293 10.4434Z" fill="#B7B7B7"/>
<path fill-rule="evenodd" clip-rule="evenodd" d="M67.1912 0.416974L63.9443 15.3906H67.9366L71.2246 0.416974H67.1912Z" fill="#B7B7B7"/>
<path fill-rule="evenodd" clip-rule="evenodd" d="M41.5558 0.464844L38.3203 15.3905H42.5618L43.6594 10.442H46.6776C49.6546 10.442 52.1012 8.62753 52.7598 5.53933C53.5052 2.04792 50.9602 0.464844 48.8612 0.464844H41.5558ZM45.1456 3.50037H47.2492C48.3422 3.50037 48.9961 4.4076 48.7355 5.53933L48.7012 5.64243L48.6669 5.75697L48.6326 5.84861L48.5983 5.95171L48.5525 6.0548L48.4954 6.14644L48.4382 6.24953L48.3811 6.34117L48.3239 6.43281L48.2553 6.51299L48.1867 6.60463L48.1181 6.68481L48.0381 6.765L47.958 6.84518L47.878 6.91391L47.798 6.99409L47.7065 7.06282L47.6151 7.1201L47.5236 7.17737L47.4321 7.23465L47.3407 7.29192L47.2492 7.33774L47.1463 7.38356L47.0549 7.42938L46.952 7.46374L46.8491 7.49811L46.7462 7.52102L46.6433 7.54393L46.5404 7.56684L46.4489 7.57829H46.3346L46.2431 7.58975H44.2653L45.1456 3.50037Z" fill="#B7B7B7"/>
<path fill-rule="evenodd" clip-rule="evenodd" d="M20.3363 3.50178L20.1648 3.51324H20.0048L19.8333 3.52469L19.5132 3.5476L19.1931 3.58197L18.8844 3.62779L18.5871 3.67361L18.3013 3.71943L18.0269 3.78816L17.7525 3.83397L17.4896 3.9027L17.2381 3.95998L16.998 4.01725L16.7579 4.07453L16.5407 4.1318L16.3235 4.18907L16.1177 4.22344L15.7747 7.08715C16.291 6.8168 18.0599 6.31967 19.5246 6.27385C20.9912 6.22804 21.8532 6.54648 21.5939 7.82025C17.239 7.82024 14.3095 8.72291 13.7054 11.5774C12.8429 16.4801 18.1417 16.3472 20.2106 14.212L19.9476 15.3919H23.8805L25.561 7.59116C26.2525 4.27843 23.2228 3.45597 20.5078 3.50178H20.3363ZM20.0391 10.4434C20.3839 10.4434 20.6889 10.4434 21.0337 10.4434C20.9477 10.8054 20.8613 11.1238 20.8165 11.4858L20.7936 11.5774L20.7708 11.6805L20.7365 11.7607L20.7022 11.8524L20.6679 11.9325L20.6221 12.0127L20.5878 12.0929L20.5421 12.1616L20.485 12.2304L20.4392 12.2991L20.3821 12.3564L20.3249 12.4251L20.2677 12.4824L20.1991 12.5396L20.142 12.5855L20.0734 12.6313L20.0048 12.6771L19.9248 12.7229L19.8562 12.7573L19.7761 12.7916L19.6961 12.8375L19.6161 12.8604L19.536 12.8947L19.456 12.9177L19.376 12.9406L19.2845 12.9635L19.1931 12.9749L19.113 12.9978L19.0216 13.0093L18.9301 13.0207H18.8386L18.7472 13.0322C17.8843 13.078 17.1457 12.3014 17.7068 11.3942C18.1371 10.6198 19.3495 10.4434 20.0391 10.4434Z" fill="#B7B7B7"/>
<path fill-rule="evenodd" clip-rule="evenodd" d="M27.2672 3.71927H31.19L31.8224 10.67L35.6615 3.71927H39.7091L30.3879 20.3516H26.001L28.8696 15.4627L27.2672 3.71927Z" fill="#B7B7B7"/>
<path fill-rule="evenodd" clip-rule="evenodd" d="M3.42754 0.464844L0.180664 15.3905H4.47934L5.53115 10.442H8.60653C11.5447 10.442 13.9973 8.62753 14.6544 5.53933C15.3994 2.04792 12.9047 0.464844 10.7559 0.464844H3.42754ZM7.07455 3.50037H9.17816C10.2304 3.50037 10.926 4.4076 10.6187 5.53933L10.5958 5.64243L10.5615 5.75697L10.5272 5.84861L10.4815 5.95171L10.4358 6.0548L10.39 6.14644L10.3443 6.24953L10.2871 6.34117L10.2185 6.43281L10.1614 6.51299L10.0928 6.60463L10.0242 6.68481L9.94415 6.765L9.86412 6.84518L9.78409 6.91391L9.70407 6.99409L9.62404 7.06282L9.53258 7.1201L9.45255 7.17737L9.36109 7.23465L9.25819 7.29192L9.16673 7.33774L9.07527 7.38356L8.97238 7.42938L8.88091 7.46374L8.77802 7.49811L8.67513 7.52102L8.57223 7.54393L8.46934 7.56684L8.36645 7.57829H8.26355L8.16066 7.58975H6.14851L7.07455 3.50037Z" fill="#B7B7B7"/>
<path d="M72.0846 2.35547V0.591434H71.4307V0.35318H73.0129V0.591434H72.3498V2.35547H72.0846Z" fill="#B7B7B7"/>
<path d="M73.2734 2.35547V0.35318H73.6713L74.1423 1.76899C74.188 1.90186 74.2155 1.99808 74.2383 2.06681C74.2612 1.9935 74.2978 1.88354 74.3435 1.74608L74.8237 0.35318H75.1804V2.35547H74.9243V0.678491L74.3435 2.35547H74.1057L73.5295 0.651001V2.35547H73.2734Z" fill="#B7B7B7"/>
</g>
<defs>
<clipPath id="clip0_1162_47877">
<rect width="75" height="20" fill="white" transform="translate(0.498047 0.351562)"/>
</clipPath>
</defs>
</svg>
