<svg width="18" height="19" viewBox="0 0 18 19" fill="none" xmlns="http://www.w3.org/2000/svg">
<g id="pencil 1">
<path id="Vector" d="M10.5322 4.78906L3.35671 11.965C3.32061 12.0012 3.29454 12.047 3.28213 12.0961L2.4868 15.2884C2.46301 15.3845 2.49125 15.4867 2.56138 15.5568C2.61444 15.6098 2.68674 15.6392 2.7607 15.6392C2.78335 15.6392 2.80652 15.6364 2.82907 15.6307L6.02136 14.8353C6.07111 14.8229 6.11631 14.7969 6.15241 14.7608L13.3285 7.58539L10.5322 4.78906Z" fill="#686868"/>
<path id="Vector_2" d="M15.1086 3.81221L14.3099 3.01347C13.776 2.47963 12.8456 2.48014 12.3124 3.01347L11.334 3.99188L14.1302 6.7881L15.1086 5.80969C15.3753 5.54313 15.5222 5.18834 15.5222 4.811C15.5222 4.43366 15.3753 4.07887 15.1086 3.81221Z" fill="#686868"/>
</g>
</svg>
