<svg width="18" height="18" viewBox="0 0 18 18" fill="none" xmlns="http://www.w3.org/2000/svg">
<g id="edit icon">
<path id="Vector" d="M14.753 2.12483C13.9497 1.32297 12.6489 1.32297 11.8456 2.12483L11.1179 2.85658L3.37082 10.5995L3.35436 10.6161C3.35037 10.6201 3.35037 10.6243 3.34613 10.6243C3.33789 10.6367 3.32555 10.6489 3.31744 10.6612C3.31744 10.6654 3.3132 10.6654 3.3132 10.6695C3.30497 10.6818 3.30098 10.6901 3.29262 10.7024C3.28863 10.7065 3.28863 10.7105 3.28451 10.7147C3.2804 10.7271 3.27628 10.7353 3.27204 10.7477C3.27204 10.7517 3.26805 10.7517 3.26805 10.7559L1.54922 15.9246C1.4988 16.0718 1.53713 16.2347 1.64787 16.3439C1.72569 16.4207 1.83065 16.4637 1.93986 16.4633C1.98449 16.4625 2.02874 16.4556 2.07144 16.4427L7.23617 14.7198C7.24016 14.7198 7.24016 14.7198 7.2444 14.7158C7.25739 14.7119 7.26987 14.7064 7.28132 14.6992C7.28453 14.6988 7.28736 14.6974 7.28968 14.6952C7.3019 14.687 7.31836 14.6786 7.33071 14.6704C7.34293 14.6623 7.35541 14.6499 7.36775 14.6417C7.37187 14.6375 7.37586 14.6375 7.37586 14.6335C7.3801 14.6294 7.38834 14.6254 7.39245 14.617L15.8672 6.14221C16.6691 5.33894 16.6691 4.03815 15.8672 3.235L14.753 2.12483ZM7.10459 13.7534L4.24265 10.8916L11.4057 3.72854L14.2677 6.59035L7.10459 13.7534ZM3.83954 11.6523L6.33977 14.1524L2.58543 15.4024L3.83954 11.6523ZM15.2875 5.56648L14.8516 6.00651L11.9896 3.14445L12.4297 2.70455C12.9112 2.22349 13.6915 2.22349 14.1731 2.70455L15.2915 3.82295C15.7694 4.30659 15.7676 5.08516 15.2875 5.56648Z" fill="#686868"/>
</g>
</svg>
