<svg width="20" height="20" viewBox="0 0 20 20" fill="none" xmlns="http://www.w3.org/2000/svg">
<g id="phone">
<path id="Vector" d="M17.1478 13.3609C17.1061 13.3278 14.074 11.1423 13.2418 11.2992C12.8445 11.3695 12.6173 11.6404 12.1615 12.1829C12.0881 12.2705 11.9119 12.4803 11.7749 12.6295C11.4868 12.5356 11.2058 12.4212 10.934 12.2873C9.53103 11.6043 8.3975 10.4707 7.71449 9.06778C7.58046 8.79601 7.46608 8.51499 7.37222 8.22688C7.52196 8.08936 7.7318 7.91313 7.82145 7.83775C8.36134 7.38444 8.63281 7.15728 8.7031 6.75898C8.84724 5.93386 6.66323 2.88093 6.64031 2.85343C6.54122 2.71187 6.4119 2.59411 6.26171 2.50866C6.11152 2.42322 5.94421 2.37222 5.7719 2.35938C4.88668 2.35938 2.35938 5.63794 2.35938 6.19006C2.35938 6.22215 2.40572 9.48391 6.42792 13.5754C10.5153 17.593 13.7766 17.6393 13.8086 17.6393C14.3613 17.6393 17.6393 15.112 17.6393 14.2268C17.6266 14.0551 17.5759 13.8883 17.4909 13.7386C17.4059 13.5889 17.2887 13.4599 17.1478 13.3609Z" fill="#686868"/>
</g>
</svg>
