<svg width="43" height="42" viewBox="0 0 43 42" fill="none" xmlns="http://www.w3.org/2000/svg">
<g id="question">
<g id="Group">
<g id="Group_2">
<path id="Vector" d="M21.0684 10.875C15.4734 10.875 10.9453 15.4025 10.9453 20.998C10.9453 26.593 15.4728 31.1211 21.0684 31.1211C26.6634 31.1211 31.1914 26.5936 31.1914 20.998C31.1914 15.403 26.6639 10.875 21.0684 10.875ZM21.0684 29.7086C16.2654 29.7086 12.3578 25.8011 12.3578 20.998C12.3578 16.195 16.2654 12.2875 21.0684 12.2875C25.8714 12.2875 29.7789 16.195 29.7789 20.998C29.7789 25.8011 25.8714 29.7086 21.0684 29.7086Z" fill="black"/>
</g>
</g>
<g id="Group_3">
<g id="Group_4">
<path id="Vector_2" d="M20.7744 23.6836C20.2148 23.6836 19.7617 24.15 19.7617 24.7096C19.7617 25.2559 20.2014 25.7356 20.7744 25.7356C21.3474 25.7356 21.8004 25.2559 21.8004 24.7096C21.8004 24.15 21.334 23.6836 20.7744 23.6836Z" fill="black"/>
</g>
</g>
<g id="Group_5">
<g id="Group_6">
<path id="Vector_3" d="M20.9414 15.918C19.1425 15.918 18.3164 16.984 18.3164 17.7035C18.3164 18.2232 18.7561 18.4631 19.1159 18.4631C19.8355 18.4631 19.5423 17.437 20.9015 17.437C21.5677 17.437 22.1007 17.7302 22.1007 18.3432C22.1007 19.0627 21.3545 19.4757 20.9148 19.8488C20.5283 20.1819 20.022 20.7283 20.022 21.8742C20.022 22.5671 20.2086 22.767 20.7549 22.767C21.4078 22.767 21.541 22.4739 21.541 22.2206C21.541 21.5278 21.5544 21.128 22.2872 20.555C22.647 20.2752 23.7796 19.3691 23.7796 18.1166C23.7796 16.864 22.647 15.918 20.9414 15.918Z" fill="black"/>
</g>
</g>
</g>
</svg>
