<svg width="14" height="14" viewBox="0 0 14 14" fill="none" xmlns="http://www.w3.org/2000/svg">
<g id="Top level">
<path id="sparkle" d="M12.3299 6.71788L10.7397 6.26346C10.0236 6.06158 9.37131 5.6793 8.84521 5.1532C8.31912 4.62711 7.93684 3.97481 7.73495 3.25871L7.28054 1.66855C7.25768 1.61291 7.21881 1.56533 7.16885 1.53184C7.11889 1.49835 7.0601 1.48047 6.99995 1.48047C6.93981 1.48047 6.88102 1.49835 6.83106 1.53184C6.7811 1.56533 6.74222 1.61291 6.71937 1.66855L6.26495 3.25871C6.06307 3.97481 5.68079 4.62711 5.15469 5.1532C4.6286 5.6793 3.9763 6.06158 3.2602 6.26346L1.67003 6.71788C1.60898 6.73521 1.55524 6.77198 1.51698 6.82262C1.47871 6.87326 1.45801 6.93499 1.45801 6.99846C1.45801 7.06193 1.47871 7.12367 1.51698 7.17431C1.55524 7.22494 1.60898 7.26172 1.67003 7.27905L3.2602 7.73346C3.9763 7.93535 4.6286 8.31763 5.15469 8.84372C5.68079 9.36982 6.06307 10.0221 6.26495 10.7382L6.71937 12.3284C6.7367 12.3894 6.77347 12.4432 6.82411 12.4814C6.87475 12.5197 6.93648 12.5404 6.99995 12.5404C7.06342 12.5404 7.12516 12.5197 7.17579 12.4814C7.22643 12.4432 7.26321 12.3894 7.28054 12.3284L7.73495 10.7382C7.93684 10.0221 8.31912 9.36982 8.84521 8.84372C9.37131 8.31763 10.0236 7.93535 10.7397 7.73346L12.3299 7.27905C12.3909 7.26172 12.4447 7.22494 12.4829 7.17431C12.5212 7.12367 12.5419 7.06193 12.5419 6.99846C12.5419 6.93499 12.5212 6.87326 12.4829 6.82262C12.4447 6.77198 12.3909 6.73521 12.3299 6.71788Z" fill="#E0E0E0"/>
</g>
</svg>
