<svg width="20" height="21" viewBox="0 0 20 21" fill="none" xmlns="http://www.w3.org/2000/svg">
<g id="right-arrow 1" clip-path="url(#clip0_2608_41490)">
<g id="Group">
<g id="Group_2">
<path id="Vector" d="M19.7709 9.7048C19.7706 9.70457 19.7704 9.70429 19.7702 9.70406L15.688 5.64156C15.3821 5.33722 14.8875 5.33836 14.5831 5.64422C14.2787 5.95004 14.2799 6.44468 14.5857 6.74906L17.3265 9.47656H0.78125C0.349766 9.47656 0 9.82633 0 10.2578C0 10.6893 0.349766 11.0391 0.78125 11.0391H17.3264L14.5857 13.7666C14.2799 14.0709 14.2788 14.5656 14.5831 14.8714C14.8875 15.1773 15.3822 15.1784 15.688 14.8741L19.7702 10.8116C19.7704 10.8113 19.7706 10.8111 19.7709 10.8108C20.0769 10.5054 20.0759 10.0092 19.7709 9.7048Z" fill="#005BF1"/>
</g>
</g>
</g>
<defs>
<clipPath id="clip0_2608_41490">
<rect width="20" height="20" fill="white" transform="translate(0 0.257812)"/>
</clipPath>
</defs>
</svg>
