<svg width="21" height="21" viewBox="0 0 21 21" fill="none" xmlns="http://www.w3.org/2000/svg">
<g clip-path="url(#clip0_1543_1098)">
<path d="M11.8785 20.1043C11.5283 20.1043 11.2949 19.9876 11.0615 19.7541L4.05849 12.7512C3.70834 12.401 3.59163 11.9341 3.82506 11.4673C3.94177 11.0004 4.40864 10.767 4.8755 10.767H8.37699C9.31072 10.767 10.2445 10.4168 10.828 9.71654C11.5283 9.13296 11.8785 8.19923 11.8785 7.2655C11.8785 6.33177 11.5283 5.39804 10.828 4.81446C10.2445 4.11416 9.31072 3.76401 8.37699 3.76401H4.8755C4.17521 3.76401 3.70834 3.29715 3.70834 2.59685C3.70834 1.89655 4.17521 1.42969 4.8755 1.42969H17.7143C18.4146 1.42969 18.8815 1.89655 18.8815 2.59685C18.8815 3.29715 18.4146 3.76401 17.7143 3.76401H13.0456C13.7459 4.81446 14.2128 5.98162 14.2128 7.2655C14.2128 8.78281 13.6292 10.3001 12.4621 11.3506C11.4116 12.5177 9.8943 13.1013 8.37699 13.1013H7.67669L12.6955 18.1201C13.1624 18.587 13.1624 19.2873 12.6955 19.7541C12.4621 19.9876 12.2286 20.1043 11.8785 20.1043Z" fill="#545454"/>
<path d="M17.7144 8.43198H4.87566C4.17536 8.43198 3.7085 7.96512 3.7085 7.26482C3.7085 6.56452 4.17536 6.09766 4.87566 6.09766H17.7144C18.4147 6.09766 18.8816 6.56452 18.8816 7.26482C18.8816 7.96512 18.4147 8.43198 17.7144 8.43198Z" fill="#545454"/>
</g>
<defs>
<clipPath id="clip0_1543_1098">
<rect width="20" height="20" fill="white" transform="translate(0.87793 0.765625)"/>
</clipPath>
</defs>
</svg>
