<svg width="41" height="41" viewBox="0 0 41 41" fill="none" xmlns="http://www.w3.org/2000/svg">
<path d="M35.352 33.9305L30.6582 26.3602C32.033 25.0425 33.128 23.4611 33.8775 21.7105C34.6271 19.9599 35.0159 18.0762 35.0207 16.1719C35.0207 8.37734 28.6785 2.03125 20.884 2.03125C13.0895 2.03125 6.74729 8.37344 6.74729 16.1719C6.75117 18.0756 7.1388 19.959 7.88701 21.7095C8.63522 23.46 9.72866 25.0418 11.102 26.3602L6.40823 33.9305C6.3638 34.0024 6.34077 34.0855 6.34183 34.17C6.34289 34.2546 6.368 34.3371 6.41421 34.4079C6.46043 34.4787 6.52585 34.5349 6.60281 34.5698C6.67978 34.6048 6.76512 34.6172 6.84885 34.6055L11.4512 33.95L12.9114 38.3641C12.9378 38.4444 12.9866 38.5156 13.0521 38.5691C13.1176 38.6227 13.197 38.6565 13.281 38.6665C13.365 38.6765 13.4501 38.6623 13.5263 38.6256C13.6026 38.5889 13.6668 38.5313 13.7114 38.4594L18.8629 30.15C20.1998 30.3632 21.562 30.3632 22.8988 30.15L28.0504 38.4594C28.0904 38.5237 28.1461 38.5767 28.2122 38.6135C28.2784 38.6502 28.3528 38.6695 28.4285 38.6695H28.4809C28.5649 38.6595 28.6442 38.6257 28.7097 38.5722C28.7751 38.5186 28.824 38.4475 28.8504 38.3672L30.3098 33.9531L34.9121 34.6086C34.9959 34.6203 35.0812 34.608 35.1582 34.573C35.2351 34.538 35.3006 34.4818 35.3468 34.411C35.393 34.3402 35.4181 34.2577 35.4192 34.1732C35.4202 34.0886 35.3972 34.0055 35.3528 33.9336L35.352 33.9305ZM30.066 33.018C29.9628 33.002 29.8573 33.0235 29.7685 33.0785C29.6796 33.1335 29.6134 33.2184 29.5817 33.318L28.302 37.182L23.4988 29.4305C23.4588 29.3662 23.4031 29.3133 23.337 29.2765C23.2708 29.2397 23.1964 29.2204 23.1207 29.2203C23.0964 29.2202 23.0721 29.222 23.0481 29.2258C21.4699 29.4859 20.2903 29.4859 18.7121 29.2258C18.6251 29.2102 18.5354 29.2214 18.4549 29.2579C18.3744 29.2945 18.3069 29.3547 18.2614 29.4305L13.4582 37.182L12.1785 33.3211C12.1463 33.2219 12.0799 33.1374 11.9912 33.0825C11.9026 33.0276 11.7973 33.0058 11.6942 33.0211L7.66604 33.5938L12.052 26.5187C12.1068 26.4305 12.129 26.3259 12.1148 26.223C12.1005 26.1201 12.0506 26.0254 11.9739 25.9555C10.6107 24.7154 9.52081 23.2051 8.77349 21.5207C8.02617 19.8362 7.63784 18.0146 7.63323 16.1719C7.63323 8.86797 13.5754 2.925 20.8801 2.925C28.1848 2.925 34.127 8.86797 34.127 16.1719C34.1225 18.0147 33.7342 19.8363 32.9869 21.5208C32.2396 23.2052 31.1496 24.7155 29.7864 25.9555C29.7096 26.0254 29.6597 26.1201 29.6454 26.223C29.6312 26.3259 29.6534 26.4305 29.7082 26.5187L34.0926 33.5906L30.066 33.018Z" fill="black"/>
<path d="M28.0352 9.01489C27.0975 8.07288 25.9822 7.32621 24.754 6.8181C23.5258 6.30999 22.209 6.05053 20.8798 6.05474C18.2342 6.11169 15.7162 7.20262 13.8654 9.09375C12.0145 10.9849 10.978 13.5258 10.978 16.1719C10.978 18.8181 12.0145 21.359 13.8654 23.2501C15.7162 25.1412 18.2342 26.2322 20.8798 26.2891C26.4595 26.2891 30.9993 21.7477 30.9993 16.168C31.0028 14.8389 30.7426 13.5224 30.2338 12.2945C29.725 11.0667 28.9777 9.95198 28.0352 9.01489ZM20.8798 25.4016C18.4317 25.4016 16.0839 24.4291 14.3528 22.6981C12.6218 20.967 11.6493 18.6192 11.6493 16.1711C11.6493 13.7231 12.6218 11.3753 14.3528 9.64422C16.0839 7.91317 18.4317 6.94068 20.8798 6.94068C23.3278 6.94068 25.6757 7.91317 27.4067 9.64422C29.1378 11.3753 30.1102 13.7231 30.1102 16.1711C30.1102 18.6192 29.1378 20.967 27.4067 22.6981C25.6757 24.4291 23.3278 25.4016 20.8798 25.4016Z" fill="black"/>
<path d="M28.1535 14.093C28.128 14.0142 28.0809 13.944 28.0177 13.8905C27.9545 13.8369 27.8776 13.8021 27.7957 13.7898L23.2941 13.1227L21.2894 9.03359C21.2528 8.95912 21.1961 8.89638 21.1257 8.85248C21.0553 8.80857 20.974 8.78525 20.891 8.78516C20.8089 8.79005 20.7293 8.81514 20.6593 8.85821C20.5892 8.90128 20.5309 8.96099 20.4894 9.03203L18.4676 13.1102L13.966 13.7523C13.8839 13.764 13.8068 13.7984 13.7432 13.8516C13.6796 13.9048 13.6322 13.9747 13.6063 14.0535C13.5804 14.1322 13.577 14.2166 13.5965 14.2972C13.616 14.3777 13.6577 14.4512 13.7168 14.5094L16.9738 17.6961L16.1926 22.1828C16.1789 22.2644 16.1882 22.3483 16.2195 22.4249C16.2509 22.5015 16.3029 22.5679 16.3698 22.6166C16.4368 22.6652 16.516 22.6943 16.5985 22.7005C16.681 22.7067 16.7637 22.6897 16.8371 22.6516L20.8691 20.5422L24.891 22.6727C24.9645 22.7116 25.0474 22.7291 25.1303 22.7233C25.2132 22.7174 25.2929 22.6885 25.3602 22.6397C25.4274 22.5908 25.4797 22.5241 25.511 22.4471C25.5423 22.3701 25.5513 22.2858 25.5371 22.2039L24.7769 17.7133L28.0402 14.5422C28.0986 14.485 28.14 14.4128 28.16 14.3335C28.18 14.2543 28.1777 14.171 28.1535 14.093ZM23.9887 17.2445C23.9375 17.2946 23.8991 17.3562 23.8768 17.4242C23.8545 17.4922 23.8489 17.5645 23.8605 17.6352L24.5098 21.4633L21.0769 19.6492C21.0129 19.6153 20.9416 19.5976 20.8691 19.5977C20.7974 19.5976 20.7266 19.6147 20.6629 19.6477L17.2254 21.4445L17.8902 17.6164C17.9021 17.5459 17.8968 17.4735 17.8746 17.4054C17.8524 17.3374 17.8141 17.2758 17.7629 17.2258L14.9879 14.5039L18.8301 13.957C18.9011 13.9461 18.9683 13.9181 19.026 13.8753C19.0837 13.8326 19.1302 13.7764 19.1613 13.7117L20.8863 10.232L22.5988 13.7242C22.6308 13.7889 22.6779 13.8448 22.7361 13.8874C22.7943 13.93 22.8619 13.9579 22.9332 13.9687L26.7754 14.5375L23.9887 17.2445Z" fill="black"/>
</svg>
