<svg width="43" height="42" viewBox="0 0 43 42" fill="none" xmlns="http://www.w3.org/2000/svg">
<g id="search (4)">
<g id="layer1">
<path id="circle2017" d="M19.9843 10.875C15.0149 10.875 10.9668 14.9231 10.9668 19.8925C10.9668 24.8619 15.0149 28.9179 19.9843 28.9179C22.1069 28.9179 24.059 28.174 25.6019 26.939L29.3581 30.6932C29.5476 30.8749 29.8008 30.9751 30.0633 30.9724C30.3259 30.9697 30.577 30.8644 30.7628 30.6788C30.9486 30.4933 31.0543 30.2424 31.0574 29.9798C31.0604 29.7173 30.9605 29.464 30.7791 29.2742L27.0229 25.518C28.259 23.9728 29.0038 22.0176 29.0038 19.8925C29.0038 14.9231 24.9537 10.875 19.9843 10.875ZM19.9843 12.8794C23.8705 12.8794 26.9975 16.0063 26.9975 19.8925C26.9975 23.7787 23.8705 26.9135 19.9843 26.9135C16.0981 26.9135 12.9711 23.7787 12.9711 19.8925C12.9711 16.0063 16.0981 12.8794 19.9843 12.8794Z" fill="black"/>
</g>
</g>
</svg>
