<svg width="20" height="20" viewBox="0 0 20 20" fill="none" xmlns="http://www.w3.org/2000/svg">
<g id="share (1) 1" clip-path="url(#clip0_2608_41665)">
<path id="Vector" d="M14.8704 13.2763C13.9601 13.2763 13.1399 13.6695 12.5706 14.2948L7.45057 11.1237C7.58727 10.7738 7.66308 10.3937 7.66308 9.99607C7.66308 9.59831 7.58727 9.21823 7.45057 8.86844L12.5706 5.69719C13.1399 6.32254 13.9601 6.71582 14.8704 6.71582C16.5853 6.71582 17.9803 5.32074 17.9803 3.60588C17.9803 1.89103 16.5853 0.496094 14.8704 0.496094C13.1555 0.496094 11.7605 1.89117 11.7605 3.60603C11.7605 4.00365 11.8364 4.38373 11.973 4.73366L6.85305 7.90476C6.2838 7.27941 5.46363 6.88614 4.55329 6.88614C2.83844 6.88614 1.44336 8.28136 1.44336 9.99607C1.44336 11.7109 2.83844 13.106 4.55329 13.106C5.46363 13.106 6.2838 12.7129 6.85305 12.0874L11.973 15.2585C11.8364 15.6084 11.7605 15.9885 11.7605 16.3863C11.7605 18.101 13.1555 19.4961 14.8704 19.4961C16.5853 19.4961 17.9803 18.101 17.9803 16.3863C17.9803 14.6714 16.5853 13.2763 14.8704 13.2763ZM12.8945 3.60603C12.8945 2.51652 13.7809 1.6301 14.8704 1.6301C15.9599 1.6301 16.8463 2.51652 16.8463 3.60603C16.8463 4.69553 15.9599 5.58195 14.8704 5.58195C13.7809 5.58195 12.8945 4.69553 12.8945 3.60603ZM4.55329 11.972C3.46364 11.972 2.57722 11.0856 2.57722 9.99607C2.57722 8.90657 3.46364 8.02015 4.55329 8.02015C5.6428 8.02015 6.52907 8.90657 6.52907 9.99607C6.52907 11.0856 5.6428 11.972 4.55329 11.972ZM12.8945 16.3861C12.8945 15.2966 13.7809 14.4102 14.8704 14.4102C15.9599 14.4102 16.8463 15.2966 16.8463 16.3861C16.8463 17.4756 15.9599 18.362 14.8704 18.362C13.7809 18.362 12.8945 17.4756 12.8945 16.3861Z" fill="black"/>
</g>
<defs>
<clipPath id="clip0_2608_41665">
<rect width="19" height="19" fill="white" transform="translate(0.21875 0.496094)"/>
</clipPath>
</defs>
</svg>
