<svg width="15" height="15" viewBox="0 0 15 15" fill="none" xmlns="http://www.w3.org/2000/svg">
<g id="SVG">
<path id="Vector" fill-rule="evenodd" clip-rule="evenodd" d="M15 5.9183C15 6.0778 14.8828 6.22844 14.7656 6.34363L11.4934 9.48045L12.2686 13.911C12.2777 13.973 12.2777 14.0261 12.2777 14.0882C12.2777 14.3186 12.1695 14.5312 11.908 14.5312C11.7818 14.5312 11.6557 14.4869 11.5475 14.4249L7.5 12.3337L3.45252 14.4249C3.33533 14.4869 3.21815 14.5312 3.09195 14.5312C2.83053 14.5312 2.71334 14.3186 2.71334 14.0882C2.71334 14.0261 2.72236 13.973 2.73137 13.911L3.50661 9.48045L0.225361 6.34363C0.117187 6.22844 0 6.0778 0 5.9183C0 5.65247 0.279447 5.54614 0.504808 5.51069L5.03005 4.86383L7.0583 0.832054C7.13943 0.663693 7.29267 0.46875 7.5 0.46875C7.70733 0.46875 7.86058 0.663693 7.9417 0.832054L9.96994 4.86383L14.4952 5.51069C14.7115 5.54614 15 5.65247 15 5.9183Z" fill="#005BF1"/>
</g>
</svg>
