<svg width="41" height="41" viewBox="0 0 41 41" fill="none" xmlns="http://www.w3.org/2000/svg">
<path d="M23.4423 32.6943C22.1204 32.707 20.8106 32.4428 19.5986 31.9191C19.4454 31.8571 19.3233 31.7374 19.2589 31.5864C19.1944 31.4354 19.193 31.2651 19.2548 31.1129C19.3172 30.961 19.4378 30.8397 19.5901 30.7758C19.7424 30.7119 19.914 30.7104 20.0673 30.7718C21.1263 31.2103 22.2636 31.432 23.4111 31.423C25.697 31.418 27.888 30.5148 29.5044 28.911C31.1208 27.3071 32.0311 25.1331 32.0361 22.8648C32.0311 20.5966 31.1208 18.4227 29.5044 16.8187C27.888 15.2149 25.697 14.3116 23.4111 14.3067C23.2453 14.3067 23.0864 14.2414 22.9691 14.125C22.8519 14.0087 22.7861 13.8511 22.7861 13.6866C22.7861 13.5221 22.8519 13.3643 22.9691 13.248C23.0864 13.1317 23.2453 13.0664 23.4111 13.0664C26.0283 13.0721 28.5367 14.1063 30.3874 15.9426C32.2379 17.7789 33.2804 20.2679 33.2861 22.8648C33.2926 24.1522 33.0429 25.4284 32.5514 26.6198C32.0598 27.8113 31.336 28.8947 30.4214 29.808C29.5068 30.7212 28.4195 31.4462 27.2219 31.9414C26.0243 32.4369 24.7399 32.6927 23.4423 32.6943Z" fill="black"/>
<path d="M23.4424 25.033C22.8708 25.0322 22.3228 24.8065 21.9186 24.4054C21.5144 24.0044 21.287 23.4607 21.2861 22.8935C21.287 22.3263 21.5144 21.7826 21.9186 21.3815C22.3228 20.9804 22.8708 20.7547 23.4424 20.7539C24.014 20.7547 24.562 20.9804 24.9662 21.3815C25.3704 21.7826 25.5978 22.3263 25.5986 22.8935C25.5978 23.4607 25.3704 24.0044 24.9662 24.4054C24.562 24.8065 24.014 25.0322 23.4424 25.033ZM23.4424 21.9942C23.202 21.9942 22.9715 22.089 22.8016 22.2577C22.6316 22.4263 22.5361 22.655 22.5361 22.8935C22.5361 23.132 22.6316 23.3607 22.8016 23.5293C22.9715 23.698 23.202 23.7927 23.4424 23.7927C23.6828 23.7927 23.9133 23.698 24.0832 23.5293C24.2532 23.3607 24.3486 23.132 24.3486 22.8935C24.3486 22.655 24.2532 22.4263 24.0832 22.2577C23.9133 22.089 23.6828 21.9942 23.4424 21.9942Z" fill="black"/>
<path d="M17.2862 30.1512C17.1359 30.1524 16.9907 30.097 16.88 29.9962C16.8185 29.9424 16.7687 29.8768 16.7337 29.8033C16.6987 29.7298 16.6791 29.65 16.6762 29.5688C16.6732 29.4875 16.687 29.4065 16.7167 29.3308C16.7464 29.255 16.7913 29.1859 16.8487 29.1279L21.9112 23.5776C21.9654 23.5166 22.0315 23.4672 22.1056 23.4325C22.1797 23.3977 22.2601 23.3783 22.342 23.3754C22.4239 23.3725 22.5054 23.3862 22.5818 23.4156C22.6582 23.445 22.7277 23.4896 22.7862 23.5465C22.8472 23.6006 22.8966 23.6664 22.9314 23.7398C22.9662 23.8133 22.9856 23.8929 22.9885 23.974C22.9914 24.0552 22.9778 24.1361 22.9484 24.2118C22.919 24.2876 22.8745 24.3566 22.8175 24.4148L17.7549 29.9342C17.6979 30.0026 17.6263 30.0576 17.5452 30.0951C17.4641 30.1326 17.3756 30.1518 17.2862 30.1512Z" fill="black"/>
<path d="M14.1924 10.2442H4.94238C4.77663 10.2442 4.61766 10.1789 4.50045 10.0626C4.38323 9.94633 4.31738 9.78856 4.31738 9.62406C4.31738 9.4596 4.38323 9.30183 4.50045 9.18552C4.61766 9.06921 4.77663 9.00391 4.94238 9.00391H14.1924C14.3581 9.00391 14.5171 9.06921 14.6343 9.18552C14.7515 9.30183 14.8174 9.4596 14.8174 9.62406C14.8174 9.78856 14.7515 9.94633 14.6343 10.0626C14.5171 10.1789 14.3581 10.2442 14.1924 10.2442Z" fill="black"/>
<path d="M12.1299 14.338H8.03613C7.87038 14.338 7.71141 14.2727 7.5942 14.1564C7.47698 14.04 7.41113 13.8823 7.41113 13.7178C7.41113 13.5533 7.47698 13.3956 7.5942 13.2793C7.71141 13.163 7.87038 13.0977 8.03613 13.0977H12.1299C12.2957 13.0977 12.4546 13.163 12.5718 13.2793C12.689 13.3956 12.7549 13.5533 12.7549 13.7178C12.7549 13.8823 12.689 14.04 12.5718 14.1564C12.4546 14.2727 12.2957 14.338 12.1299 14.338Z" fill="black"/>
<path d="M19.3486 14.338H16.2549C16.0891 14.338 15.9301 14.2727 15.8129 14.1564C15.6957 14.04 15.6299 13.8823 15.6299 13.7178C15.6299 13.5533 15.6957 13.3956 15.8129 13.2793C15.9301 13.163 16.0891 13.0977 16.2549 13.0977H19.3486C19.5144 13.0977 19.6734 13.163 19.7906 13.2793C19.9078 13.3956 19.9736 13.5533 19.9736 13.7178C19.9736 13.8823 19.9078 14.04 19.7906 14.1564C19.6734 14.2727 19.5144 14.338 19.3486 14.338Z" fill="black"/>
<path d="M26.5674 7.70091C26.4016 7.70091 26.2427 7.63552 26.1254 7.51921C26.0082 7.40293 25.9424 7.24522 25.9424 7.08076V5.56132C25.9408 5.45493 25.8975 5.35338 25.8216 5.27812C25.7458 5.20287 25.6434 5.15989 25.5362 5.15828H21.4111C21.3039 5.15989 21.2015 5.20287 21.1257 5.27812C21.0498 5.35338 21.0065 5.45493 21.0049 5.56132V7.08076C21.0049 7.24522 20.939 7.40293 20.8218 7.51921C20.7046 7.63552 20.5457 7.70091 20.3799 7.70091C20.2141 7.70091 20.0552 7.63552 19.9379 7.51921C19.8207 7.40293 19.7549 7.24522 19.7549 7.08076V5.56132C19.7582 5.12646 19.9337 4.71034 20.2436 4.40284C20.5535 4.09536 20.9729 3.92122 21.4111 3.91797H25.5362C25.9744 3.92122 26.3938 4.09536 26.7037 4.40284C27.0136 4.71034 27.1891 5.12646 27.1924 5.56132V7.08076C27.1924 7.24522 27.1265 7.40293 27.0093 7.51921C26.8921 7.63552 26.7332 7.70091 26.5674 7.70091Z" fill="black"/>
<path d="M23.4736 36.7866C19.7619 36.7826 16.2033 35.3178 13.5787 32.7135C10.9541 30.1092 9.47776 26.5782 9.47363 22.8952C9.48029 21.0532 9.85195 19.2305 10.5674 17.5308C10.6298 17.3789 10.7504 17.2576 10.9026 17.1937C11.0549 17.1298 11.2265 17.1283 11.3799 17.1897C11.533 17.2516 11.6552 17.3713 11.7196 17.5224C11.784 17.6735 11.7855 17.8438 11.7236 17.9959C11.0821 19.5399 10.7529 21.1941 10.7549 22.8642C10.7582 26.2185 12.1025 29.4345 14.4929 31.8062C16.8833 34.1783 20.1244 35.5119 23.5049 35.5153C26.8854 35.5119 30.1265 34.1783 32.5168 31.8062C34.9071 29.4345 36.2514 26.2185 36.2549 22.8642C36.2514 19.5099 34.9071 16.2939 32.5168 13.9221C30.1265 11.5503 26.8854 10.2163 23.5049 10.213H18.3486C18.1829 10.213 18.0239 10.1477 17.9067 10.0314C17.7895 9.91507 17.7236 9.75731 17.7236 9.59281C17.7236 9.42835 17.7895 9.27064 17.9067 9.15436C18.0239 9.03805 18.1829 8.97266 18.3486 8.97266H23.5049C27.2167 8.97678 30.7752 10.4416 33.3999 13.0459C36.0246 15.6502 37.5008 19.1812 37.5049 22.8642C37.4968 26.5541 36.0158 30.0906 33.3861 32.6998C30.7565 35.3091 27.1924 36.7786 23.4736 36.7866Z" fill="black"/>
<path d="M35.2861 12.8809C35.1118 12.8801 34.9443 12.8136 34.8174 12.6948C34.1177 11.9375 33.343 11.2519 32.5049 10.6484C32.4368 10.6018 32.3786 10.5424 32.3339 10.4734C32.2893 10.4044 32.2586 10.3273 32.2439 10.2466C32.2296 10.1658 32.2314 10.0831 32.2493 10.003C32.2671 9.92293 32.3011 9.84714 32.3486 9.7801C32.3955 9.71257 32.4555 9.6549 32.5249 9.61046C32.5946 9.56606 32.6721 9.53579 32.7536 9.52138C32.8349 9.50696 32.9183 9.50869 32.9989 9.52652C33.0799 9.54432 33.1561 9.57781 33.2236 9.62507C34.1318 10.2824 34.9696 11.0305 35.7236 11.8576C35.8339 11.9776 35.8927 12.1357 35.8868 12.2981C35.8811 12.4604 35.8111 12.614 35.6924 12.7258C35.5818 12.8267 35.4364 12.8821 35.2861 12.8809Z" fill="black"/>
</svg>
