<svg width="41" height="41" viewBox="0 0 41 41" fill="none" xmlns="http://www.w3.org/2000/svg">
<path d="M37.5887 2.84806C37.3711 2.85393 37.1642 2.94463 37.0124 3.10073L33.4309 6.68466L32.3518 5.60549C31.7518 5.00552 31.0615 4.67359 30.3809 4.6551C29.9724 4.64399 29.5933 4.70336 29.1428 4.76595L23.3003 5.57777C21.1508 5.87644 20.0592 6.79728 18.673 8.08905L4.30149 21.4817C4.29571 21.487 4.29 21.4925 4.28437 21.498C3.66318 22.1113 3.39386 22.95 3.38452 23.7753C3.37518 24.6006 3.63548 25.4738 4.32839 26.0657L4.2803 26.0209L15.275 37.0155L15.2301 36.9675C15.822 37.6604 16.6952 37.9207 17.5205 37.9113C18.3458 37.902 19.1846 37.6327 19.7979 37.0115C19.8034 37.0058 19.8088 37.0001 19.8142 36.9944L20.8012 35.9347L24.7324 37.3994C25.5863 37.7176 26.4609 37.6586 27.2078 37.3073C27.9546 36.9561 28.6056 36.3632 28.9056 35.5435L33.2198 22.6089C34.5046 21.2295 35.4204 20.1376 35.7181 17.9956L36.5299 12.1531C36.5925 11.7026 36.6518 11.3234 36.6407 10.9149C36.6223 10.2344 36.2903 9.54403 35.6904 8.94407L34.6112 7.8649L38.1951 4.28097C38.7405 3.7501 38.3494 2.8256 37.5887 2.84806ZM30.3353 6.32439C30.6622 6.33327 30.7282 6.34238 31.1715 6.78573L32.2507 7.8649L30.3344 9.78279C30.0073 9.62477 29.6431 9.53337 29.2585 9.53337C27.8855 9.53337 26.7538 10.6651 26.7538 12.0381C26.7538 13.4111 27.8855 14.5429 29.2585 14.5429C30.6315 14.5429 31.7633 13.4111 31.7633 12.0381C31.7633 11.6536 31.6718 11.2893 31.5139 10.9622L33.4309 9.04514L34.5101 10.1243C34.9535 10.5677 34.9626 10.6336 34.9715 10.9606C34.9768 11.1567 34.9395 11.4727 34.8769 11.9232L34.0651 17.7657C33.8134 19.5771 33.2707 20.1061 31.9858 21.4849L18.6087 35.8402C18.3924 36.0587 17.9463 36.237 17.5018 36.242C17.0568 36.2471 16.6748 36.088 16.5 35.8834C16.4857 35.8668 16.4708 35.8507 16.4552 35.8353L5.46054 24.8406C5.4451 24.8251 5.42906 24.8101 5.41245 24.7958C5.20786 24.621 5.04877 24.2391 5.05381 23.7941C5.05884 23.3495 5.23718 22.9034 5.45565 22.6872L5.45648 22.6864L19.8109 9.31002C21.1898 8.02511 21.7188 7.48244 23.5301 7.23074L29.3727 6.41892C29.8232 6.35632 30.1392 6.31906 30.3353 6.32439ZM29.2585 11.2027C29.7294 11.2027 30.0932 11.5673 30.0932 12.0381C30.0932 12.509 29.7294 12.8728 29.2585 12.8728C28.7877 12.8728 28.4239 12.509 28.4239 12.0381C28.4239 11.5673 28.7877 11.2027 29.2585 11.2027ZM15.0598 20.3772C14.3117 20.3782 13.9425 21.2869 14.4778 21.8093L19.4865 26.8189C20.275 27.6057 21.4552 26.423 20.6667 25.6362L15.6572 20.6299C15.5003 20.4686 15.2849 20.3775 15.0598 20.3772ZM12.555 22.8787C11.8031 22.8767 11.432 23.7919 11.9731 24.3141L16.9826 29.3203C17.769 30.1602 19.0024 28.9259 18.162 28.1401L13.1557 23.1347C12.9986 22.9713 12.7817 22.8789 12.555 22.8787ZM30.4795 25.549L27.3374 34.9697C27.2317 35.2584 26.8997 35.6076 26.497 35.797C26.0943 35.9864 25.6886 35.9809 25.4366 35.8867L22.0328 34.6135L30.4795 25.549Z" fill="black"/>
</svg>
