<svg width="20" height="20" viewBox="0 0 20 20" fill="none" xmlns="http://www.w3.org/2000/svg">
<g id="small question mark">
<g id="Group">
<g id="Group_2">
<path id="Vector" d="M10 2.69531C5.9627 2.69531 2.69531 5.96233 2.69531 10C2.69531 14.0372 5.96233 17.3047 10 17.3047C14.0373 17.3047 17.3047 14.0377 17.3047 10C17.3047 5.9627 14.0377 2.69531 10 2.69531ZM9.78386 13.4189C9.3704 13.4189 9.0531 13.0728 9.0531 12.6785C9.0531 12.2747 9.38001 11.9382 9.78386 11.9382C10.1877 11.9382 10.5242 12.2747 10.5242 12.6785C10.5242 13.0727 10.1973 13.4189 9.78386 13.4189ZM10.88 9.67859C10.3511 10.0921 10.3415 10.3805 10.3415 10.8805C10.3415 11.0632 10.2453 11.2747 9.77421 11.2747C9.37996 11.2747 9.24539 11.1305 9.24539 10.6305C9.24539 9.8036 9.61077 9.40938 9.8896 9.16901C10.2069 8.89976 10.7454 8.60172 10.7454 8.08252C10.7454 7.64019 10.3608 7.42866 9.87999 7.42866C8.89925 7.42866 9.1108 8.16906 8.59154 8.16906C8.33193 8.16906 8.01464 7.99595 8.01464 7.62098C8.01464 7.10178 8.61077 6.33253 9.90883 6.33253C11.1396 6.33253 11.9569 7.01524 11.9569 7.91905C11.9569 8.82286 11.1396 9.47669 10.88 9.67859Z" fill="#C2C2C2"/>
</g>
</g>
</g>
</svg>
