<svg width="14" height="15" viewBox="0 0 14 15" fill="none" xmlns="http://www.w3.org/2000/svg">
<g id="user (5) 1" clip-path="url(#clip0_1162_55760)">
<path id="Vector" d="M6.89937 7.24384C7.82585 7.24384 8.62811 6.91155 9.28361 6.25594C9.93911 5.60044 10.2714 4.7984 10.2714 3.87181C10.2714 2.94555 9.93911 2.1434 9.2835 1.48768C8.62789 0.832289 7.82574 0.5 6.89937 0.5C5.97278 0.5 5.17074 0.832289 4.51524 1.48779C3.85974 2.14329 3.52734 2.94544 3.52734 3.87181C3.52734 4.7984 3.85974 5.60055 4.51535 6.25605C5.17095 6.91144 5.9731 7.24384 6.89937 7.24384Z" fill="#686868"/>
<path id="Vector_2" d="M12.8004 11.2645C12.7814 10.9917 12.7432 10.6941 12.6869 10.3799C12.6301 10.0633 12.5569 9.76398 12.4693 9.49044C12.3789 9.20771 12.2558 8.92851 12.1037 8.66094C11.9459 8.38324 11.7604 8.14141 11.5524 7.94243C11.3348 7.73425 11.0684 7.56688 10.7604 7.44479C10.4534 7.32335 10.1132 7.26183 9.7493 7.26183C9.60638 7.26183 9.46817 7.32046 9.20125 7.49425C9.03697 7.60138 8.84482 7.72528 8.63034 7.86232C8.44695 7.97917 8.19851 8.08865 7.89164 8.18777C7.59225 8.28465 7.28826 8.33378 6.98823 8.33378C6.6882 8.33378 6.38432 8.28465 6.08461 8.18777C5.77806 8.08876 5.52962 7.97928 5.34643 7.86242C5.13399 7.72667 4.94173 7.60277 4.775 7.49414C4.50839 7.32036 4.37007 7.26172 4.22716 7.26172C3.86315 7.26172 3.52306 7.32335 3.21619 7.4449C2.90836 7.56677 2.64187 7.73414 2.42408 7.94253C2.21612 8.14163 2.03059 8.38334 1.87294 8.66094C1.72095 8.92851 1.5979 9.2076 1.50732 9.49055C1.41984 9.76409 1.34668 10.0633 1.28986 10.3799C1.23357 10.6937 1.19533 10.9913 1.17642 11.2648C1.15784 11.5327 1.14844 11.8107 1.14844 12.0915C1.14844 12.8223 1.38075 13.4139 1.83886 13.8503C2.29132 14.2808 2.88999 14.4992 3.61802 14.4992H10.3591C11.0871 14.4992 11.6856 14.2809 12.1381 13.8503C12.5963 13.4143 12.8287 12.8225 12.8287 12.0914C12.8286 11.8093 12.819 11.5311 12.8004 11.2645Z" fill="#686868"/>
</g>
<defs>
<clipPath id="clip0_1162_55760">
<rect width="13.9999" height="14" fill="white" transform="translate(0 0.5)"/>
</clipPath>
</defs>
</svg>
