<svg width="1320" height="300" viewBox="0 0 1320 300" fill="none" xmlns="http://www.w3.org/2000/svg">
<rect width="1320" height="300" rx="8" fill="#D3F8E4"/>
<g opacity="0.5" clip-path="url(#clip0_518_2676)">
<path d="M159.43 55.8734L127.58 24.0234H74.25L45.92 52.3534H0V52.8734H46.13L74.47 24.5434H127.36L159.21 56.3934H267.4V55.8734H159.43Z" fill="url(#paint0_radial_518_2676)"/>
<path d="M267.35 57.1163C267.891 57.1163 268.33 56.6775 268.33 56.1363C268.33 55.595 267.891 55.1562 267.35 55.1562C266.809 55.1562 266.37 55.595 266.37 56.1363C266.37 56.6775 266.809 57.1163 267.35 57.1163Z" fill="url(#paint1_radial_518_2676)"/>
<path d="M7.54 266.336L0 273.876V274.616L7.76 266.856H116.94V266.336H7.54Z" fill="url(#paint2_radial_518_2676)"/>
<path d="M116.89 267.573C117.431 267.573 117.87 267.135 117.87 266.593C117.87 266.052 117.431 265.613 116.89 265.613C116.349 265.613 115.91 266.052 115.91 266.593C115.91 267.135 116.349 267.573 116.89 267.573Z" fill="url(#paint3_radial_518_2676)"/>
<path d="M4.38 135.423L0 131.043V131.773L4.17 135.943H70.37V135.423H4.38Z" fill="url(#paint4_radial_518_2676)"/>
<path d="M70.3198 136.663C70.8611 136.663 71.2999 136.224 71.2999 135.683C71.2999 135.142 70.8611 134.703 70.3198 134.703C69.7786 134.703 69.3398 135.142 69.3398 135.683C69.3398 136.224 69.7786 136.663 70.3198 136.663Z" fill="url(#paint5_radial_518_2676)"/>
<path d="M4.23 248.797L0 253.037V253.767L4.45 249.317H86.82V248.797H4.23Z" fill="url(#paint6_radial_518_2676)"/>
<path d="M86.77 248.086C87.31 248.086 87.75 248.526 87.75 249.066C87.75 249.606 87.31 250.046 86.77 250.046C86.23 250.046 85.79 249.606 85.79 249.066C85.79 248.526 86.23 248.086 86.77 248.086Z" fill="url(#paint7_radial_518_2676)"/>
<path d="M80.02 137.102L58.16 158.972H0V159.492H58.37L80.39 137.472L80.02 137.102Z" fill="url(#paint8_radial_518_2676)"/>
<path d="M80.8598 138.013C81.2398 137.633 81.2398 137.013 80.8598 136.633C80.4798 136.253 79.8598 136.253 79.4798 136.633C79.0998 137.013 79.0998 137.633 79.4798 138.013C79.8598 138.393 80.4798 138.393 80.8598 138.013Z" fill="url(#paint9_radial_518_2676)"/>
<path d="M202.73 274.745L187.83 259.845H133.35L104.95 231.445H12.94L0 244.385V245.115L13.15 231.965H104.74L133.13 260.365H187.61L202.51 275.265H277.98V274.745H202.73Z" fill="url(#paint10_radial_518_2676)"/>
<path d="M277.93 275.983C278.471 275.983 278.91 275.545 278.91 275.003C278.91 274.462 278.471 274.023 277.93 274.023C277.389 274.023 276.95 274.462 276.95 275.003C276.95 275.545 277.389 275.983 277.93 275.983Z" fill="url(#paint11_radial_518_2676)"/>
<path d="M225.66 249.363L213.88 237.583H167.42L139.15 209.312H24.18L0 233.493V234.223L24.4 209.833H138.93L167.21 238.103H213.67L225.45 249.883H290.2V249.363H225.66Z" fill="url(#paint12_radial_518_2676)"/>
<path d="M290.15 250.601C290.691 250.601 291.13 250.162 291.13 249.621C291.13 249.079 290.691 248.641 290.15 248.641C289.609 248.641 289.17 249.079 289.17 249.621C289.17 250.162 289.609 250.601 290.15 250.601Z" fill="url(#paint13_radial_518_2676)"/>
<path d="M198.58 122.305L181.91 138.975H150.12L111.08 178.005H0V178.525H111.3L150.33 139.485H182.13L198.8 122.825H268.21V122.305H198.58Z" fill="url(#paint14_radial_518_2676)"/>
<path d="M268.16 123.534C268.7 123.534 269.14 123.094 269.14 122.554C269.14 122.014 268.7 121.574 268.16 121.574C267.62 121.574 267.18 122.014 267.18 122.554C267.19 123.104 267.62 123.534 268.16 123.534Z" fill="url(#paint15_radial_518_2676)"/>
<path d="M272.28 261.774H218.44L203.08 246.414H164.17L138.93 221.184H26.79V220.664H139.15L164.39 245.894H203.3L218.66 261.254H272.28V261.774Z" fill="url(#paint16_radial_518_2676)"/>
<path d="M26.8399 221.905C27.3811 221.905 27.8199 221.467 27.8199 220.925C27.8199 220.384 27.3811 219.945 26.8399 219.945C26.2986 219.945 25.8599 220.384 25.8599 220.925C25.8599 221.467 26.2986 221.905 26.8399 221.905Z" fill="url(#paint17_radial_518_2676)"/>
<path d="M272.23 262.495C272.771 262.495 273.21 262.056 273.21 261.515C273.21 260.974 272.771 260.535 272.23 260.535C271.689 260.535 271.25 260.974 271.25 261.515C271.25 262.056 271.689 262.495 272.23 262.495Z" fill="url(#paint18_radial_518_2676)"/>
<path d="M109.67 129.763H85.25V129.243H109.45L139.17 99.5234H217.73V100.043H139.39L109.67 129.763Z" fill="url(#paint19_radial_518_2676)"/>
<path d="M85.2998 130.483C85.8411 130.483 86.2798 130.045 86.2798 129.503C86.2798 128.962 85.8411 128.523 85.2998 128.523C84.7586 128.523 84.3198 128.962 84.3198 129.503C84.3198 130.045 84.7586 130.483 85.2998 130.483Z" fill="url(#paint20_radial_518_2676)"/>
<path d="M217.68 100.765C218.221 100.765 218.66 100.326 218.66 99.7847C218.66 99.2435 218.221 98.8047 217.68 98.8047C217.138 98.8047 216.7 99.2435 216.7 99.7847C216.7 100.326 217.138 100.765 217.68 100.765Z" fill="url(#paint21_radial_518_2676)"/>
<path d="M51.64 148.383H0V148.903H51.64V148.383Z" fill="url(#paint22_radial_518_2676)"/>
<path d="M51.5899 149.624C52.1311 149.624 52.5699 149.185 52.5699 148.644C52.5699 148.103 52.1311 147.664 51.5899 147.664C51.0486 147.664 50.6099 148.103 50.6099 148.644C50.6099 149.185 51.0486 149.624 51.5899 149.624Z" fill="url(#paint23_radial_518_2676)"/>
<path d="M153.43 66.7559L123.51 36.8359H74.04L37.81 73.0659H0V73.5859H38.02L74.25 37.3559H123.29L153.22 67.2759H208.78V66.7559H153.43Z" fill="url(#paint24_radial_518_2676)"/>
<path d="M208.73 67.9952C209.271 67.9952 209.71 67.5564 209.71 67.0152C209.71 66.4739 209.271 66.0352 208.73 66.0352C208.189 66.0352 207.75 66.4739 207.75 67.0152C207.75 67.5564 208.189 67.9952 208.73 67.9952Z" fill="url(#paint25_radial_518_2676)"/>
<path d="M124.92 90.9844L95.61 120.294H11.97L0 108.324V109.064L11.75 120.814H95.83L125.14 91.4944H236.46V90.9844H124.92Z" fill="url(#paint26_radial_518_2676)"/>
<path d="M236.41 92.2139C236.951 92.2139 237.39 91.7751 237.39 91.2339C237.39 90.6927 236.951 90.2539 236.41 90.2539C235.869 90.2539 235.43 90.6927 235.43 91.2339C235.43 91.7751 235.869 92.2139 236.41 92.2139Z" fill="url(#paint27_radial_518_2676)"/>
<path d="M131.24 76.7341L116.18 61.6641H76.89L47.58 90.9841H0V91.4941H47.79L77.1 62.1841H115.97L131.03 77.2541H214.48V76.7341H131.24Z" fill="url(#paint28_radial_518_2676)"/>
<path d="M214.43 77.9756C214.971 77.9756 215.41 77.5369 215.41 76.9956C215.41 76.4544 214.971 76.0156 214.43 76.0156C213.889 76.0156 213.45 76.4544 213.45 76.9956C213.45 77.5369 213.889 77.9756 214.43 77.9756Z" fill="url(#paint29_radial_518_2676)"/>
<path d="M65.7 103.715H15.23V103.195H65.49L87.88 80.8047H108.63V81.3247H88.09L65.7 103.715Z" fill="url(#paint30_radial_518_2676)"/>
<path d="M15.2798 104.429C14.7398 104.429 14.2998 103.989 14.2998 103.449C14.2998 102.909 14.7398 102.469 15.2798 102.469C15.8198 102.469 16.2598 102.909 16.2598 103.449C16.2498 103.999 15.8198 104.429 15.2798 104.429Z" fill="url(#paint31_radial_518_2676)"/>
<path d="M108.58 82.0459C109.121 82.0459 109.56 81.6072 109.56 81.0659C109.56 80.5247 109.121 80.0859 108.58 80.0859C108.038 80.0859 107.6 80.5247 107.6 81.0659C107.6 81.6072 108.038 82.0459 108.58 82.0459Z" fill="url(#paint32_radial_518_2676)"/>
<path d="M179.88 111.734L164 127.614H129.81L92.35 165.064H0V165.584H92.57L130.02 128.134H164.22L180.1 112.254H245.41V111.734H179.88Z" fill="url(#paint33_radial_518_2676)"/>
<path d="M245.37 112.972C245.911 112.972 246.35 112.533 246.35 111.992C246.35 111.45 245.911 111.012 245.37 111.012C244.829 111.012 244.39 111.45 244.39 111.992C244.39 112.533 244.829 112.972 245.37 112.972Z" fill="url(#paint34_radial_518_2676)"/>
<path d="M196.21 137.035L176.22 157.025H151.89L119.22 189.695H0V190.215H119.44L152.11 157.545H176.43L196.43 137.555H291.82V137.035H196.21Z" fill="url(#paint35_radial_518_2676)"/>
<path d="M291.77 138.265C292.31 138.265 292.75 137.825 292.75 137.285C292.75 136.745 292.31 136.305 291.77 136.305C291.23 136.305 290.79 136.745 290.79 137.285C290.8 137.825 291.24 138.265 291.77 138.265Z" fill="url(#paint36_radial_518_2676)"/>
</g>
<g opacity="0.5" clip-path="url(#clip1_518_2676)">
<path d="M1160.57 55.8734L1192.42 24.0234H1245.75L1274.08 52.3534H1320V52.8734H1273.87L1245.53 24.5434H1192.64L1160.79 56.3934H1052.6V55.8734H1160.57Z" fill="url(#paint37_radial_518_2676)"/>
<path d="M1052.65 57.1163C1052.11 57.1163 1051.67 56.6775 1051.67 56.1363C1051.67 55.595 1052.11 55.1562 1052.65 55.1562C1053.19 55.1562 1053.63 55.595 1053.63 56.1363C1053.63 56.6775 1053.19 57.1163 1052.65 57.1163Z" fill="url(#paint38_radial_518_2676)"/>
<path d="M1312.46 266.336L1320 273.876V274.616L1312.24 266.856H1203.06V266.336H1312.46Z" fill="url(#paint39_radial_518_2676)"/>
<path d="M1203.11 267.573C1202.57 267.573 1202.13 267.135 1202.13 266.593C1202.13 266.052 1202.57 265.613 1203.11 265.613C1203.65 265.613 1204.09 266.052 1204.09 266.593C1204.09 267.135 1203.65 267.573 1203.11 267.573Z" fill="url(#paint40_radial_518_2676)"/>
<path d="M1315.62 135.423L1320 131.043V131.773L1315.83 135.943H1249.63V135.423H1315.62Z" fill="url(#paint41_radial_518_2676)"/>
<path d="M1249.68 136.663C1249.14 136.663 1248.7 136.224 1248.7 135.683C1248.7 135.142 1249.14 134.703 1249.68 134.703C1250.22 134.703 1250.66 135.142 1250.66 135.683C1250.66 136.224 1250.22 136.663 1249.68 136.663Z" fill="url(#paint42_radial_518_2676)"/>
<path d="M1315.77 248.797L1320 253.037V253.767L1315.55 249.317H1233.18V248.797H1315.77Z" fill="url(#paint43_radial_518_2676)"/>
<path d="M1233.23 248.086C1232.69 248.086 1232.25 248.526 1232.25 249.066C1232.25 249.606 1232.69 250.046 1233.23 250.046C1233.77 250.046 1234.21 249.606 1234.21 249.066C1234.21 248.526 1233.77 248.086 1233.23 248.086Z" fill="url(#paint44_radial_518_2676)"/>
<path d="M1239.98 137.102L1261.84 158.972H1320V159.492H1261.63L1239.61 137.472L1239.98 137.102Z" fill="url(#paint45_radial_518_2676)"/>
<path d="M1239.14 138.013C1238.76 137.633 1238.76 137.013 1239.14 136.633C1239.52 136.253 1240.14 136.253 1240.52 136.633C1240.9 137.013 1240.9 137.633 1240.52 138.013C1240.14 138.393 1239.52 138.393 1239.14 138.013Z" fill="url(#paint46_radial_518_2676)"/>
<path d="M1117.27 274.745L1132.17 259.845H1186.65L1215.05 231.445H1307.06L1320 244.385V245.115L1306.85 231.965H1215.26L1186.87 260.365H1132.39L1117.49 275.265H1042.02V274.745H1117.27Z" fill="url(#paint47_radial_518_2676)"/>
<path d="M1042.07 275.983C1041.53 275.983 1041.09 275.545 1041.09 275.003C1041.09 274.462 1041.53 274.023 1042.07 274.023C1042.61 274.023 1043.05 274.462 1043.05 275.003C1043.05 275.545 1042.61 275.983 1042.07 275.983Z" fill="url(#paint48_radial_518_2676)"/>
<path d="M1094.34 249.363L1106.12 237.583H1152.58L1180.85 209.312H1295.82L1320 233.493V234.223L1295.6 209.833H1181.07L1152.79 238.103H1106.33L1094.55 249.883H1029.8V249.363H1094.34Z" fill="url(#paint49_radial_518_2676)"/>
<path d="M1029.85 250.601C1029.31 250.601 1028.87 250.162 1028.87 249.621C1028.87 249.079 1029.31 248.641 1029.85 248.641C1030.39 248.641 1030.83 249.079 1030.83 249.621C1030.83 250.162 1030.39 250.601 1029.85 250.601Z" fill="url(#paint50_radial_518_2676)"/>
<path d="M1121.42 122.305L1138.09 138.975H1169.88L1208.92 178.005H1320V178.525H1208.7L1169.67 139.485H1137.87L1121.2 122.825H1051.79V122.305H1121.42Z" fill="url(#paint51_radial_518_2676)"/>
<path d="M1051.84 123.534C1051.3 123.534 1050.86 123.094 1050.86 122.554C1050.86 122.014 1051.3 121.574 1051.84 121.574C1052.38 121.574 1052.82 122.014 1052.82 122.554C1052.81 123.104 1052.38 123.534 1051.84 123.534Z" fill="url(#paint52_radial_518_2676)"/>
<path d="M1047.72 261.774H1101.56L1116.92 246.414H1155.83L1181.07 221.184H1293.21V220.664H1180.85L1155.61 245.894H1116.7L1101.34 261.254H1047.72V261.774Z" fill="url(#paint53_radial_518_2676)"/>
<path d="M1293.16 221.905C1292.62 221.905 1292.18 221.467 1292.18 220.925C1292.18 220.384 1292.62 219.945 1293.16 219.945C1293.7 219.945 1294.14 220.384 1294.14 220.925C1294.14 221.467 1293.7 221.905 1293.16 221.905Z" fill="url(#paint54_radial_518_2676)"/>
<path d="M1047.77 262.495C1047.23 262.495 1046.79 262.056 1046.79 261.515C1046.79 260.974 1047.23 260.535 1047.77 260.535C1048.31 260.535 1048.75 260.974 1048.75 261.515C1048.75 262.056 1048.31 262.495 1047.77 262.495Z" fill="url(#paint55_radial_518_2676)"/>
<path d="M1210.33 129.763H1234.75V129.243H1210.55L1180.83 99.5234H1102.27V100.043H1180.61L1210.33 129.763Z" fill="url(#paint56_radial_518_2676)"/>
<path d="M1234.7 130.483C1234.16 130.483 1233.72 130.045 1233.72 129.503C1233.72 128.962 1234.16 128.523 1234.7 128.523C1235.24 128.523 1235.68 128.962 1235.68 129.503C1235.68 130.045 1235.24 130.483 1234.7 130.483Z" fill="url(#paint57_radial_518_2676)"/>
<path d="M1102.32 100.765C1101.78 100.765 1101.34 100.326 1101.34 99.7847C1101.34 99.2435 1101.78 98.8047 1102.32 98.8047C1102.86 98.8047 1103.3 99.2435 1103.3 99.7847C1103.3 100.326 1102.86 100.765 1102.32 100.765Z" fill="url(#paint58_radial_518_2676)"/>
<path d="M1268.36 148.383H1320V148.903H1268.36V148.383Z" fill="url(#paint59_radial_518_2676)"/>
<path d="M1268.41 149.624C1267.87 149.624 1267.43 149.185 1267.43 148.644C1267.43 148.103 1267.87 147.664 1268.41 147.664C1268.95 147.664 1269.39 148.103 1269.39 148.644C1269.39 149.185 1268.95 149.624 1268.41 149.624Z" fill="url(#paint60_radial_518_2676)"/>
<path d="M1166.57 66.7559L1196.49 36.8359H1245.96L1282.19 73.0659H1320V73.5859H1281.98L1245.75 37.3559H1196.71L1166.78 67.2759H1111.22V66.7559H1166.57Z" fill="url(#paint61_radial_518_2676)"/>
<path d="M1111.27 67.9952C1110.73 67.9952 1110.29 67.5564 1110.29 67.0152C1110.29 66.4739 1110.73 66.0352 1111.27 66.0352C1111.81 66.0352 1112.25 66.4739 1112.25 67.0152C1112.25 67.5564 1111.81 67.9952 1111.27 67.9952Z" fill="url(#paint62_radial_518_2676)"/>
<path d="M1195.08 90.9844L1224.39 120.294H1308.03L1320 108.324V109.064L1308.25 120.814H1224.17L1194.86 91.4944H1083.54V90.9844H1195.08Z" fill="url(#paint63_radial_518_2676)"/>
<path d="M1083.59 92.2139C1083.05 92.2139 1082.61 91.7751 1082.61 91.2339C1082.61 90.6927 1083.05 90.2539 1083.59 90.2539C1084.13 90.2539 1084.57 90.6927 1084.57 91.2339C1084.57 91.7751 1084.13 92.2139 1083.59 92.2139Z" fill="url(#paint64_radial_518_2676)"/>
<path d="M1188.76 76.7341L1203.82 61.6641H1243.11L1272.42 90.9841H1320V91.4941H1272.21L1242.9 62.1841H1204.03L1188.97 77.2541H1105.52V76.7341H1188.76Z" fill="url(#paint65_radial_518_2676)"/>
<path d="M1105.57 77.9756C1105.03 77.9756 1104.59 77.5369 1104.59 76.9956C1104.59 76.4544 1105.03 76.0156 1105.57 76.0156C1106.11 76.0156 1106.55 76.4544 1106.55 76.9956C1106.55 77.5369 1106.11 77.9756 1105.57 77.9756Z" fill="url(#paint66_radial_518_2676)"/>
<path d="M1254.3 103.715H1304.77V103.195H1254.51L1232.12 80.8047H1211.37V81.3247H1231.91L1254.3 103.715Z" fill="url(#paint67_radial_518_2676)"/>
<path d="M1304.72 104.429C1305.26 104.429 1305.7 103.989 1305.7 103.449C1305.7 102.909 1305.26 102.469 1304.72 102.469C1304.18 102.469 1303.74 102.909 1303.74 103.449C1303.75 103.999 1304.18 104.429 1304.72 104.429Z" fill="url(#paint68_radial_518_2676)"/>
<path d="M1211.42 82.0459C1210.88 82.0459 1210.44 81.6072 1210.44 81.0659C1210.44 80.5247 1210.88 80.0859 1211.42 80.0859C1211.96 80.0859 1212.4 80.5247 1212.4 81.0659C1212.4 81.6072 1211.96 82.0459 1211.42 82.0459Z" fill="url(#paint69_radial_518_2676)"/>
<path d="M1140.12 111.734L1156 127.614H1190.19L1227.65 165.064H1320V165.584H1227.43L1189.98 128.134H1155.78L1139.9 112.254H1074.59V111.734H1140.12Z" fill="url(#paint70_radial_518_2676)"/>
<path d="M1074.63 112.972C1074.09 112.972 1073.65 112.533 1073.65 111.992C1073.65 111.45 1074.09 111.012 1074.63 111.012C1075.17 111.012 1075.61 111.45 1075.61 111.992C1075.61 112.533 1075.17 112.972 1074.63 112.972Z" fill="url(#paint71_radial_518_2676)"/>
<path d="M1123.79 137.035L1143.78 157.025H1168.11L1200.78 189.695H1320V190.215H1200.56L1167.89 157.545H1143.57L1123.57 137.555H1028.18V137.035H1123.79Z" fill="url(#paint72_radial_518_2676)"/>
<path d="M1028.23 138.265C1027.69 138.265 1027.25 137.825 1027.25 137.285C1027.25 136.745 1027.69 136.305 1028.23 136.305C1028.77 136.305 1029.21 136.745 1029.21 137.285C1029.2 137.825 1028.76 138.265 1028.23 138.265Z" fill="url(#paint73_radial_518_2676)"/>
</g>
<defs>
<radialGradient id="paint0_radial_518_2676" cx="0" cy="0" r="1" gradientUnits="userSpaceOnUse" gradientTransform="translate(133.7 40.2079) scale(95.23 95.23)">
<stop stop-color="#616161"/>
<stop offset="1" stop-color="#C2C2C2"/>
</radialGradient>
<radialGradient id="paint1_radial_518_2676" cx="0" cy="0" r="1" gradientUnits="userSpaceOnUse" gradientTransform="translate(267.35 56.1352) scale(0.976696 0.9767)">
<stop stop-color="#616161"/>
<stop offset="1" stop-color="#C2C2C2"/>
</radialGradient>
<radialGradient id="paint2_radial_518_2676" cx="0" cy="0" r="1" gradientUnits="userSpaceOnUse" gradientTransform="translate(58.4711 270.475) scale(41.4487 41.4487)">
<stop stop-color="#616161"/>
<stop offset="1" stop-color="#C2C2C2"/>
</radialGradient>
<radialGradient id="paint3_radial_518_2676" cx="0" cy="0" r="1" gradientUnits="userSpaceOnUse" gradientTransform="translate(116.894 266.593) scale(0.9767 0.976703)">
<stop stop-color="#616161"/>
<stop offset="1" stop-color="#C2C2C2"/>
</radialGradient>
<radialGradient id="paint4_radial_518_2676" cx="0" cy="0" r="1" gradientUnits="userSpaceOnUse" gradientTransform="translate(35.1826 133.491) scale(24.9382 24.9382)">
<stop stop-color="#616161"/>
<stop offset="1" stop-color="#C2C2C2"/>
</radialGradient>
<radialGradient id="paint5_radial_518_2676" cx="0" cy="0" r="1" gradientUnits="userSpaceOnUse" gradientTransform="translate(70.316 135.683) scale(0.976703 0.9767)">
<stop stop-color="#616161"/>
<stop offset="1" stop-color="#C2C2C2"/>
</radialGradient>
<radialGradient id="paint6_radial_518_2676" cx="0" cy="0" r="1" gradientUnits="userSpaceOnUse" gradientTransform="translate(43.4089 251.287) scale(30.745 30.745)">
<stop stop-color="#616161"/>
<stop offset="1" stop-color="#C2C2C2"/>
</radialGradient>
<radialGradient id="paint7_radial_518_2676" cx="0" cy="0" r="1" gradientUnits="userSpaceOnUse" gradientTransform="translate(86.7689 249.06) scale(0.9767 0.976703)">
<stop stop-color="#616161"/>
<stop offset="1" stop-color="#C2C2C2"/>
</radialGradient>
<radialGradient id="paint8_radial_518_2676" cx="0" cy="0" r="1" gradientUnits="userSpaceOnUse" gradientTransform="translate(40.1959 148.298) scale(29.5042)">
<stop stop-color="#616161"/>
<stop offset="1" stop-color="#C2C2C2"/>
</radialGradient>
<radialGradient id="paint9_radial_518_2676" cx="0" cy="0" r="1" gradientUnits="userSpaceOnUse" gradientTransform="translate(80.1737 137.325) scale(0.976699)">
<stop stop-color="#616161"/>
<stop offset="1" stop-color="#C2C2C2"/>
</radialGradient>
<radialGradient id="paint10_radial_518_2676" cx="0" cy="0" r="1" gradientUnits="userSpaceOnUse" gradientTransform="translate(138.992 253.355) scale(99.4951 99.4951)">
<stop stop-color="#616161"/>
<stop offset="1" stop-color="#C2C2C2"/>
</radialGradient>
<radialGradient id="paint11_radial_518_2676" cx="0" cy="0" r="1" gradientUnits="userSpaceOnUse" gradientTransform="translate(277.934 275.001) scale(0.976696 0.976703)">
<stop stop-color="#616161"/>
<stop offset="1" stop-color="#C2C2C2"/>
</radialGradient>
<radialGradient id="paint12_radial_518_2676" cx="0" cy="0" r="1" gradientUnits="userSpaceOnUse" gradientTransform="translate(145.098 229.597) scale(103.598 103.598)">
<stop stop-color="#616161"/>
<stop offset="1" stop-color="#C2C2C2"/>
</radialGradient>
<radialGradient id="paint13_radial_518_2676" cx="0" cy="0" r="1" gradientUnits="userSpaceOnUse" gradientTransform="translate(290.147 249.622) scale(0.976696 0.976703)">
<stop stop-color="#616161"/>
<stop offset="1" stop-color="#C2C2C2"/>
</radialGradient>
<radialGradient id="paint14_radial_518_2676" cx="0" cy="0" r="1" gradientUnits="userSpaceOnUse" gradientTransform="translate(134.106 150.413) scale(96.8885 96.8885)">
<stop stop-color="#616161"/>
<stop offset="1" stop-color="#C2C2C2"/>
</radialGradient>
<radialGradient id="paint15_radial_518_2676" cx="0" cy="0" r="1" gradientUnits="userSpaceOnUse" gradientTransform="translate(268.163 122.56) scale(0.976711 0.9767)">
<stop stop-color="#616161"/>
<stop offset="1" stop-color="#C2C2C2"/>
</radialGradient>
<radialGradient id="paint16_radial_518_2676" cx="0" cy="0" r="1" gradientUnits="userSpaceOnUse" gradientTransform="translate(149.539 241.218) scale(88.0023 88.0023)">
<stop stop-color="#616161"/>
<stop offset="1" stop-color="#C2C2C2"/>
</radialGradient>
<radialGradient id="paint17_radial_518_2676" cx="0" cy="0" r="1" gradientUnits="userSpaceOnUse" gradientTransform="translate(26.8437 220.92) scale(0.9767 0.976703)">
<stop stop-color="#616161"/>
<stop offset="1" stop-color="#C2C2C2"/>
</radialGradient>
<radialGradient id="paint18_radial_518_2676" cx="0" cy="0" r="1" gradientUnits="userSpaceOnUse" gradientTransform="translate(272.234 261.517) scale(0.976696 0.976703)">
<stop stop-color="#616161"/>
<stop offset="1" stop-color="#C2C2C2"/>
</radialGradient>
<radialGradient id="paint19_radial_518_2676" cx="0" cy="0" r="1" gradientUnits="userSpaceOnUse" gradientTransform="translate(151.491 114.647) scale(48.0451 48.0451)">
<stop stop-color="#616161"/>
<stop offset="1" stop-color="#C2C2C2"/>
</radialGradient>
<radialGradient id="paint20_radial_518_2676" cx="0" cy="0" r="1" gradientUnits="userSpaceOnUse" gradientTransform="translate(85.2968 129.506) scale(0.9767)">
<stop stop-color="#616161"/>
<stop offset="1" stop-color="#C2C2C2"/>
</radialGradient>
<radialGradient id="paint21_radial_518_2676" cx="0" cy="0" r="1" gradientUnits="userSpaceOnUse" gradientTransform="translate(217.684 99.789) scale(0.976703 0.9767)">
<stop stop-color="#616161"/>
<stop offset="1" stop-color="#C2C2C2"/>
</radialGradient>
<radialGradient id="paint22_radial_518_2676" cx="0" cy="0" r="1" gradientUnits="userSpaceOnUse" gradientTransform="translate(25.8195 148.638) scale(18.2581 18.258)">
<stop stop-color="#616161"/>
<stop offset="1" stop-color="#C2C2C2"/>
</radialGradient>
<radialGradient id="paint23_radial_518_2676" cx="0" cy="0" r="1" gradientUnits="userSpaceOnUse" gradientTransform="translate(51.5903 148.639) scale(0.9767)">
<stop stop-color="#616161"/>
<stop offset="1" stop-color="#C2C2C2"/>
</radialGradient>
<radialGradient id="paint24_radial_518_2676" cx="0" cy="0" r="1" gradientUnits="userSpaceOnUse" gradientTransform="translate(104.389 55.2132) scale(74.9488 74.9488)">
<stop stop-color="#616161"/>
<stop offset="1" stop-color="#C2C2C2"/>
</radialGradient>
<radialGradient id="paint25_radial_518_2676" cx="0" cy="0" r="1" gradientUnits="userSpaceOnUse" gradientTransform="translate(208.729 67.0183) scale(0.976703 0.976701)">
<stop stop-color="#616161"/>
<stop offset="1" stop-color="#C2C2C2"/>
</radialGradient>
<radialGradient id="paint26_radial_518_2676" cx="0" cy="0" r="1" gradientUnits="userSpaceOnUse" gradientTransform="translate(118.23 105.895) scale(84.2636)">
<stop stop-color="#616161"/>
<stop offset="1" stop-color="#C2C2C2"/>
</radialGradient>
<radialGradient id="paint27_radial_518_2676" cx="0" cy="0" r="1" gradientUnits="userSpaceOnUse" gradientTransform="translate(236.411 91.2386) scale(0.976703 0.9767)">
<stop stop-color="#616161"/>
<stop offset="1" stop-color="#C2C2C2"/>
</radialGradient>
<radialGradient id="paint28_radial_518_2676" cx="0" cy="0" r="1" gradientUnits="userSpaceOnUse" gradientTransform="translate(107.238 76.5835) scale(76.5588 76.5588)">
<stop stop-color="#616161"/>
<stop offset="1" stop-color="#C2C2C2"/>
</radialGradient>
<radialGradient id="paint29_radial_518_2676" cx="0" cy="0" r="1" gradientUnits="userSpaceOnUse" gradientTransform="translate(214.428 76.9917) scale(0.976703 0.9767)">
<stop stop-color="#616161"/>
<stop offset="1" stop-color="#C2C2C2"/>
</radialGradient>
<radialGradient id="paint30_radial_518_2676" cx="0" cy="0" r="1" gradientUnits="userSpaceOnUse" gradientTransform="translate(61.9306 92.2574) scale(34.0019 34.0019)">
<stop stop-color="#616161"/>
<stop offset="1" stop-color="#C2C2C2"/>
</radialGradient>
<radialGradient id="paint31_radial_518_2676" cx="0" cy="0" r="1" gradientUnits="userSpaceOnUse" gradientTransform="translate(15.2772 103.456) scale(0.9767)">
<stop stop-color="#616161"/>
<stop offset="1" stop-color="#C2C2C2"/>
</radialGradient>
<radialGradient id="paint32_radial_518_2676" cx="0" cy="0" r="1" gradientUnits="userSpaceOnUse" gradientTransform="translate(108.583 81.0637) scale(0.9767)">
<stop stop-color="#616161"/>
<stop offset="1" stop-color="#C2C2C2"/>
</radialGradient>
<radialGradient id="paint33_radial_518_2676" cx="0" cy="0" r="1" gradientUnits="userSpaceOnUse" gradientTransform="translate(122.707 138.664) scale(88.8314 88.8314)">
<stop stop-color="#616161"/>
<stop offset="1" stop-color="#C2C2C2"/>
</radialGradient>
<radialGradient id="paint34_radial_518_2676" cx="0" cy="0" r="1" gradientUnits="userSpaceOnUse" gradientTransform="translate(245.366 111.996) scale(0.976703 0.9767)">
<stop stop-color="#616161"/>
<stop offset="1" stop-color="#C2C2C2"/>
</radialGradient>
<radialGradient id="paint35_radial_518_2676" cx="0" cy="0" r="1" gradientUnits="userSpaceOnUse" gradientTransform="translate(145.912 163.625) scale(104.875 104.875)">
<stop stop-color="#616161"/>
<stop offset="1" stop-color="#C2C2C2"/>
</radialGradient>
<radialGradient id="paint36_radial_518_2676" cx="0" cy="0" r="1" gradientUnits="userSpaceOnUse" gradientTransform="translate(291.775 137.29) scale(0.976696 0.9767)">
<stop stop-color="#616161"/>
<stop offset="1" stop-color="#C2C2C2"/>
</radialGradient>
<radialGradient id="paint37_radial_518_2676" cx="0" cy="0" r="1" gradientUnits="userSpaceOnUse" gradientTransform="translate(1186.3 40.2079) rotate(180) scale(95.23 95.23)">
<stop stop-color="#616161"/>
<stop offset="1" stop-color="#C2C2C2"/>
</radialGradient>
<radialGradient id="paint38_radial_518_2676" cx="0" cy="0" r="1" gradientUnits="userSpaceOnUse" gradientTransform="translate(1052.65 56.1352) rotate(180) scale(0.976696 0.9767)">
<stop stop-color="#616161"/>
<stop offset="1" stop-color="#C2C2C2"/>
</radialGradient>
<radialGradient id="paint39_radial_518_2676" cx="0" cy="0" r="1" gradientUnits="userSpaceOnUse" gradientTransform="translate(1261.53 270.475) rotate(180) scale(41.4487 41.4487)">
<stop stop-color="#616161"/>
<stop offset="1" stop-color="#C2C2C2"/>
</radialGradient>
<radialGradient id="paint40_radial_518_2676" cx="0" cy="0" r="1" gradientUnits="userSpaceOnUse" gradientTransform="translate(1203.11 266.593) rotate(180) scale(0.9767 0.976703)">
<stop stop-color="#616161"/>
<stop offset="1" stop-color="#C2C2C2"/>
</radialGradient>
<radialGradient id="paint41_radial_518_2676" cx="0" cy="0" r="1" gradientUnits="userSpaceOnUse" gradientTransform="translate(1284.82 133.491) rotate(180) scale(24.9382 24.9382)">
<stop stop-color="#616161"/>
<stop offset="1" stop-color="#C2C2C2"/>
</radialGradient>
<radialGradient id="paint42_radial_518_2676" cx="0" cy="0" r="1" gradientUnits="userSpaceOnUse" gradientTransform="translate(1249.68 135.683) rotate(180) scale(0.976703 0.9767)">
<stop stop-color="#616161"/>
<stop offset="1" stop-color="#C2C2C2"/>
</radialGradient>
<radialGradient id="paint43_radial_518_2676" cx="0" cy="0" r="1" gradientUnits="userSpaceOnUse" gradientTransform="translate(1276.59 251.287) rotate(180) scale(30.745 30.745)">
<stop stop-color="#616161"/>
<stop offset="1" stop-color="#C2C2C2"/>
</radialGradient>
<radialGradient id="paint44_radial_518_2676" cx="0" cy="0" r="1" gradientUnits="userSpaceOnUse" gradientTransform="translate(1233.23 249.06) rotate(180) scale(0.9767 0.976703)">
<stop stop-color="#616161"/>
<stop offset="1" stop-color="#C2C2C2"/>
</radialGradient>
<radialGradient id="paint45_radial_518_2676" cx="0" cy="0" r="1" gradientUnits="userSpaceOnUse" gradientTransform="translate(1279.8 148.298) rotate(180) scale(29.5042)">
<stop stop-color="#616161"/>
<stop offset="1" stop-color="#C2C2C2"/>
</radialGradient>
<radialGradient id="paint46_radial_518_2676" cx="0" cy="0" r="1" gradientUnits="userSpaceOnUse" gradientTransform="translate(1239.83 137.325) rotate(180) scale(0.976699)">
<stop stop-color="#616161"/>
<stop offset="1" stop-color="#C2C2C2"/>
</radialGradient>
<radialGradient id="paint47_radial_518_2676" cx="0" cy="0" r="1" gradientUnits="userSpaceOnUse" gradientTransform="translate(1181.01 253.355) rotate(180) scale(99.4951 99.4951)">
<stop stop-color="#616161"/>
<stop offset="1" stop-color="#C2C2C2"/>
</radialGradient>
<radialGradient id="paint48_radial_518_2676" cx="0" cy="0" r="1" gradientUnits="userSpaceOnUse" gradientTransform="translate(1042.07 275.001) rotate(180) scale(0.976696 0.976703)">
<stop stop-color="#616161"/>
<stop offset="1" stop-color="#C2C2C2"/>
</radialGradient>
<radialGradient id="paint49_radial_518_2676" cx="0" cy="0" r="1" gradientUnits="userSpaceOnUse" gradientTransform="translate(1174.9 229.597) rotate(180) scale(103.598 103.598)">
<stop stop-color="#616161"/>
<stop offset="1" stop-color="#C2C2C2"/>
</radialGradient>
<radialGradient id="paint50_radial_518_2676" cx="0" cy="0" r="1" gradientUnits="userSpaceOnUse" gradientTransform="translate(1029.85 249.622) rotate(180) scale(0.976696 0.976703)">
<stop stop-color="#616161"/>
<stop offset="1" stop-color="#C2C2C2"/>
</radialGradient>
<radialGradient id="paint51_radial_518_2676" cx="0" cy="0" r="1" gradientUnits="userSpaceOnUse" gradientTransform="translate(1185.89 150.413) rotate(180) scale(96.8885 96.8885)">
<stop stop-color="#616161"/>
<stop offset="1" stop-color="#C2C2C2"/>
</radialGradient>
<radialGradient id="paint52_radial_518_2676" cx="0" cy="0" r="1" gradientUnits="userSpaceOnUse" gradientTransform="translate(1051.84 122.56) rotate(180) scale(0.976711 0.9767)">
<stop stop-color="#616161"/>
<stop offset="1" stop-color="#C2C2C2"/>
</radialGradient>
<radialGradient id="paint53_radial_518_2676" cx="0" cy="0" r="1" gradientUnits="userSpaceOnUse" gradientTransform="translate(1170.46 241.218) rotate(180) scale(88.0023 88.0023)">
<stop stop-color="#616161"/>
<stop offset="1" stop-color="#C2C2C2"/>
</radialGradient>
<radialGradient id="paint54_radial_518_2676" cx="0" cy="0" r="1" gradientUnits="userSpaceOnUse" gradientTransform="translate(1293.16 220.92) rotate(180) scale(0.9767 0.976703)">
<stop stop-color="#616161"/>
<stop offset="1" stop-color="#C2C2C2"/>
</radialGradient>
<radialGradient id="paint55_radial_518_2676" cx="0" cy="0" r="1" gradientUnits="userSpaceOnUse" gradientTransform="translate(1047.77 261.517) rotate(180) scale(0.976696 0.976703)">
<stop stop-color="#616161"/>
<stop offset="1" stop-color="#C2C2C2"/>
</radialGradient>
<radialGradient id="paint56_radial_518_2676" cx="0" cy="0" r="1" gradientUnits="userSpaceOnUse" gradientTransform="translate(1168.51 114.647) rotate(180) scale(48.0451 48.0451)">
<stop stop-color="#616161"/>
<stop offset="1" stop-color="#C2C2C2"/>
</radialGradient>
<radialGradient id="paint57_radial_518_2676" cx="0" cy="0" r="1" gradientUnits="userSpaceOnUse" gradientTransform="translate(1234.7 129.506) rotate(180) scale(0.9767)">
<stop stop-color="#616161"/>
<stop offset="1" stop-color="#C2C2C2"/>
</radialGradient>
<radialGradient id="paint58_radial_518_2676" cx="0" cy="0" r="1" gradientUnits="userSpaceOnUse" gradientTransform="translate(1102.32 99.789) rotate(180) scale(0.976703 0.9767)">
<stop stop-color="#616161"/>
<stop offset="1" stop-color="#C2C2C2"/>
</radialGradient>
<radialGradient id="paint59_radial_518_2676" cx="0" cy="0" r="1" gradientUnits="userSpaceOnUse" gradientTransform="translate(1294.18 148.638) rotate(180) scale(18.2581 18.258)">
<stop stop-color="#616161"/>
<stop offset="1" stop-color="#C2C2C2"/>
</radialGradient>
<radialGradient id="paint60_radial_518_2676" cx="0" cy="0" r="1" gradientUnits="userSpaceOnUse" gradientTransform="translate(1268.41 148.639) rotate(180) scale(0.9767)">
<stop stop-color="#616161"/>
<stop offset="1" stop-color="#C2C2C2"/>
</radialGradient>
<radialGradient id="paint61_radial_518_2676" cx="0" cy="0" r="1" gradientUnits="userSpaceOnUse" gradientTransform="translate(1215.61 55.2132) rotate(180) scale(74.9488 74.9488)">
<stop stop-color="#616161"/>
<stop offset="1" stop-color="#C2C2C2"/>
</radialGradient>
<radialGradient id="paint62_radial_518_2676" cx="0" cy="0" r="1" gradientUnits="userSpaceOnUse" gradientTransform="translate(1111.27 67.0183) rotate(180) scale(0.976703 0.976701)">
<stop stop-color="#616161"/>
<stop offset="1" stop-color="#C2C2C2"/>
</radialGradient>
<radialGradient id="paint63_radial_518_2676" cx="0" cy="0" r="1" gradientUnits="userSpaceOnUse" gradientTransform="translate(1201.77 105.895) rotate(180) scale(84.2636)">
<stop stop-color="#616161"/>
<stop offset="1" stop-color="#C2C2C2"/>
</radialGradient>
<radialGradient id="paint64_radial_518_2676" cx="0" cy="0" r="1" gradientUnits="userSpaceOnUse" gradientTransform="translate(1083.59 91.2386) rotate(180) scale(0.976703 0.9767)">
<stop stop-color="#616161"/>
<stop offset="1" stop-color="#C2C2C2"/>
</radialGradient>
<radialGradient id="paint65_radial_518_2676" cx="0" cy="0" r="1" gradientUnits="userSpaceOnUse" gradientTransform="translate(1212.76 76.5835) rotate(180) scale(76.5588 76.5588)">
<stop stop-color="#616161"/>
<stop offset="1" stop-color="#C2C2C2"/>
</radialGradient>
<radialGradient id="paint66_radial_518_2676" cx="0" cy="0" r="1" gradientUnits="userSpaceOnUse" gradientTransform="translate(1105.57 76.9917) rotate(180) scale(0.976703 0.9767)">
<stop stop-color="#616161"/>
<stop offset="1" stop-color="#C2C2C2"/>
</radialGradient>
<radialGradient id="paint67_radial_518_2676" cx="0" cy="0" r="1" gradientUnits="userSpaceOnUse" gradientTransform="translate(1258.07 92.2574) rotate(180) scale(34.0019 34.0019)">
<stop stop-color="#616161"/>
<stop offset="1" stop-color="#C2C2C2"/>
</radialGradient>
<radialGradient id="paint68_radial_518_2676" cx="0" cy="0" r="1" gradientUnits="userSpaceOnUse" gradientTransform="translate(1304.72 103.456) rotate(180) scale(0.9767)">
<stop stop-color="#616161"/>
<stop offset="1" stop-color="#C2C2C2"/>
</radialGradient>
<radialGradient id="paint69_radial_518_2676" cx="0" cy="0" r="1" gradientUnits="userSpaceOnUse" gradientTransform="translate(1211.42 81.0637) rotate(180) scale(0.9767)">
<stop stop-color="#616161"/>
<stop offset="1" stop-color="#C2C2C2"/>
</radialGradient>
<radialGradient id="paint70_radial_518_2676" cx="0" cy="0" r="1" gradientUnits="userSpaceOnUse" gradientTransform="translate(1197.29 138.664) rotate(180) scale(88.8314 88.8314)">
<stop stop-color="#616161"/>
<stop offset="1" stop-color="#C2C2C2"/>
</radialGradient>
<radialGradient id="paint71_radial_518_2676" cx="0" cy="0" r="1" gradientUnits="userSpaceOnUse" gradientTransform="translate(1074.63 111.996) rotate(180) scale(0.976703 0.9767)">
<stop stop-color="#616161"/>
<stop offset="1" stop-color="#C2C2C2"/>
</radialGradient>
<radialGradient id="paint72_radial_518_2676" cx="0" cy="0" r="1" gradientUnits="userSpaceOnUse" gradientTransform="translate(1174.09 163.625) rotate(180) scale(104.875 104.875)">
<stop stop-color="#616161"/>
<stop offset="1" stop-color="#C2C2C2"/>
</radialGradient>
<radialGradient id="paint73_radial_518_2676" cx="0" cy="0" r="1" gradientUnits="userSpaceOnUse" gradientTransform="translate(1028.22 137.29) rotate(180) scale(0.976696 0.9767)">
<stop stop-color="#616161"/>
<stop offset="1" stop-color="#C2C2C2"/>
</radialGradient>
<clipPath id="clip0_518_2676">
<rect width="292.75" height="251.95" fill="white" transform="translate(0 24.0234)"/>
</clipPath>
<clipPath id="clip1_518_2676">
<rect width="292.75" height="251.95" fill="white" transform="matrix(-1 0 0 1 1320 24.0234)"/>
</clipPath>
</defs>
</svg>
