<svg width="32" height="33" viewBox="0 0 32 33" fill="none" xmlns="http://www.w3.org/2000/svg">
<path d="M4.03369 2.94531L5.71772 26.6748L16.0122 30.0586L26.3067 26.6748L27.9907 2.94531H4.03369Z" fill="#FF7816"/>
<path d="M27.9907 2.94531L26.3067 26.6748L16.0122 30.0586V2.94531H27.9907Z" fill="#FF4B00"/>
<path d="M23.4948 10.1461H11.7228L12.0086 14.1178H23.209L22.5257 23.7344L16.0122 25.9109L9.49863 23.7344L9.27626 20.5254H12.4536L12.5171 21.3992L16.0122 22.5588L19.5072 21.3992L19.7931 17.2951H9.03796L8.30713 6.96875H23.7172L23.4948 10.1461Z" fill="#ECECF1"/>
<path d="M23.209 14.1211L22.5257 23.7377L16.0122 25.9143V22.5621L19.5073 21.4025L19.7932 17.2984H16.0122V14.1211H23.209Z" fill="#E2E2E7"/>
<path d="M23.7173 6.97266L23.4949 10.15H16.0122V6.97266H23.7173Z" fill="#E2E2E7"/>
</svg>
