<svg width="32" height="33" viewBox="0 0 32 33" fill="none" xmlns="http://www.w3.org/2000/svg">
<path d="M15.8465 3.47678C14.7842 3.48171 13.7697 3.57232 12.877 3.73029C10.2473 4.19488 9.76987 5.16725 9.76987 6.96055V9.32894H15.9841V10.1184H9.76987H7.4377C5.63168 10.1184 4.05023 11.2039 3.55562 13.269C2.98506 15.636 2.95977 17.1131 3.55562 19.5847C3.99737 21.4244 5.05227 22.7352 6.85828 22.7352H8.99489V19.896C8.99489 17.8449 10.7696 16.0357 12.877 16.0357H19.084C20.8119 16.0357 22.1911 14.613 22.1911 12.8778V6.96055C22.1911 5.27648 20.7704 4.01137 19.084 3.73029C18.0165 3.55258 16.9089 3.47184 15.8465 3.47678ZM12.4859 5.38164C13.1278 5.38164 13.6519 5.91441 13.6519 6.56942C13.6519 7.22215 13.1278 7.74998 12.4859 7.74998C11.8417 7.74998 11.3198 7.22215 11.3198 6.56942C11.3198 5.91436 11.8417 5.38164 12.4859 5.38164Z" fill="url(#paint0_linear_3987_8430)"/>
<path d="M22.9663 10.1173V12.8768C22.9663 15.0162 21.1525 16.8168 19.0842 16.8168H12.8772C11.177 16.8168 9.77002 18.2719 9.77002 19.9746V25.8919C9.77002 27.576 11.2345 28.5665 12.8772 29.0497C14.8443 29.6281 16.7306 29.7327 19.0842 29.0497C20.6487 28.5968 22.1913 27.6852 22.1913 25.8919V23.5235H15.9843V22.734H22.1913H25.2984C27.1045 22.734 27.7775 21.4743 28.4056 19.5835C29.0544 17.6369 29.0268 15.7649 28.4056 13.2678C27.9593 11.4699 27.1068 10.1172 25.2984 10.1172H22.9663V10.1173ZM19.4753 25.1025C20.1195 25.1025 20.6414 25.6303 20.6414 26.283C20.6414 26.9381 20.1195 27.4709 19.4753 27.4709C18.8334 27.4709 18.3093 26.9381 18.3093 26.283C18.3092 25.6303 18.8334 25.1025 19.4753 25.1025Z" fill="url(#paint1_linear_3987_8430)"/>
<defs>
<linearGradient id="paint0_linear_3987_8430" x1="2.50912" y1="4.21733" x2="16.8417" y2="16.4401" gradientUnits="userSpaceOnUse">
<stop stop-color="#5A9FD4"/>
<stop offset="1" stop-color="#306998"/>
</linearGradient>
<linearGradient id="paint1_linear_3987_8430" x1="22.2346" y1="24.0368" x2="17.0947" y2="16.8288" gradientUnits="userSpaceOnUse">
<stop stop-color="#FFD43B"/>
<stop offset="1" stop-color="#FFE873"/>
</linearGradient>
</defs>
</svg>
