<svg width="32" height="33" viewBox="0 0 32 33" fill="none" xmlns="http://www.w3.org/2000/svg">
<path d="M24.4339 8.68489C24.4163 8.55652 24.3039 8.48551 24.2112 8.47777C24.1185 8.47002 22.3086 8.44251 22.3086 8.44251C22.3086 8.44251 20.795 6.97246 20.6454 6.82284C20.4959 6.67322 20.2038 6.71861 20.0904 6.75198C20.0888 6.75247 19.8064 6.83992 19.3298 6.98746C19.2503 6.72913 19.133 6.41186 18.9659 6.09305C18.4269 5.06492 17.6379 4.52071 16.6842 4.51932C16.6831 4.51932 16.6821 4.51932 16.6809 4.51932C16.6148 4.51932 16.5489 4.52553 16.483 4.53154C16.455 4.49777 16.4266 4.4643 16.3968 4.43237C15.9816 3.98797 15.4484 3.77146 14.8102 3.79018C13.5783 3.82549 12.3521 4.71502 11.3575 6.29477C10.6573 7.40663 10.1254 8.80338 9.97417 9.8844C8.55999 10.3223 7.57054 10.6288 7.54914 10.6355C6.83529 10.8595 6.81285 10.8819 6.71924 11.5545C6.64838 12.0636 4.78076 26.5073 4.78076 26.5073L20.4349 29.2143L27.2195 27.5279C27.2195 27.5279 24.4514 8.81326 24.4339 8.68489ZM10.8511 9.61277C11.2744 7.63357 12.9328 4.66432 14.8339 4.60965C15.1231 4.60359 15.3667 4.66705 15.5747 4.80396C15.242 4.97673 14.9202 5.22502 14.6183 5.54879C13.8359 6.38813 13.2365 7.69137 12.9975 8.94808C12.2517 9.17905 11.5222 9.40494 10.8511 9.61277ZM16.5119 7.85991C15.6919 8.11382 14.7966 8.39106 13.8985 8.66915C14.1513 7.7019 14.6299 6.73887 15.2181 6.10795C15.4369 5.87326 15.743 5.61136 16.1054 5.46184C16.4463 6.17231 16.5202 7.17949 16.5119 7.85991ZM17.3308 7.60635C17.3217 6.98259 17.2472 6.115 16.9567 5.36501C17.8913 5.54209 18.3515 6.59962 18.5457 7.23019C18.1855 7.34167 17.7753 7.4687 17.3308 7.60635Z" fill="#95BF47"/>
<path d="M24.211 8.47817C24.1182 8.47043 22.3084 8.44292 22.3084 8.44292C22.3084 8.44292 20.7947 6.97287 20.6452 6.82325C20.5894 6.76743 20.5138 6.73888 20.4351 6.72656L20.4355 29.2145L27.2192 27.5283C27.2192 27.5283 24.4513 8.81367 24.4337 8.6853C24.4161 8.55693 24.3037 8.48592 24.211 8.47817Z" fill="#5E8E3E"/>
<path d="M16.6749 11.9677L15.8868 14.9155C15.8868 14.9155 15.0079 14.5153 13.9658 14.5811C12.4378 14.6776 12.4216 15.6414 12.4368 15.8829C12.5201 17.2013 15.9883 17.4894 16.1833 20.5773C16.3367 23.0067 14.8947 24.6684 12.8169 24.7996C10.3236 24.9571 8.95068 23.4858 8.95068 23.4858L9.479 21.238C9.479 21.238 10.8607 22.2805 11.9667 22.2106C12.6891 22.165 12.9472 21.5774 12.921 21.1619C12.8124 19.4421 9.9882 19.5434 9.80978 16.7177C9.65961 14.3394 11.2213 11.9301 14.6672 11.7125C15.9949 11.6288 16.6749 11.9677 16.6749 11.9677Z" fill="white"/>
</svg>
