<svg width="32" height="33" viewBox="0 0 32 33" fill="none" xmlns="http://www.w3.org/2000/svg">
<path d="M16 30.3633C23.6554 30.3633 29.8613 24.1574 29.8613 16.502C29.8613 8.84655 23.6554 2.64062 16 2.64062C8.3446 2.64062 2.13867 8.84655 2.13867 16.502C2.13867 24.1574 8.3446 30.3633 16 30.3633Z" fill="#0071BC"/>
<path d="M16.0001 8.80078C11.7554 8.80078 8.29932 12.2569 8.29932 16.5015C8.29932 20.7462 11.7554 24.2023 16.0001 24.2023C20.2447 24.2023 23.7008 20.7462 23.7008 16.5015C23.7008 12.2569 20.2447 8.80078 16.0001 8.80078ZM16.0001 9.90353C17.7127 9.90353 19.2713 10.5565 20.448 11.6347C20.2509 11.5977 20.0537 11.6039 19.8566 11.6716C19.3206 11.8564 18.8647 12.6327 19.2036 13.2857C19.3576 13.5814 19.6718 14.0065 20.0044 14.4562C20.2201 14.7458 20.6944 15.7992 20.2878 17.3455C19.9983 18.4421 19.4007 20.3272 19.4007 20.3272L17.0042 13.3535H17.762C17.916 13.3535 18.0392 13.2302 18.0392 13.0762C18.0392 12.9222 17.916 12.799 17.762 12.799H14.1026C13.9486 12.799 13.8254 12.9222 13.8254 13.0762C13.8254 13.2302 13.9486 13.3535 14.1026 13.3535H14.731L15.8276 16.2058L14.4106 20.4443L12.0265 13.3535H12.7842C12.9382 13.3535 13.0615 13.2302 13.0615 13.0762C13.0615 12.9222 12.9382 12.799 12.7842 12.799H10.5541C11.7369 11.0494 13.7391 9.90353 16.0001 9.90353ZM9.40206 16.5015C9.40206 15.5589 9.5992 14.6657 9.95651 13.8586L13.1354 22.4403C10.9299 21.3745 9.40206 19.1136 9.40206 16.5015ZM14.0841 22.8161L16.1417 17.1176L18.2055 22.7237C17.5156 22.9701 16.7763 23.1057 16.0001 23.1057C15.3347 23.0995 14.694 23.0009 14.0841 22.8161ZM19.4869 22.1015C19.8997 20.8817 21.3351 16.6309 21.6062 15.7869C21.8588 14.9922 22.0682 14.5301 22.0498 13.8709C22.4009 14.678 22.598 15.5713 22.598 16.5015C22.598 18.861 21.3536 20.931 19.4869 22.1015Z" fill="white"/>
</svg>
