<svg width="20" height="20" viewBox="0 0 20 20" fill="none" xmlns="http://www.w3.org/2000/svg">
<g id="magic-wand 1" clip-path="url(#clip0_1162_63057)">
<g id="Group">
<g id="Group_2">
<path id="Vector" d="M19.6698 3.51675C19.6698 3.29697 19.5969 3.11369 19.4501 2.96717L17.031 0.548077C16.8845 0.401428 16.7013 0.328125 16.4813 0.328125C16.2612 0.328125 16.0781 0.401428 15.9315 0.548077L0.219952 16.2596C0.073132 16.4063 0 16.5897 0 16.8096C0 17.0296 0.073132 17.2126 0.219952 17.3593L2.63896 19.7782C2.78578 19.925 2.9688 19.9982 3.18884 19.9982C3.40866 19.9982 3.5919 19.9253 3.73859 19.7782L19.4503 4.06663C19.5969 3.91985 19.6698 3.73679 19.6698 3.51675ZM14.2087 7.09654L12.9015 5.78923L16.4811 2.20949L17.7883 3.51675L14.2087 7.09654Z" fill="#686868"/>
<path id="Vector_2" d="M2.79818 3.12752L3.16465 1.93027L4.36185 1.5638L3.16465 1.19724L2.79818 0L2.43162 1.19724L1.23438 1.5638L2.43162 1.93027L2.79818 3.12752Z" fill="#686868"/>
<path id="Vector_3" d="M5.97274 4.64218L6.7059 7.03688L7.43906 4.64218L9.83367 3.90902L7.43906 3.17595L6.7059 0.78125L5.97274 3.17595L3.57812 3.90902L5.97274 4.64218Z" fill="#686868"/>
<path id="Vector_4" d="M18.8051 9.01751L18.4387 7.82031L18.0723 9.01751L16.875 9.38403L18.0723 9.75054L18.4387 10.9477L18.8051 9.75054L20.0026 9.38403L18.8051 9.01751Z" fill="#686868"/>
<path id="Vector_5" d="M10.6184 3.12752L10.985 1.93027L12.1821 1.5638L10.985 1.19724L10.6184 0L10.252 1.19724L9.05469 1.5638L10.252 1.93027L10.6184 3.12752Z" fill="#686868"/>
</g>
</g>
</g>
<defs>
<clipPath id="clip0_1162_63057">
<rect width="20" height="20" fill="white"/>
</clipPath>
</defs>
</svg>
