<svg width="25" height="25" viewBox="0 0 25 25" fill="none" xmlns="http://www.w3.org/2000/svg">
<path d="M16.6073 2.54688C15.5463 2.62026 14.3061 3.29943 13.5834 4.18383C12.9242 4.98614 12.3818 6.17778 12.5933 7.33584C13.7526 7.37191 14.9505 6.67658 15.6446 5.77725C16.2939 4.94011 16.7852 3.75593 16.6073 2.54688Z" fill="black"/>
<path d="M20.8008 9.22586C19.782 7.94839 18.3503 7.20703 16.9982 7.20703C15.2132 7.20703 14.4582 8.06158 13.218 8.06158C11.9393 8.06158 10.9678 7.20952 9.42418 7.20952C7.90788 7.20952 6.29332 8.13621 5.2696 9.72093C3.83042 11.9525 4.07671 16.1481 6.409 19.7218C7.24364 21.0005 8.35817 22.4384 9.816 22.4509C11.1134 22.4633 11.4791 21.6187 13.2367 21.61C14.9943 21.6 15.3277 22.4621 16.6226 22.4484C18.0816 22.4372 19.2571 20.8438 20.0917 19.565C20.6901 18.6483 20.9127 18.1868 21.3767 17.1519C18.002 15.867 17.4609 11.0681 20.8008 9.22586Z" fill="black"/>
</svg>
