<svg width="21" height="21" viewBox="0 0 21 21" fill="none" xmlns="http://www.w3.org/2000/svg">
<g clip-path="url(#clip0_1162_47980)">
<path fill-rule="evenodd" clip-rule="evenodd" d="M10.8462 1.07031C12.649 1.09089 14.2777 1.53398 15.7323 2.39958C17.1695 3.24791 18.3651 4.45076 19.2046 5.89312C20.0649 7.35644 20.5054 8.99502 20.5259 10.8089C20.4748 13.2906 19.692 15.4103 18.1776 17.1679C16.6631 18.9255 14.7235 20.0128 12.7156 20.4296V13.4715H14.6139L15.0432 10.7372H12.1687V8.94621C12.1527 8.57493 12.2701 8.2102 12.4997 7.91796C12.7296 7.62492 13.1344 7.4709 13.7141 7.4559H15.4499V5.06065C15.425 5.05264 15.1887 5.02095 14.7409 4.96559C14.2332 4.90618 13.7225 4.87444 13.2113 4.87053C12.0542 4.87587 11.139 5.20226 10.4659 5.84972C9.79276 6.497 9.4489 7.43347 9.43432 8.65913V10.7372H7.24682V13.4715H9.43432V20.4296C6.9689 20.0128 5.02925 18.9255 3.51479 17.1679C2.00034 15.4103 1.21761 13.2906 1.1665 10.8089C1.18695 8.99493 1.62736 7.35636 2.48774 5.89312C3.3273 4.45076 4.52285 3.24791 5.96007 2.39958C7.41459 1.53414 9.04329 1.09105 10.8462 1.07031Z" fill="#545454"/>
</g>
<defs>
<clipPath id="clip0_1162_47980">
<rect width="20" height="20" fill="white" transform="translate(0.87793 0.765625)"/>
</clipPath>
</defs>
</svg>
