<svg width="25" height="25" viewBox="0 0 25 25" fill="none" xmlns="http://www.w3.org/2000/svg">
<path d="M10.5734 13.7498C10.5014 13.7498 8.91736 13.7498 8.19736 13.7498C7.81336 13.7498 7.69336 13.6058 7.69336 13.2458C7.69336 12.2858 7.69336 11.3018 7.69336 10.3418C7.69336 9.95778 7.83736 9.83778 8.19736 9.83778H10.5734C10.5734 9.76578 10.5734 8.37378 10.5734 7.72578C10.5734 6.76578 10.7414 5.85378 11.2214 5.01378C11.7254 4.14978 12.4454 3.57378 13.3574 3.23778C13.9574 3.02178 14.5574 2.92578 15.2054 2.92578H17.5574C17.8934 2.92578 18.0374 3.06978 18.0374 3.40578V6.14178C18.0374 6.47778 17.8934 6.62178 17.5574 6.62178C16.9094 6.62178 16.2614 6.62178 15.6134 6.64578C14.9654 6.64578 14.6294 6.95778 14.6294 7.62978C14.6054 8.34978 14.6294 9.04578 14.6294 9.78978H17.4134C17.7974 9.78978 17.9414 9.93378 17.9414 10.3178V13.2218C17.9414 13.6058 17.8214 13.7258 17.4134 13.7258C16.5494 13.7258 14.7014 13.7258 14.6294 13.7258V21.5498C14.6294 21.9578 14.5094 22.1018 14.0774 22.1018C13.0694 22.1018 12.0854 22.1018 11.0774 22.1018C10.7174 22.1018 10.5734 21.9578 10.5734 21.5978C10.5734 19.0778 10.5734 13.8218 10.5734 13.7498Z" fill="black"/>
</svg>
