<svg width="25" height="25" viewBox="0 0 25 25" fill="none" xmlns="http://www.w3.org/2000/svg">
<path d="M7.59973 14.4772L6.93986 16.9406L4.52805 16.9916C3.80727 15.6547 3.39844 14.1251 3.39844 12.4997C3.39844 10.9279 3.78069 9.44574 4.45826 8.14062H4.45878L6.60597 8.53428L7.54656 10.6686C7.3497 11.2425 7.2424 11.8586 7.2424 12.4997C7.24247 13.1955 7.36851 13.8622 7.59973 14.4772Z" fill="#FBBB00"/>
<path d="M22.1905 10.7305C22.2994 11.3038 22.3561 11.896 22.3561 12.5012C22.3561 13.1798 22.2848 13.8417 22.1488 14.4802C21.6874 16.653 20.4818 18.5503 18.8116 19.8929L18.8111 19.8924L16.1066 19.7544L15.7238 17.3649C16.832 16.715 17.6981 15.6979 18.1544 14.4802H13.0859V10.7305H18.2283H22.1905Z" fill="#518EF8"/>
<path d="M18.8097 19.8903L18.8103 19.8908C17.1859 21.1964 15.1225 21.9776 12.8763 21.9776C9.26662 21.9776 6.12829 19.9601 4.52734 16.991L7.59902 14.4766C8.39948 16.6129 10.4603 18.1336 12.8763 18.1336C13.9147 18.1336 14.8876 17.8529 15.7224 17.3628L18.8097 19.8903Z" fill="#28B446"/>
<path d="M18.9278 5.20558L15.8572 7.71947C14.9932 7.17941 13.9719 6.86743 12.8777 6.86743C10.407 6.86743 8.30768 8.45794 7.54733 10.6709L4.4595 8.14289H4.45898C6.0365 5.10143 9.2144 3.02344 12.8777 3.02344C15.1776 3.02344 17.2863 3.84267 18.9278 5.20558Z" fill="#F14336"/>
</svg>
