<svg width="21" height="21" viewBox="0 0 21 21" fill="none" xmlns="http://www.w3.org/2000/svg">
<g clip-path="url(#clip0_1162_47976)">
<path d="M20.8584 6.64568C20.8115 5.583 20.6397 4.85242 20.3935 4.21936C20.1396 3.54739 19.7489 2.94577 19.237 2.44564C18.7369 1.93773 18.1313 1.54306 17.4671 1.29307C16.8303 1.0469 16.1036 0.875052 15.0409 0.828198C13.9703 0.777377 13.6304 0.765625 10.915 0.765625C8.19967 0.765625 7.85979 0.777377 6.79314 0.82423C5.73046 0.871084 4.99988 1.04308 4.36698 1.2891C3.69485 1.54306 3.09323 1.93376 2.5931 2.44564C2.08519 2.94577 1.69067 3.55136 1.44053 4.21555C1.19436 4.85242 1.02251 5.57903 0.975659 6.64171C0.924837 7.71232 0.913086 8.0522 0.913086 10.7676C0.913086 13.483 0.924837 13.8228 0.971691 14.8895C1.01854 15.9522 1.19054 16.6827 1.43672 17.3158C1.69067 17.9878 2.08519 18.5894 2.5931 19.0895C3.09323 19.5974 3.69882 19.9921 4.36301 20.2421C4.99988 20.4883 5.7265 20.6601 6.78933 20.707C7.85582 20.754 8.19585 20.7656 10.9112 20.7656C13.6266 20.7656 13.9665 20.754 15.0331 20.707C16.0958 20.6601 16.8264 20.4883 17.4593 20.2421C18.8034 19.7224 19.8661 18.6597 20.3857 17.3158C20.6318 16.6789 20.8038 15.9522 20.8506 14.8895C20.8975 13.8228 20.9092 13.483 20.9092 10.7676C20.9092 8.0522 20.9052 7.71232 20.8584 6.64568ZM19.0573 14.8113C19.0143 15.7881 18.8502 16.3155 18.7135 16.6672C18.3774 17.5385 17.6859 18.23 16.8146 18.566C16.463 18.7028 15.9317 18.8668 14.9588 18.9097C13.9039 18.9567 13.5875 18.9683 10.919 18.9683C8.25049 18.9683 7.93014 18.9567 6.87906 18.9097C5.90231 18.8668 5.37486 18.7028 5.02323 18.566C4.58965 18.4058 4.19498 18.1518 3.87463 17.8197C3.54254 17.4954 3.28858 17.1047 3.12833 16.6711C2.99159 16.3195 2.82752 15.7881 2.78464 14.8153C2.73763 13.7604 2.72603 13.4439 2.72603 10.7754C2.72603 8.10684 2.73763 7.7865 2.78464 6.73557C2.82752 5.75882 2.99159 5.23137 3.12833 4.87974C3.28858 4.446 3.54254 4.05148 3.8786 3.73099C4.20276 3.39889 4.59346 3.14493 5.0272 2.98484C5.37883 2.84809 5.91025 2.68403 6.88303 2.64099C7.93793 2.59414 8.25446 2.58239 10.9228 2.58239C13.5953 2.58239 13.9117 2.59414 14.9628 2.64099C15.9395 2.68403 16.467 2.84809 16.8186 2.98484C17.2522 3.14493 17.6469 3.39889 17.9672 3.73099C18.2993 4.0553 18.5533 4.446 18.7135 4.87974C18.8502 5.23137 19.0143 5.76263 19.0573 6.73557C19.1042 7.79046 19.116 8.10684 19.116 10.7754C19.116 13.4439 19.1042 13.7564 19.0573 14.8113Z" fill="#545454"/>
<path d="M10.9151 5.62891C8.07867 5.62891 5.77734 7.93008 5.77734 10.7666C5.77734 13.6032 8.07867 15.9044 10.9151 15.9044C13.7516 15.9044 16.0528 13.6032 16.0528 10.7666C16.0528 7.93008 13.7516 5.62891 10.9151 5.62891ZM10.9151 14.0993C9.07495 14.0993 7.58235 12.6069 7.58235 10.7666C7.58235 8.92636 9.07495 7.43392 10.9151 7.43392C12.7553 7.43392 14.2478 8.92636 14.2478 10.7666C14.2478 12.6069 12.7553 14.0993 10.9151 14.0993Z" fill="#545454"/>
<path d="M17.4556 5.42598C17.4556 6.08835 16.9186 6.62541 16.2561 6.62541C15.5937 6.62541 15.0566 6.08835 15.0566 5.42598C15.0566 4.76347 15.5937 4.22656 16.2561 4.22656C16.9186 4.22656 17.4556 4.76347 17.4556 5.42598Z" fill="#545454"/>
</g>
<defs>
<clipPath id="clip0_1162_47976">
<rect width="20" height="20" fill="white" transform="translate(0.87793 0.765625)"/>
</clipPath>
</defs>
</svg>
