<svg width="21" height="21" viewBox="0 0 21 21" fill="none" xmlns="http://www.w3.org/2000/svg">
<g clip-path="url(#clip0_1162_47981)">
<path d="M18.1507 0.765625H3.6052C2.88188 0.765625 2.18819 1.05296 1.67673 1.56442C1.16527 2.07589 0.87793 2.76958 0.87793 3.4929L0.87793 18.0384C0.87793 18.7617 1.16527 19.4554 1.67673 19.9668C2.18819 20.4783 2.88188 20.7656 3.6052 20.7656H18.1507C18.874 20.7656 19.5677 20.4783 20.0791 19.9668C20.5906 19.4554 20.8779 18.7617 20.8779 18.0384V3.4929C20.8779 2.76958 20.5906 2.07589 20.0791 1.56442C19.5677 1.05296 18.874 0.765625 18.1507 0.765625ZM7.69611 16.5929C7.69626 16.6484 7.68547 16.7033 7.66435 16.7546C7.64323 16.8059 7.6122 16.8525 7.57303 16.8917C7.53387 16.931 7.48734 16.9622 7.43612 16.9834C7.3849 17.0047 7.32998 17.0156 7.27452 17.0156H5.47793C5.42237 17.0158 5.36734 17.0049 5.31598 16.9838C5.26463 16.9626 5.21797 16.9314 5.17868 16.8921C5.1394 16.8529 5.10827 16.8062 5.08708 16.7548C5.06588 16.7035 5.05505 16.6485 5.0552 16.5929V9.06108C5.0552 8.94897 5.09974 8.84144 5.17902 8.76217C5.25829 8.68289 5.36582 8.63835 5.47793 8.63835H7.27452C7.38644 8.63865 7.49367 8.68332 7.5727 8.76257C7.65173 8.84181 7.69611 8.94916 7.69611 9.06108V16.5929ZM6.37566 7.92472C6.03853 7.92472 5.70897 7.82475 5.42866 7.63745C5.14835 7.45015 4.92988 7.18394 4.80086 6.87247C4.67185 6.56101 4.63809 6.21828 4.70386 5.88763C4.76963 5.55698 4.93198 5.25326 5.17036 5.01487C5.40875 4.77649 5.71247 4.61415 6.04312 4.54838C6.37377 4.48261 6.71649 4.51636 7.02796 4.64538C7.33942 4.77439 7.60564 4.99286 7.79293 5.27318C7.98023 5.55349 8.0802 5.88304 8.0802 6.22017C8.0802 6.67224 7.90062 7.1058 7.58095 7.42547C7.26129 7.74513 6.82773 7.92472 6.37566 7.92472ZM17.087 16.6224C17.0872 16.6735 17.0772 16.7241 17.0577 16.7713C17.0383 16.8186 17.0096 16.8615 16.9735 16.8976C16.9374 16.9337 16.8945 16.9623 16.8473 16.9818C16.8001 17.0013 16.7495 17.0112 16.6984 17.0111H14.7666C14.7155 17.0112 14.6649 17.0013 14.6177 16.9818C14.5704 16.9623 14.5275 16.9337 14.4914 16.8976C14.4553 16.8615 14.4267 16.8186 14.4072 16.7713C14.3877 16.7241 14.3778 16.6735 14.3779 16.6224V13.094C14.3779 12.5668 14.5325 10.7849 12.9995 10.7849C11.812 10.7849 11.57 12.0043 11.5222 12.552V16.627C11.5223 16.7291 11.4821 16.8271 11.4104 16.8998C11.3388 16.9725 11.2414 17.0141 11.1393 17.0156H9.27338C9.2224 17.0156 9.17192 17.0056 9.12483 16.986C9.07774 16.9665 9.03498 16.9378 8.99898 16.9017C8.96298 16.8656 8.93446 16.8228 8.91505 16.7756C8.89565 16.7285 8.88574 16.678 8.88588 16.627V9.02812C8.88574 8.97714 8.89565 8.92663 8.91505 8.87949C8.93446 8.83234 8.96298 8.78949 8.99898 8.75339C9.03498 8.71728 9.07774 8.68864 9.12483 8.66909C9.17192 8.64955 9.2224 8.63949 9.27338 8.63949H11.1393C11.2424 8.63949 11.3412 8.68043 11.4141 8.75332C11.487 8.8262 11.5279 8.92505 11.5279 9.02812V9.68494C11.9688 9.02244 12.6222 8.51335 14.0166 8.51335C17.1052 8.51335 17.0847 11.3974 17.0847 12.9815L17.087 16.6224Z" fill="#545454"/>
</g>
<defs>
<clipPath id="clip0_1162_47981">
<rect width="20" height="20" fill="white" transform="translate(0.87793 0.765625)"/>
</clipPath>
</defs>
</svg>
