<svg width="21" height="21" viewBox="0 0 21 21" fill="none" xmlns="http://www.w3.org/2000/svg">
<g clip-path="url(#clip0_1162_47979)">
<path fill-rule="evenodd" clip-rule="evenodd" d="M10.9018 1.30078C5.54813 1.30078 1.19824 5.61864 1.19824 10.9806C1.19824 16.3422 5.54813 20.6601 10.9018 20.6601C16.2555 20.6601 20.5576 16.3422 20.5576 10.9806C20.5576 5.61864 16.2555 1.30078 10.9018 1.30078ZM11.6666 13.5902C10.9496 13.5427 10.6628 13.1633 10.0892 12.8311C9.80241 14.4442 9.42001 15.9625 8.32059 16.7692C7.98599 14.3494 8.79859 12.5464 9.18101 10.6009C8.51178 9.50953 9.2766 7.23202 10.6628 7.80133C12.3837 8.4657 9.181 11.9769 11.332 12.4038C13.6265 12.8783 14.5347 8.4657 13.1485 7.04216C11.093 5.0018 7.22116 6.99463 7.69918 9.93649C7.84257 10.6484 8.55959 10.8855 8.03378 11.8821C6.69535 11.5974 6.31295 10.5533 6.36073 9.22486C6.45633 6.99463 8.36837 5.42876 10.3282 5.19165C12.7661 4.907 15.0605 6.09314 15.3473 8.37063C15.7297 10.9806 14.2479 13.7801 11.6666 13.5902Z" fill="#545454"/>
</g>
<defs>
<clipPath id="clip0_1162_47979">
<rect width="20" height="20" fill="white" transform="translate(0.87793 0.765625)"/>
</clipPath>
</defs>
</svg>
