<svg width="21" height="21" viewBox="0 0 21 21" fill="none" xmlns="http://www.w3.org/2000/svg">
<g clip-path="url(#clip0_1162_47977)">
<path d="M19.6405 5.78125C18.4991 5.78125 17.446 5.40312 16.6003 4.76523C15.6304 4.03398 14.9335 2.96133 14.6874 1.725C14.6265 1.41953 14.5936 1.1043 14.5905 0.78125H11.33V9.69063L11.3261 14.5707C11.3261 15.8754 10.4765 16.9816 9.29872 17.3707C8.95693 17.4836 8.58779 17.5371 8.20341 17.516C7.71279 17.4891 7.25302 17.341 6.85341 17.102C6.00302 16.5934 5.42646 15.6707 5.41083 14.6152C5.38622 12.9656 6.71982 11.6207 8.36825 11.6207C8.69364 11.6207 9.00615 11.6738 9.29872 11.7703V9.33516V8.45977C8.99013 8.41406 8.67607 8.39023 8.35849 8.39023C6.55419 8.39023 4.86669 9.14023 3.66044 10.4914C2.74872 11.5125 2.20185 12.8152 2.11747 14.1812C2.00693 15.9758 2.66357 17.6816 3.937 18.9402C4.12411 19.125 4.3206 19.2965 4.52607 19.4547C5.61786 20.2949 6.95263 20.7504 8.35849 20.7504C8.67607 20.7504 8.99013 20.727 9.29872 20.6812C10.612 20.4867 11.8237 19.8855 12.78 18.9402C13.955 17.7789 14.6042 16.2371 14.6112 14.5961L14.5944 7.30859C15.155 7.74102 15.7679 8.09883 16.4257 8.37656C17.4487 8.8082 18.5335 9.02695 19.6499 9.02656V6.65898V5.78047C19.6507 5.78125 19.6413 5.78125 19.6405 5.78125Z" fill="#545454"/>
</g>
<defs>
<clipPath id="clip0_1162_47977">
<rect width="20" height="20" fill="white" transform="translate(0.87793 0.765625)"/>
</clipPath>
</defs>
</svg>
